<svg xmlns="http://www.w3.org/2000/svg" width="88.608" height="69.961" viewBox="0 0 88.608 69.961">
  <g id="Group_173" data-name="Group 173" transform="translate(-377.696 -260.619)">
    <g id="Group_172" data-name="Group 172">
      <path id="Path_132" data-name="Path 132" d="M434.092,322.627c-4.573-.229-7.617-2.516-8.3-7.081-.926-6.2-6.081-8.84-10.057-12.385-1.619-1.444-3.791-.308-5.34,1.25-4.7,4.726-9.394,9.458-14.137,14.14-1.407,1.389-1.726,3.064-2.05,4.923-.817,4.689-4.271,7.351-8.775,7.088a8.074,8.074,0,0,1-7.72-7.707c-.271-4.507,2.368-8.125,7.075-8.74a10.386,10.386,0,0,0,6.349-3.49q4.734-4.811,9.553-9.536c2.619-2.566,4.855-5.035,5.431-9.13.555-3.948,3.868-6.073,8.091-5.965s7.342,2.371,7.808,6.369c.743,6.369,5.949,8.919,9.66,12.721,1.545,1.584,3.8,1.065,5.417-.52,3.8-3.734,7.537-7.54,11.3-11.32,1.156-1.162,1.086-2.7,1.369-4.171.9-4.675,4.3-7.346,8.8-7.084a8.076,8.076,0,0,1,7.72,7.707c.271,4.508-2.4,7.857-7.062,8.843-5.566,1.179-15.648,11.461-17,17.253C441.234,320.046,438.51,322.321,434.092,322.627Z" fill="#ffac45"/>
      <path id="Path_133" data-name="Path 133" d="M378.623,284.277c5.6-1.035,8.156-4.244,9.382-9.545,1.218,5.326,3.768,8.541,9.413,9.277-4.729,1.806-8.826,3.7-9.189,9.791C386.682,288.667,384.341,285.059,378.623,284.277Z" fill="#ffac45"/>
    </g>
    <path id="Path_134" data-name="Path 134" d="M423.035,272.351c6.887-1.272,10.024-5.216,11.531-11.732,1.5,6.546,4.631,10.5,11.57,11.4-5.812,2.22-10.848,4.55-11.295,12.035C432.941,277.746,430.063,273.312,423.035,272.351Z" fill="#ffac45"/>
  </g>
</svg>
