<svg xmlns="http://www.w3.org/2000/svg" width="603.394" height="529.431" viewBox="0 0 603.394 529.431">
  <g id="Group_518" data-name="Group 518" transform="translate(-16.175 -26.364)">
    <circle id="Ellipse_1" data-name="Ellipse 1" cx="157.916" cy="157.916" r="157.916" transform="translate(302.745 49.172)" fill="#e0e0e0"/>
    <circle id="Ellipse_1-2" data-name="Ellipse 1" cx="211.752" cy="211.752" r="211.752" transform="translate(16.175 132.291)" fill="#e0e0e0"/>
    <g id="Group_517" data-name="Group 517" transform="translate(58.192 26.364)">
      <path id="Path_198" data-name="Path 198" d="M463.692,246.146,317.5,330.547,80.566,193.417l146.188-84.4Z" transform="translate(29.984 86.817)" fill="#382323" opacity="0.5"/>
      <path id="Path_199" data-name="Path 199" d="M155.946,194.63c-22.542,0-40.815,9.719-40.815,21.711s18.273,21.711,40.815,21.711,40.815-9.722,40.815-21.711S178.486,194.63,155.946,194.63Z" transform="translate(77.316 204.055)" fill="#382323" opacity="0.5"/>
      <path id="Path_200" data-name="Path 200" d="M75.309,152.4c-15.946,0-28.871,6.876-28.871,15.356S59.363,183.11,75.309,183.11s28.868-6.878,28.868-15.358S91.252,152.4,75.309,152.4Z" transform="translate(-16.751 146.221)" fill="#382323" opacity="0.5"/>
      <path id="Path_201" data-name="Path 201" d="M80.26,89.717c-10.821,0-19.595,4.665-19.595,10.42S69.439,110.56,80.26,110.56s19.592-4.668,19.592-10.423S91.081,89.717,80.26,89.717Z" transform="translate(2.731 60.39)" fill="#382323" opacity="0.5"/>
      <path id="Path_202" data-name="Path 202" d="M105.015,72.5C89.922,72.5,77.689,79,77.689,87.031s12.233,14.536,27.326,14.536,27.324-6.509,27.324-14.536S120.106,72.5,105.015,72.5Z" transform="translate(26.043 36.81)" fill="#382323" opacity="0.5"/>
      <path id="Path_203" data-name="Path 203" d="M105.546,114.524,196.181,61.6l156.683,90.5-90.636,52.921Z" transform="translate(64.19 21.891)" fill="#382323" opacity="0.5"/>
      <path id="Path_204" data-name="Path 204" d="M275.04,215.846,135.893,296.183,33.908,237.3l139.147-80.337Z" transform="translate(-33.908 152.478)" fill="#382323" opacity="0.5"/>
      <g id="Group_486" data-name="Group 486" transform="translate(176.901)">
        <g id="Group_484" data-name="Group 484">
          <path id="Path_205" data-name="Path 205" d="M142.381,101.738,291.966,188.1l55.442-75.375L197.823,26.364Z" transform="translate(-62.27 -26.364)" fill="#5e3f3f"/>
          <path id="Path_206" data-name="Path 206" d="M143.632,99.624l145.95,84.519,53.149-72.2L196.781,27.423Z" transform="translate(-60.557 -24.914)" fill="#382323"/>
          <g id="Group_483" data-name="Group 483" transform="translate(0 75.375)">
            <g id="Group_480" data-name="Group 480">
              <path id="Path_207" data-name="Path 207" d="M108.57,110.536,258.155,196.9l80.427-46.435L189,64.1Z" transform="translate(-108.57 -50.062)" fill="#442c2c"/>
              <path id="Path_208" data-name="Path 208" d="M108.57,104.61l149.585,86.363,80.427-46.435L189,58.176Z" transform="translate(-108.57 -58.176)" fill="#593c3c"/>
              <g id="Group_479" data-name="Group 479" transform="translate(5.88 2.745)">
                <path id="Path_209" data-name="Path 209" d="M112.954,103.628l-1.9-1.1,74.816-43.195,144.114,83.239-1.9,1.1L185.867,61.532Z" transform="translate(-111.051 -59.335)" fill="#442c2c"/>
                <path id="Path_210" data-name="Path 210" d="M111.854,102.359l72.914-42.1L326.979,142.4l-72.914,42.1Z" transform="translate(-109.952 -58.065)" fill="#330b7e"/>
              </g>
              <path id="Path_211" data-name="Path 211" d="M252.13,94.626v14.039L171.7,155.1V141.06Z" transform="translate(-22.118 -8.263)" fill="#442c2c"/>
              <path id="Path_212" data-name="Path 212" d="M108.57,77.774V91.813l149.585,86.363V164.137Z" transform="translate(-108.57 -31.339)" fill="#382323"/>
            </g>
            <path id="Path_213" data-name="Path 213" d="M147.587,93.144c1.813-1.888,7.757-1.159,9.48.611,6.76,6.956,19.429,9.286,17.581,13.273-1.057,2.279-5.144,2.305-7.2,2.08a35.836,35.836,0,0,1-6.833-1.846c-2.339-.742-4.765-1.22-7.073-2.057C149.177,103.626,142.969,97.949,147.587,93.144Z" transform="translate(-57.375 -11.813)" fill="#240d6b"/>
            <path id="Path_214" data-name="Path 214" d="M162.452,108.425c5.736-5.021,12.337-2.213,14.875-2.445a42.626,42.626,0,0,0,11.781-3.173c6.416-2.545,12.617-5.8,19.531-6.784,4.689-.668,12.233-.623,15.093,4.054,1.528,2.5,3.308,7.895-6.845,13.785-5.684,3.3-11.257,7.729-17.794,9.056-5.81,1.178-11.842.012-17.432-1.661-4.928-1.476-12.513-2.422-17.619-4.265C161.471,116.064,158.786,111.631,162.452,108.425Z" transform="translate(-37.239 -6.77)" fill="#240d6b"/>
            <path id="Path_215" data-name="Path 215" d="M134.246,75.192c10.447-7.883,19.429-10.662,22.926-11.086,5.978-.725,11.968,2.016,17.287,4.409a127.1,127.1,0,0,1,17.687,9.8c2.339,1.538,9,4.521,7.565,8.38-1.509,4.056-8.115,4.642-11.605,3.954-3.161-.623-5.98-1.737-9.269-1.746s-6.042.322-9.2-.746c-3.561-1.2-6.329-2.417-10.212-1.986-3.528.393-6.712,1.168-10.288.772-2.81-.31-5.611-.9-8.385-1.429-2.912-.559-6.357-.919-9.032-2.26C127.612,81.2,131.294,77.421,134.246,75.192Z" transform="translate(-79.375 -50.218)" fill="#240d6b"/>
            <g id="Group_481" data-name="Group 481" transform="translate(15.989 13.527)">
              <path id="Path_216" data-name="Path 216" d="M115.318,77.349a.092.092,0,0,1,.05-.085c.5-.275,1.073.37,1.32.746a2.593,2.593,0,0,1,.327,2.095.472.472,0,0,1-.91-.249,2.065,2.065,0,0,0-.206-1.6C115.716,77.948,115.356,77.716,115.318,77.349Z" transform="translate(-115.318 -45.656)" fill="#472599"/>
              <path id="Path_217" data-name="Path 217" d="M116.564,80.572a3.562,3.562,0,0,1,.836-1.13,7.047,7.047,0,0,1,1-1.263c.1-.078.3-.078.329.085a3.01,3.01,0,0,1-1.675,2.8A.4.4,0,0,1,116.564,80.572Z" transform="translate(-113.634 -44.38)" fill="#472599"/>
              <path id="Path_218" data-name="Path 218" d="M118.673,76.194a4.584,4.584,0,0,1,2.829,2.166.442.442,0,0,1-.644.5,6.568,6.568,0,0,1-1.116-1.161,14.061,14.061,0,0,0-1.3-1.1C118.249,76.44,118.453,76.125,118.673,76.194Z" transform="translate(-111.147 -47.043)" fill="#472599"/>
              <path id="Path_219" data-name="Path 219" d="M122.231,76.88c.211-.033.408.211.225.384-.351.334-.739.614-1.1.938a6.958,6.958,0,0,1-1.016.872c-.237.147-.6-.1-.5-.379A3.186,3.186,0,0,1,122.231,76.88Z" transform="translate(-109.14 -46.094)" fill="#472599"/>
              <path id="Path_220" data-name="Path 220" d="M122.684,81.532a4.933,4.933,0,0,1,1.841-.507c.306,0,.344.365.14.524a10.614,10.614,0,0,1-1.6.881,1.708,1.708,0,0,1-1.251.315.261.261,0,0,1-.18-.32C121.8,81.914,122.2,81.738,122.684,81.532Z" transform="translate(-106.69 -40.414)" fill="#472599"/>
              <path id="Path_221" data-name="Path 221" d="M130.445,85.6c.848.168,2.18,1.749,1.616,2.611a.317.317,0,0,1-.429.114c-.405-.258-.422-.668-.621-1.083-.225-.469-.626-.8-.865-1.253A.269.269,0,0,1,130.445,85.6Z" transform="translate(-95.058 -34.16)" fill="#472599"/>
              <path id="Path_222" data-name="Path 222" d="M135.173,86.387a.221.221,0,0,1,.111.408,8.761,8.761,0,0,0-1.268.775,3.3,3.3,0,0,1-1.125.675.216.216,0,0,1-.263-.261C132.809,86.887,134.2,86.416,135.173,86.387Z" transform="translate(-91.617 -33.071)" fill="#472599"/>
              <path id="Path_223" data-name="Path 223" d="M144.732,86.983a.255.255,0,0,1,.066.5,3.382,3.382,0,0,0-1.211.7c-.265.246-.393.493-.742.609a.318.318,0,0,1-.4-.3C142.382,87.485,143.936,86.956,144.732,86.983Z" transform="translate(-78.169 -32.257)" fill="#472599"/>
              <path id="Path_224" data-name="Path 224" d="M141.756,86.575c.54.443,1.2,1.239,1,1.976a.381.381,0,0,1-.628.166c-.469-.367-.668-1.17-.948-1.7A.366.366,0,0,1,141.756,86.575Z" transform="translate(-79.967 -32.942)" fill="#472599"/>
              <path id="Path_225" data-name="Path 225" d="M143.642,88.551c.666.554,1.832,1.67,1.467,2.639a.25.25,0,0,1-.363.147,1.972,1.972,0,0,1-.687-.936,6.143,6.143,0,0,0-.924-1.341A.36.36,0,0,1,143.642,88.551Z" transform="translate(-77.37 -30.236)" fill="#472599"/>
              <path id="Path_226" data-name="Path 226" d="M138.219,90.441c.671-.855,2.137-.905,3.111-.727a.163.163,0,0,1,0,.313,8.432,8.432,0,0,0-1.426.377,10.109,10.109,0,0,1-1.367.581A.328.328,0,0,1,138.219,90.441Z" transform="translate(-84.069 -28.629)" fill="#472599"/>
              <path id="Path_227" data-name="Path 227" d="M125.717,75.92c.884.166,2.149,1.715,1.77,2.63-.071.173-.294.341-.486.2-.4-.3-.46-.716-.694-1.137-.256-.46-.671-.829-.888-1.3A.267.267,0,0,1,125.717,75.92Z" transform="translate(-101.527 -47.412)" fill="#472599"/>
              <path id="Path_228" data-name="Path 228" d="M129.061,80.817a4.965,4.965,0,0,1,2.817-.571c.254.043.242.384.064.5a12.265,12.265,0,0,1-2.45,1.088.55.55,0,0,1-.543-.142.451.451,0,0,1-.164-.4A.543.543,0,0,1,129.061,80.817Z" transform="translate(-96.875 -41.535)" fill="#472599"/>
              <path id="Path_229" data-name="Path 229" d="M129.9,78.848c.166-.045.377.123.3.3a8,8,0,0,1-.7,1.208,4.96,4.96,0,0,1-.841,1.173.312.312,0,0,1-.526-.218A2.531,2.531,0,0,1,129.9,78.848Z" transform="translate(-97.781 -43.405)" fill="#472599"/>
              <path id="Path_230" data-name="Path 230" d="M136.215,79.266A3.224,3.224,0,0,1,137.5,81.8c.057.656-.967.652-1.021,0a8.668,8.668,0,0,0-.692-2.2A.3.3,0,0,1,136.215,79.266Z" transform="translate(-87.309 -42.874)" fill="#472599"/>
              <path id="Path_231" data-name="Path 231" d="M137,82.473a4.515,4.515,0,0,1,2.294-2.161c.2-.095.507.116.346.346a10.1,10.1,0,0,1-1.007,1.152,4.444,4.444,0,0,1-1.163,1.026C137.243,82.95,136.893,82.755,137,82.473Z" transform="translate(-85.654 -41.422)" fill="#472599"/>
              <path id="Path_232" data-name="Path 232" d="M134.476,71.744a3.733,3.733,0,0,1,3.211-.891.231.231,0,0,1,.055.419,15.439,15.439,0,0,1-1.462.607,6.212,6.212,0,0,1-1.5.585C134.367,72.516,134.279,71.99,134.476,71.744Z" transform="translate(-89.221 -54.423)" fill="#472599"/>
              <path id="Path_233" data-name="Path 233" d="M133.007,70.468a3.275,3.275,0,0,1,1.737,2.365.38.38,0,0,1-.642.265,4.752,4.752,0,0,1-.706-1.073c-.244-.405-.554-.753-.765-1.18A.278.278,0,0,1,133.007,70.468Z" transform="translate(-91.656 -54.913)" fill="#472599"/>
              <path id="Path_234" data-name="Path 234" d="M129.047,73.107a2.9,2.9,0,0,1,2.673-1.249.158.158,0,0,1,.071.263,8.367,8.367,0,0,1-1.133.761,5.088,5.088,0,0,1-1.206.753A.363.363,0,0,1,129.047,73.107Z" transform="translate(-96.571 -52.993)" fill="#472599"/>
              <path id="Path_235" data-name="Path 235" d="M132.707,74.227a4.036,4.036,0,0,1,2.971,2.147.346.346,0,0,1-.5.386,15.089,15.089,0,0,1-1.156-1.052,8.213,8.213,0,0,0-1.507-1.019C132.25,74.552,132.435,74.163,132.707,74.227Z" transform="translate(-91.946 -49.732)" fill="#472599"/>
              <path id="Path_236" data-name="Path 236" d="M140.237,75.747a5.884,5.884,0,0,1,3.229-1.374c.294-.017.358.379.14.524-.886.583-1.853,1.083-2.765,1.63a.484.484,0,0,1-.5,0,.529.529,0,0,1-.23-.3A.481.481,0,0,1,140.237,75.747Z" transform="translate(-81.398 -49.525)" fill="#472599"/>
              <path id="Path_237" data-name="Path 237" d="M140.108,73.969a3.681,3.681,0,0,1,1.907-1.223.169.169,0,0,1,.19.246,3.666,3.666,0,0,1-1.666,1.535A.384.384,0,0,1,140.108,73.969Z" transform="translate(-81.451 -51.759)" fill="#472599"/>
              <path id="Path_238" data-name="Path 238" d="M149.292,79.813a.288.288,0,0,1,.145.533c-.5.315-1.026.578-1.516.905a2.662,2.662,0,0,1-1.291.663.313.313,0,0,1-.3-.391C146.539,80.436,148.339,79.861,149.292,79.813Z" transform="translate(-72.858 -42.074)" fill="#472599"/>
              <path id="Path_239" data-name="Path 239" d="M144.623,79.442a4.412,4.412,0,0,1,1.438,2.775.312.312,0,0,1-.576.156,9.4,9.4,0,0,1-.614-1.308c-.208-.441-.457-.858-.68-1.289A.276.276,0,0,1,144.623,79.442Z" transform="translate(-75.825 -42.691)" fill="#472599"/>
              <path id="Path_240" data-name="Path 240" d="M149.057,85.873c.393-.471,1.038-.438,1.609-.486a19.091,19.091,0,0,1,2.208-.057.181.181,0,0,1,.047.353,19.518,19.518,0,0,1-2.125.661,2.1,2.1,0,0,1-1.673.038A.328.328,0,0,1,149.057,85.873Z" transform="translate(-69.241 -34.531)" fill="#472599"/>
              <path id="Path_241" data-name="Path 241" d="M148.541,84.3c.173-.22.493-.019.507.211a8.329,8.329,0,0,1-.1,1.3,3.7,3.7,0,0,1-.156,1.156.347.347,0,0,1-.626.083A2.812,2.812,0,0,1,148.541,84.3Z" transform="translate(-70.633 -36.057)" fill="#472599"/>
              <path id="Path_242" data-name="Path 242" d="M148.523,77.465c.55-1.009,2.443-1.455,3.471-1.118a.239.239,0,0,1,.057.431,10.035,10.035,0,0,1-1.571.678,5.278,5.278,0,0,1-1.606.616A.407.407,0,0,1,148.523,77.465Z" transform="translate(-69.914 -46.972)" fill="#472599"/>
              <path id="Path_243" data-name="Path 243" d="M149.359,75.219a.288.288,0,0,1,.277.479c-.509.472-.772,1.156-1.3,1.6a.3.3,0,0,1-.488-.128C147.6,76.172,148.506,75.466,149.359,75.219Z" transform="translate(-70.826 -48.379)" fill="#472599"/>
              <path id="Path_244" data-name="Path 244" d="M138.014,65.554a3.269,3.269,0,0,1,1.727,2.547c0,.22-.32.4-.479.2-.592-.746-.879-1.689-1.488-2.438C137.644,65.7,137.812,65.419,138.014,65.554Z" transform="translate(-84.629 -61.647)" fill="#472599"/>
              <path id="Path_245" data-name="Path 245" d="M140.406,65.312a.254.254,0,0,1,.372.152,3.764,3.764,0,0,1-.043,1.261,2.493,2.493,0,0,1-.216,1.152.342.342,0,0,1-.583,0A2.2,2.2,0,0,1,140.406,65.312Z" transform="translate(-81.931 -61.985)" fill="#472599"/>
              <path id="Path_246" data-name="Path 246" d="M145.7,65.393a5.846,5.846,0,0,1,3.372.085.215.215,0,0,1,0,.412,5.867,5.867,0,0,1-3.372.088A.307.307,0,0,1,145.7,65.393Z" transform="translate(-74.006 -62.121)" fill="#472599"/>
              <path id="Path_247" data-name="Path 247" d="M145.643,63.968c.275-.235.756.069.531.408a11.7,11.7,0,0,1-1.054,1.734.374.374,0,0,1-.633-.261A2.8,2.8,0,0,1,145.643,63.968Z" transform="translate(-75.374 -63.885)" fill="#472599"/>
              <path id="Path_248" data-name="Path 248" d="M146.762,67.795a2.409,2.409,0,0,1,1.82,1.874.329.329,0,0,1-.557.23,6.01,6.01,0,0,1-.6-.846,11.418,11.418,0,0,0-.834-.96A.18.18,0,0,1,146.762,67.795Z" transform="translate(-72.565 -58.54)" fill="#472599"/>
              <path id="Path_249" data-name="Path 249" d="M148.838,69.278a10.4,10.4,0,0,1,4.407-.315.255.255,0,0,1,.066.5,10.587,10.587,0,0,1-4.473.554C148.426,69.943,148.525,69.4,148.838,69.278Z" transform="translate(-69.79 -57.056)" fill="#472599"/>
              <path id="Path_250" data-name="Path 250" d="M152.4,70.936a2.846,2.846,0,0,1,.955,3.248.344.344,0,0,1-.59,0,4.635,4.635,0,0,1-.426-1.507,4.53,4.53,0,0,1-.334-1.512A.269.269,0,0,1,152.4,70.936Z" transform="translate(-65.086 -54.272)" fill="#472599"/>
              <path id="Path_251" data-name="Path 251" d="M155.207,72.12c.213-.088.434.211.3.4a9.035,9.035,0,0,1-1.175,1.452.249.249,0,0,1-.422-.173A1.928,1.928,0,0,1,155.207,72.12Z" transform="translate(-62.467 -52.63)" fill="#472599"/>
              <path id="Path_252" data-name="Path 252" d="M161.749,80.276c.727-1.161,2.812-1.384,4.056-1.327a.3.3,0,0,1,.078.585c-.678.19-1.358.391-2.014.644a5.29,5.29,0,0,1-1.824.611A.344.344,0,0,1,161.749,80.276Z" transform="translate(-51.802 -43.268)" fill="#472599"/>
              <path id="Path_253" data-name="Path 253" d="M162.158,78.327a.346.346,0,0,1,.469.469,10.3,10.3,0,0,1-.962,1.692.321.321,0,0,1-.533-.14A1.9,1.9,0,0,1,162.158,78.327Z" transform="translate(-52.652 -44.168)" fill="#472599"/>
              <path id="Path_254" data-name="Path 254" d="M160.576,74.2a3.322,3.322,0,0,1,2.99-.057.234.234,0,0,1-.054.422,5.55,5.55,0,0,1-1.415.211,4.529,4.529,0,0,1-1.438.071C160.339,74.787,160.341,74.358,160.576,74.2Z" transform="translate(-53.572 -50.283)" fill="#472599"/>
              <path id="Path_255" data-name="Path 255" d="M158.872,73.877c.768.538,1.651,1.519,1.4,2.53a.385.385,0,0,1-.7.092c-.431-.718-.46-1.526-1.024-2.208C158.377,74.081,158.607,73.692,158.872,73.877Z" transform="translate(-56.197 -50.269)" fill="#472599"/>
              <path id="Path_256" data-name="Path 256" d="M155.647,79.245a3.618,3.618,0,0,1,3.165-.853.194.194,0,0,1,.045.351,11.8,11.8,0,0,1-1.462.58,5.96,5.96,0,0,1-1.519.479C155.576,79.835,155.474,79.434,155.647,79.245Z" transform="translate(-60.208 -44.121)" fill="#472599"/>
              <path id="Path_257" data-name="Path 257" d="M154.675,77.188a.22.22,0,0,1,.365.1,5.367,5.367,0,0,1,.1,2.654.244.244,0,0,1-.4.107A2.2,2.2,0,0,1,154.675,77.188Z" transform="translate(-62.099 -45.758)" fill="#472599"/>
              <path id="Path_258" data-name="Path 258" d="M156.815,83.6a.241.241,0,0,1,.4-.107,5.556,5.556,0,0,1,.64,1.118,5.364,5.364,0,0,1,.571,1.23c.064.294-.272.642-.562.431A3,3,0,0,1,156.815,83.6Z" transform="translate(-58.535 -37.132)" fill="#472599"/>
              <path id="Path_259" data-name="Path 259" d="M167.3,80.032a4.123,4.123,0,0,1,1.689-1.234.382.382,0,0,1,.386.659,4.053,4.053,0,0,1-1.829,1.007A.288.288,0,0,1,167.3,80.032Z" transform="translate(-44.185 -43.541)" fill="#472599"/>
            </g>
            <g id="Group_482" data-name="Group 482" transform="translate(85.793 51.998)">
              <path id="Path_260" data-name="Path 260" d="M144.779,93.587a.1.1,0,0,1,.05-.088c.5-.272,1.073.37,1.32.746a2.587,2.587,0,0,1,.327,2.1.472.472,0,0,1-.91-.251,2.051,2.051,0,0,0-.206-1.6C145.177,94.184,144.817,93.954,144.779,93.587Z" transform="translate(-144.779 -61.894)" fill="#472599"/>
              <path id="Path_261" data-name="Path 261" d="M146.025,96.808a3.59,3.59,0,0,1,.836-1.13,7.059,7.059,0,0,1,1-1.263c.1-.078.3-.078.327.088a3,3,0,0,1-1.675,2.8A.4.4,0,0,1,146.025,96.808Z" transform="translate(-143.096 -60.619)" fill="#472599"/>
              <path id="Path_262" data-name="Path 262" d="M148.134,92.429a4.6,4.6,0,0,1,2.829,2.168.442.442,0,0,1-.642.5,6.579,6.579,0,0,1-1.118-1.161,13.7,13.7,0,0,0-1.3-1.1C147.71,92.678,147.914,92.363,148.134,92.429Z" transform="translate(-140.609 -63.281)" fill="#472599"/>
              <path id="Path_263" data-name="Path 263" d="M151.695,93.117c.209-.036.405.211.223.384-.351.334-.739.611-1.1.938a7.109,7.109,0,0,1-1.016.872.34.34,0,0,1-.5-.381A3.183,3.183,0,0,1,151.695,93.117Z" transform="translate(-138.601 -62.332)" fill="#472599"/>
              <path id="Path_264" data-name="Path 264" d="M152.145,97.77a4.981,4.981,0,0,1,1.841-.509c.306,0,.344.367.14.524a10.217,10.217,0,0,1-1.6.881,1.7,1.7,0,0,1-1.251.315.259.259,0,0,1-.18-.318C151.266,98.152,151.664,97.977,152.145,97.77Z" transform="translate(-136.152 -56.652)" fill="#472599"/>
              <path id="Path_265" data-name="Path 265" d="M159.906,101.834c.848.166,2.182,1.749,1.616,2.611a.319.319,0,0,1-.429.114c-.405-.258-.422-.671-.621-1.085-.223-.467-.626-.8-.865-1.251A.268.268,0,0,1,159.906,101.834Z" transform="translate(-124.519 -50.398)" fill="#472599"/>
              <path id="Path_266" data-name="Path 266" d="M164.634,102.624a.22.22,0,0,1,.111.408,8.4,8.4,0,0,0-1.265.772,3.343,3.343,0,0,1-1.128.678.217.217,0,0,1-.263-.263C162.27,103.124,163.663,102.65,164.634,102.624Z" transform="translate(-121.078 -49.308)" fill="#472599"/>
              <path id="Path_267" data-name="Path 267" d="M174.193,103.22a.254.254,0,0,1,.069.5,3.411,3.411,0,0,0-1.213.706c-.263.246-.393.49-.742.609a.318.318,0,0,1-.4-.3C171.843,103.72,173.4,103.191,174.193,103.22Z" transform="translate(-107.63 -48.494)" fill="#472599"/>
              <path id="Path_268" data-name="Path 268" d="M171.217,102.81c.54.443,1.2,1.242,1,1.976a.38.38,0,0,1-.628.166c-.469-.365-.668-1.17-.948-1.7A.367.367,0,0,1,171.217,102.81Z" transform="translate(-109.429 -49.18)" fill="#472599"/>
              <path id="Path_269" data-name="Path 269" d="M172.927,110.033c.45-.846,2.206-1.142,3.042-.813a.193.193,0,0,1,.045.348,10.211,10.211,0,0,1-1.412.554c-.464.192-.822.517-1.336.5A.4.4,0,0,1,172.927,110.033Z" transform="translate(-106.302 -40.456)" fill="#472599"/>
              <path id="Path_270" data-name="Path 270" d="M173.1,104.789c.666.554,1.832,1.668,1.467,2.637a.251.251,0,0,1-.363.149,1.994,1.994,0,0,1-.687-.938,6.141,6.141,0,0,0-.924-1.341A.359.359,0,0,1,173.1,104.789Z" transform="translate(-106.831 -46.474)" fill="#472599"/>
              <path id="Path_271" data-name="Path 271" d="M167.682,106.677c.668-.853,2.135-.9,3.109-.727a.165.165,0,0,1,0,.315,8.431,8.431,0,0,0-1.426.377,10.107,10.107,0,0,1-1.367.581A.329.329,0,0,1,167.682,106.677Z" transform="translate(-113.53 -44.867)" fill="#472599"/>
              <path id="Path_272" data-name="Path 272" d="M155.177,92.156c.884.166,2.149,1.718,1.772,2.63-.073.175-.3.341-.488.2-.4-.3-.46-.716-.694-1.137-.256-.462-.671-.832-.889-1.3A.269.269,0,0,1,155.177,92.156Z" transform="translate(-130.988 -63.65)" fill="#472599"/>
              <path id="Path_273" data-name="Path 273" d="M158.522,97.054a4.965,4.965,0,0,1,2.817-.571c.254.04.242.384.066.5a12.346,12.346,0,0,1-2.452,1.088.551.551,0,0,1-.543-.145.446.446,0,0,1-.163-.393A.543.543,0,0,1,158.522,97.054Z" transform="translate(-126.336 -57.772)" fill="#472599"/>
              <path id="Path_274" data-name="Path 274" d="M159.362,95.085c.166-.045.377.121.3.3a7.668,7.668,0,0,1-.7,1.206,4.925,4.925,0,0,1-.841,1.175.313.313,0,0,1-.526-.218A2.529,2.529,0,0,1,159.362,95.085Z" transform="translate(-127.243 -59.642)" fill="#472599"/>
              <path id="Path_275" data-name="Path 275" d="M165.679,95.5a3.234,3.234,0,0,1,1.282,2.535c.057.656-.967.652-1.021,0a8.516,8.516,0,0,0-.692-2.2A.3.3,0,0,1,165.679,95.5Z" transform="translate(-116.77 -59.112)" fill="#472599"/>
              <path id="Path_276" data-name="Path 276" d="M166.46,98.711a4.529,4.529,0,0,1,2.294-2.163c.2-.092.507.118.346.346a10.124,10.124,0,0,1-1.007,1.154,4.436,4.436,0,0,1-1.163,1.024C166.7,99.185,166.354,98.993,166.46,98.711Z" transform="translate(-115.116 -57.659)" fill="#472599"/>
              <path id="Path_277" data-name="Path 277" d="M163.937,87.981a3.734,3.734,0,0,1,3.21-.893.233.233,0,0,1,.055.422,15.422,15.422,0,0,1-1.462.6,6.115,6.115,0,0,1-1.5.585C163.828,88.752,163.741,88.226,163.937,87.981Z" transform="translate(-118.682 -70.661)" fill="#472599"/>
              <path id="Path_278" data-name="Path 278" d="M162.468,86.7a3.264,3.264,0,0,1,1.737,2.362.38.38,0,0,1-.642.268,4.822,4.822,0,0,1-.706-1.076c-.244-.405-.554-.751-.765-1.178A.278.278,0,0,1,162.468,86.7Z" transform="translate(-121.118 -71.15)" fill="#472599"/>
              <path id="Path_279" data-name="Path 279" d="M158.508,89.344a2.9,2.9,0,0,1,2.675-1.249.157.157,0,0,1,.069.261,8.144,8.144,0,0,1-1.13.763,5.166,5.166,0,0,1-1.206.753A.364.364,0,0,1,158.508,89.344Z" transform="translate(-126.033 -69.23)" fill="#472599"/>
              <path id="Path_280" data-name="Path 280" d="M162.168,90.463a4.045,4.045,0,0,1,2.971,2.149.346.346,0,0,1-.5.386c-.429-.3-.758-.716-1.156-1.052a8.288,8.288,0,0,0-1.5-1.021C161.71,90.79,161.9,90.4,162.168,90.463Z" transform="translate(-121.407 -65.971)" fill="#472599"/>
              <path id="Path_281" data-name="Path 281" d="M152.042,87.8a4.042,4.042,0,0,1,2.971,2.147.348.348,0,0,1-.5.389c-.429-.3-.758-.716-1.156-1.052a8.09,8.09,0,0,0-1.5-1.021C151.584,88.128,151.769,87.737,152.042,87.8Z" transform="translate(-135.274 -69.616)" fill="#472599"/>
              <path id="Path_282" data-name="Path 282" d="M169.7,91.985a5.87,5.87,0,0,1,3.229-1.377.284.284,0,0,1,.142.524c-.889.585-1.855,1.085-2.767,1.632a.484.484,0,0,1-.5,0,.529.529,0,0,1-.23-.3A.486.486,0,0,1,169.7,91.985Z" transform="translate(-110.858 -65.763)" fill="#472599"/>
              <path id="Path_283" data-name="Path 283" d="M169.568,90.2a3.706,3.706,0,0,1,1.907-1.223.172.172,0,0,1,.192.249A3.684,3.684,0,0,1,170,90.766.386.386,0,0,1,169.568,90.2Z" transform="translate(-110.912 -67.997)" fill="#472599"/>
              <path id="Path_284" data-name="Path 284" d="M178.752,96.049a.29.29,0,0,1,.145.535c-.5.313-1.026.578-1.516.9a2.647,2.647,0,0,1-1.291.666.312.312,0,0,1-.3-.391C176,96.675,177.8,96.1,178.752,96.049Z" transform="translate(-102.318 -58.312)" fill="#472599"/>
              <path id="Path_285" data-name="Path 285" d="M174.084,95.679a4.406,4.406,0,0,1,1.438,2.775.312.312,0,0,1-.576.156,9.3,9.3,0,0,1-.614-1.31c-.208-.438-.457-.855-.68-1.287A.276.276,0,0,1,174.084,95.679Z" transform="translate(-105.286 -58.928)" fill="#472599"/>
              <path id="Path_286" data-name="Path 286" d="M178.518,102.108c.393-.469,1.038-.436,1.611-.483a18.524,18.524,0,0,1,2.206-.057.18.18,0,0,1,.047.353,19.357,19.357,0,0,1-2.125.661,2.1,2.1,0,0,1-1.673.038A.331.331,0,0,1,178.518,102.108Z" transform="translate(-98.703 -50.769)" fill="#472599"/>
              <path id="Path_287" data-name="Path 287" d="M178,100.54c.175-.223.493-.019.509.211a8.277,8.277,0,0,1-.1,1.3,3.711,3.711,0,0,1-.156,1.159.348.348,0,0,1-.626.083A2.812,2.812,0,0,1,178,100.54Z" transform="translate(-100.095 -52.294)" fill="#472599"/>
              <path id="Path_288" data-name="Path 288" d="M177.986,93.7c.55-1.007,2.44-1.452,3.469-1.116a.239.239,0,0,1,.057.431,10.04,10.04,0,0,1-1.571.678,5.341,5.341,0,0,1-1.606.616A.407.407,0,0,1,177.986,93.7Z" transform="translate(-99.374 -63.209)" fill="#472599"/>
              <path id="Path_289" data-name="Path 289" d="M178.82,91.456a.288.288,0,0,1,.277.479c-.509.471-.772,1.156-1.3,1.6a.3.3,0,0,1-.488-.13C177.057,92.409,177.967,91.7,178.82,91.456Z" transform="translate(-100.287 -64.616)" fill="#472599"/>
              <path id="Path_290" data-name="Path 290" d="M167.474,81.792a3.259,3.259,0,0,1,1.727,2.547c0,.22-.318.4-.479.2-.592-.746-.879-1.689-1.488-2.438C167.107,81.941,167.275,81.655,167.474,81.792Z" transform="translate(-114.09 -77.885)" fill="#472599"/>
              <path id="Path_291" data-name="Path 291" d="M169.867,81.547a.256.256,0,0,1,.372.152,3.705,3.705,0,0,1-.043,1.261,2.5,2.5,0,0,1-.216,1.154.342.342,0,0,1-.583,0A2.2,2.2,0,0,1,169.867,81.547Z" transform="translate(-111.393 -78.223)" fill="#472599"/>
              <path id="Path_292" data-name="Path 292" d="M175.162,81.628a5.866,5.866,0,0,1,3.372.088.215.215,0,0,1,0,.412,5.867,5.867,0,0,1-3.372.085A.307.307,0,0,1,175.162,81.628Z" transform="translate(-103.467 -78.358)" fill="#472599"/>
              <path id="Path_293" data-name="Path 293" d="M175.107,80.2c.272-.235.754.069.528.408a11.822,11.822,0,0,1-1.054,1.734.375.375,0,0,1-.633-.263A2.787,2.787,0,0,1,175.107,80.2Z" transform="translate(-104.836 -80.122)" fill="#472599"/>
              <path id="Path_294" data-name="Path 294" d="M176.223,84.031a2.412,2.412,0,0,1,1.82,1.877c.026.294-.365.412-.554.23a5.837,5.837,0,0,1-.607-.846,11.05,11.05,0,0,0-.834-.96A.182.182,0,0,1,176.223,84.031Z" transform="translate(-102.026 -74.778)" fill="#472599"/>
              <path id="Path_295" data-name="Path 295" d="M178.3,85.515a10.359,10.359,0,0,1,4.407-.315.255.255,0,0,1,.069.5,10.634,10.634,0,0,1-4.476.552C177.886,86.181,177.988,85.633,178.3,85.515Z" transform="translate(-99.251 -73.294)" fill="#472599"/>
              <path id="Path_296" data-name="Path 296" d="M181.866,87.174a2.848,2.848,0,0,1,.952,3.248.345.345,0,0,1-.59,0,4.652,4.652,0,0,1-.427-1.507,4.544,4.544,0,0,1-.334-1.514A.268.268,0,0,1,181.866,87.174Z" transform="translate(-94.548 -70.51)" fill="#472599"/>
              <path id="Path_297" data-name="Path 297" d="M184.668,88.356a.271.271,0,0,1,.3.4,9.051,9.051,0,0,1-1.175,1.455.25.25,0,0,1-.422-.175A1.934,1.934,0,0,1,184.668,88.356Z" transform="translate(-91.928 -68.868)" fill="#472599"/>
              <path id="Path_298" data-name="Path 298" d="M191.21,96.513c.73-1.163,2.812-1.386,4.056-1.327a.3.3,0,0,1,.078.585c-.678.187-1.358.391-2.014.642a5.229,5.229,0,0,1-1.824.614A.345.345,0,0,1,191.21,96.513Z" transform="translate(-81.264 -59.506)" fill="#472599"/>
              <path id="Path_299" data-name="Path 299" d="M191.619,94.565a.346.346,0,0,1,.469.469,10.386,10.386,0,0,1-.96,1.692.323.323,0,0,1-.535-.142A1.9,1.9,0,0,1,191.619,94.565Z" transform="translate(-82.114 -60.405)" fill="#472599"/>
              <path id="Path_300" data-name="Path 300" d="M190.037,90.439a3.327,3.327,0,0,1,2.993-.057.233.233,0,0,1-.057.419,5.45,5.45,0,0,1-1.415.213,4.671,4.671,0,0,1-1.438.071A.358.358,0,0,1,190.037,90.439Z" transform="translate(-83.033 -66.52)" fill="#472599"/>
              <path id="Path_301" data-name="Path 301" d="M188.333,90.114c.768.535,1.651,1.516,1.4,2.53a.385.385,0,0,1-.7.092c-.431-.718-.46-1.526-1.024-2.208C187.838,90.316,188.068,89.929,188.333,90.114Z" transform="translate(-85.659 -66.506)" fill="#472599"/>
              <path id="Path_302" data-name="Path 302" d="M185.108,95.482a3.611,3.611,0,0,1,3.165-.853.192.192,0,0,1,.045.348,11.457,11.457,0,0,1-1.462.583,6.153,6.153,0,0,1-1.519.479C185.037,96.069,184.935,95.671,185.108,95.482Z" transform="translate(-89.669 -60.358)" fill="#472599"/>
              <path id="Path_303" data-name="Path 303" d="M184.136,93.425a.219.219,0,0,1,.365.1,5.366,5.366,0,0,1,.1,2.654.244.244,0,0,1-.4.107A2.2,2.2,0,0,1,184.136,93.425Z" transform="translate(-91.56 -61.996)" fill="#472599"/>
              <path id="Path_304" data-name="Path 304" d="M186.276,99.837a.241.241,0,0,1,.4-.107,5.489,5.489,0,0,1,.64,1.118,5.3,5.3,0,0,1,.571,1.227c.064.294-.27.642-.562.431A3,3,0,0,1,186.276,99.837Z" transform="translate(-87.997 -53.369)" fill="#472599"/>
              <path id="Path_305" data-name="Path 305" d="M196.76,96.27a4.128,4.128,0,0,1,1.689-1.237.383.383,0,0,1,.386.661,4.054,4.054,0,0,1-1.829,1.007A.288.288,0,0,1,196.76,96.27Z" transform="translate(-73.647 -59.779)" fill="#472599"/>
            </g>
          </g>
          <path id="Path_306" data-name="Path 306" d="M260.956,62.814,262.987,74.1l-48.015,63.841-9.459.25Z" transform="translate(24.182 23.549)" fill="#382323"/>
          <path id="Path_307" data-name="Path 307" d="M196.781,27.423l1.584,8.775L150.35,100.039l-6.718-.415Z" transform="translate(-60.557 -24.914)" fill="#2d1c1c"/>
          <path id="Path_308" data-name="Path 308" d="M312.013,111.941l-3.966,5.437L167.647,36.2l-1.584-8.775Z" transform="translate(-29.839 -24.914)" fill="#442c2c"/>
          <path id="Path_309" data-name="Path 309" d="M150.35,58.311l141.089,81.58-1.858,2.523L143.632,57.9Z" transform="translate(-60.557 16.814)" fill="#442c2c"/>
        </g>
        <path id="Path_310" data-name="Path 310" d="M136.77,91.716l36.957,21.337,36.562-21.23L173.331,70.486Z" transform="translate(-69.954 34.056)" fill="#472599"/>
        <g id="Group_485" data-name="Group 485" transform="translate(70.369 64.009)">
          <path id="Path_311" data-name="Path 311" d="M138.269,88.019l33.488,19.334,33.129-19.236L171.4,68.783Z" transform="translate(-138.269 -32.285)" fill="#e0a263"/>
          <path id="Path_312" data-name="Path 312" d="M142.03,84.184l24.7,14.26,24.434-14.188L166.464,70Z" transform="translate(-133.119 -30.624)" fill="#cc8c52"/>
          <path id="Path_313" data-name="Path 313" d="M171.757,96.236V102L138.269,82.667V76.9Z" transform="translate(-138.269 -21.168)" fill="#cc8c52"/>
          <path id="Path_314" data-name="Path 314" d="M185.532,76.943v5.765L152.4,101.944V96.179Z" transform="translate(-118.915 -21.111)" fill="#c17e48"/>
          <path id="Path_315" data-name="Path 315" d="M159.387,72.621c6.788,0,12.29,2.929,12.29,6.539s-5.5,6.537-12.29,6.537S147.1,82.769,147.1,79.16,152.6,72.621,159.387,72.621Z" transform="translate(-126.18 -27.03)" fill="#fff"/>
          <path id="Path_316" data-name="Path 316" d="M158.581,71.985c5.971,0,10.809,2.573,10.809,5.748s-4.838,5.75-10.809,5.75-10.807-2.576-10.807-5.75S152.612,71.985,158.581,71.985Z" transform="translate(-125.253 -27.9)" fill="#e0a263"/>
          <path id="Path_317" data-name="Path 317" d="M159.387,70.222c6.788,0,12.29,2.929,12.29,6.537s-5.5,6.537-12.29,6.537S147.1,80.37,147.1,76.759,152.6,70.222,159.387,70.222Z" transform="translate(-126.18 -30.315)" fill="#fff"/>
          <path id="Path_318" data-name="Path 318" d="M150.8,72.324c-.346-4.251-3.533-8.722-3.533-8.722l6.594,1.4,5.466.317L164.794,65l6.741-1.4s-3.334,4.471-3.68,8.722c-.256,3.147,2.2,7.959,2.2,10.84l0,.014a2.873,2.873,0,0,1,.033.351c0,3.175-4.838,5.748-10.809,5.748s-10.807-2.573-10.807-5.748a3.2,3.2,0,0,1,.2-1.1C149,79.512,151.038,75.221,150.8,72.324Z" transform="translate(-125.946 -39.38)" fill="#e0a263"/>
          <path id="Path_319" data-name="Path 319" d="M146.024,68.493a15.113,15.113,0,1,0,15.114-15.114A15.114,15.114,0,0,0,146.024,68.493Z" transform="translate(-127.65 -53.379)" fill="#e0a263"/>
          <path id="Path_320" data-name="Path 320" d="M152.447,66.575c2.542,4.4,7.454,6.331,10.968,4.3s4.3-7.246,1.758-11.65-7.454-6.331-10.968-4.3S149.9,62.17,152.447,66.575Z" transform="translate(-120.897 -52.366)" fill="#f2b47c"/>
          <path id="Path_321" data-name="Path 321" d="M154.544,60.771c1.528,1.829,3.853,2.407,5.191,1.289s1.182-3.509-.348-5.338-3.853-2.4-5.189-1.287S153.013,58.941,154.544,60.771Z" transform="translate(-117.705 -51.345)" fill="#fff"/>
          <path id="Path_322" data-name="Path 322" d="M147.921,62.008a.311.311,0,0,1,.607-.083c.192.6.291,1.239.467,1.848s.445,1.2.616,1.817a.484.484,0,0,1-.881.372A7.5,7.5,0,0,1,147.921,62.008Z" transform="translate(-125.09 -41.977)" fill="#c17e48"/>
          <path id="Path_323" data-name="Path 323" d="M150.1,63.3c.13-.1.3.033.306.175.012.6-.258,1.163-.275,1.772a12.349,12.349,0,0,1,.109,1.687.375.375,0,0,1-.623.163A3.207,3.207,0,0,1,150.1,63.3Z" transform="translate(-123.31 -39.835)" fill="#c17e48"/>
          <path id="Path_324" data-name="Path 324" d="M149.163,70.741a.252.252,0,0,1,.481,0,6.978,6.978,0,0,0,1.13,3.125.414.414,0,0,1,0,.422.378.378,0,0,1-.251.192.428.428,0,0,1-.472-.192A4.264,4.264,0,0,1,149.163,70.741Z" transform="translate(-123.514 -29.848)" fill="#c17e48"/>
          <path id="Path_325" data-name="Path 325" d="M148.806,72a13.512,13.512,0,0,0,.938,1.2,6.69,6.69,0,0,1,1.035.95.32.32,0,0,1-.275.481,2.848,2.848,0,0,1-2.095-2.469A.233.233,0,0,1,148.806,72Z" transform="translate(-124.383 -27.97)" fill="#c17e48"/>
          <path id="Path_326" data-name="Path 326" d="M153.609,85.279c.78-.088,1.578-.043,2.365-.116.275-.024.336.36.133.488a2.692,2.692,0,0,1-2.647.18A.3.3,0,0,1,153.609,85.279Z" transform="translate(-117.668 -9.857)" fill="#b26f38"/>
          <path id="Path_327" data-name="Path 327" d="M155.961,85.68c.325-.353.723-.623,1.026-1,.272-.336.424-.746.711-1.069a.234.234,0,0,1,.389.1,2.365,2.365,0,0,1-1.941,2.41C155.9,86.154,155.823,85.829,155.961,85.68Z" transform="translate(-114.134 -12.068)" fill="#b26f38"/>
          <path id="Path_328" data-name="Path 328" d="M141.679,75.9a.286.286,0,0,1,.448.344c-.389.678-.13,1.424-.462,2.1a.241.241,0,0,1-.325.085C140.362,77.811,141.039,76.512,141.679,75.9Z" transform="translate(-134.737 -22.645)" fill="#cc8c52"/>
          <path id="Path_329" data-name="Path 329" d="M141.476,77.938a4.054,4.054,0,0,1,1.452-.272c.595-.076,1.187-.18,1.782-.254.23-.028.3.322.116.424-.846.457-2.331,1.031-3.282.644A.3.3,0,0,1,141.476,77.938Z" transform="translate(-134.077 -20.471)" fill="#cc8c52"/>
          <path id="Path_330" data-name="Path 330" d="M164.394,81.476c.467-.467,1.085-.753,1.554-1.232a6.049,6.049,0,0,0,1.142-1.76.182.182,0,0,1,.336.09c-.13,1.4-1.261,3.312-2.815,3.428A.312.312,0,0,1,164.394,81.476Z" transform="translate(-102.608 -19.123)" fill="#b26f38"/>
        </g>
      </g>
      <g id="Group_488" data-name="Group 488" transform="translate(7.635 308.588)">
        <path id="Path_331" data-name="Path 331" d="M261.628,211.423,132.08,286.218,37.131,231.4,166.679,156.6Z" transform="translate(-37.131 -156.604)" fill="#fff"/>
        <path id="Path_332" data-name="Path 332" d="M165.286,158.9a112.305,112.305,0,0,1-4.691,31.716c-1.535,5.416-2.078,9.762-3.628,15.176-.808,2.82-1.386,7.229-2.91,9.8-1.282,2.161-5.615,4.194-8.421,5.179-4.916,1.725-17.041,3.535-21.523,4.149q-13.125,1.8-26.618,2.971c-18.642,1.614-37.621,2.163-56.794,2.343-.3,0-.277.265.033.275,19.135.585,36.052,1.232,54.742.275,12.7-.652,21.561-1.239,30.759-2.059,13.088-1.166,22.606-3.521,27.743-5.668,6.983-2.914,7.153-9.653,7.689-11.577,1.77-6.355,3.1-13.449,4.22-19.905,2.09-12.02,2.73-20.817.18-32.643C166,158.638,165.283,158.609,165.286,158.9Z" transform="translate(-32.532 -153.74)" fill="#eddcda"/>
        <path id="Path_333" data-name="Path 333" d="M132.08,247.732V242.99L37.131,188.172v4.742Z" transform="translate(-37.131 -113.377)" fill="#eddcda"/>
        <path id="Path_334" data-name="Path 334" d="M206.753,184.482v-4.742L77.2,254.535v4.742Z" transform="translate(17.745 -124.922)" fill="#ceb7b6"/>
        <g id="Group_487" data-name="Group 487" transform="translate(29.052 15.573)">
          <path id="Path_335" data-name="Path 335" d="M86.413,168.157a3.455,3.455,0,0,0-1.765-2.2c-.161-.076-.434.057-.346.265a18.735,18.735,0,0,1,.919,2.265c.194.734.052,1.609.455,2.263a.382.382,0,0,0,.59.076C86.934,170.14,86.695,168.979,86.413,168.157Z" transform="translate(-1.612 -159.404)" fill="#ceb7b6"/>
          <path id="Path_336" data-name="Path 336" d="M94.138,195.96a.327.327,0,0,0-.163.6c.678.41,1.4.768,2.042,1.227a7.914,7.914,0,0,0,1.794,1.249.436.436,0,0,0,.533-.533C97.917,196.931,95.635,195.974,94.138,195.96Z" transform="translate(11.447 -118.284)" fill="#ceb7b6"/>
          <path id="Path_337" data-name="Path 337" d="M126.043,177.769a.288.288,0,0,0-.488.2c.052,1,.4,1.971.5,2.976a14.9,14.9,0,0,0,.173,2.843.528.528,0,0,0,.955.126C127.986,182.252,127.252,179.113,126.043,177.769Z" transform="translate(54.902 -143.308)" fill="#ddb580"/>
          <path id="Path_338" data-name="Path 338" d="M127.948,182.389c-.545-.408-1.253-.569-1.839-.929s-1.009-.891-1.587-1.244a.363.363,0,0,0-.528.405,3.95,3.95,0,0,0,3.831,2.708C128.315,183.251,128.256,182.621,127.948,182.389Z" transform="translate(52.754 -139.917)" fill="#ceb7b6"/>
          <path id="Path_339" data-name="Path 339" d="M103.45,163.966a10.013,10.013,0,0,0-6.018-.566.335.335,0,0,0,0,.64c.983.213,2,.256,2.985.434a26.942,26.942,0,0,0,2.753.521A.556.556,0,0,0,103.45,163.966Z" transform="translate(16.067 -163.177)" fill="#ceb7b6"/>
          <path id="Path_340" data-name="Path 340" d="M103.112,164.2c-.038-.27-.384-.232-.509-.066a18.946,18.946,0,0,0-1.194,2.258,8.041,8.041,0,0,0-1.163,2.132.617.617,0,0,0,.9.689,4.464,4.464,0,0,0,1.467-2.317A5.645,5.645,0,0,0,103.112,164.2Z" transform="translate(20.227 -162.047)" fill="#ceb7b6"/>
          <path id="Path_341" data-name="Path 341" d="M78.063,210.68a9.824,9.824,0,0,1-.82-4.819c.028-.27-.391-.308-.464-.062A7.747,7.747,0,0,0,76.885,211C77.172,211.732,78.366,211.4,78.063,210.68Z" transform="translate(-12.435 -105.036)" fill="#ceb7b6"/>
          <path id="Path_342" data-name="Path 342" d="M82.841,208.567c-.853-1.365-3.324-1.914-4.807-1.6a.238.238,0,0,0-.057.431c.708.355,1.455.618,2.173.955a11.35,11.35,0,0,0,2.035,1.066A.589.589,0,0,0,82.841,208.567Z" transform="translate(-10.406 -103.328)" fill="#ceb7b6"/>
          <path id="Path_343" data-name="Path 343" d="M55.026,191.834a26.408,26.408,0,0,0-2.625.993c-.91.242-1.841.211-2.753.412a.356.356,0,0,0-.085.644c1.614.851,5.047.32,5.964-1.4A.447.447,0,0,0,55.026,191.834Z" transform="translate(-49.392 -123.943)" fill="#ceb7b6"/>
          <path id="Path_344" data-name="Path 344" d="M55.067,191.019a.289.289,0,0,0-.564.076,20.277,20.277,0,0,1-.524,3.519,11.548,11.548,0,0,0-.881,2.808.482.482,0,0,0,.72.412c.952-.668,1.213-2,1.417-3.1A7.814,7.814,0,0,0,55.067,191.019Z" transform="translate(-44.318 -125.33)" fill="#ceb7b6"/>
          <path id="Path_345" data-name="Path 345" d="M95.191,198.917a16.5,16.5,0,0,0-1.794,1.159,18.7,18.7,0,0,1-1.91.867c-.268.121-.1.49.137.507,1.391.1,3.495-.616,4.189-1.907A.461.461,0,0,0,95.191,198.917Z" transform="translate(8.063 -114.294)" fill="#ceb7b6"/>
        </g>
        <path id="Path_346" data-name="Path 346" d="M130.649,186.406c-2.521-1.8-6.22-1.175-7.928-.23-1.422-1.227-3.523-2.092-6.93-1.232-2.239-1.713-5.919-1.867-7.812-1.478a10.571,10.571,0,0,0-8.89-.751c-1.9-.742-4.834-2.083-9.11-.381a9.884,9.884,0,0,0-6.826-.017q-.807,2.033-1.5,4.1c3.464.82,5.641.344,8.7-1.17,1.521.708,6.2,1.242,8.831.009,3.94,2.057,6.089.7,9.276.256,2.078.649,4.061,2.09,7.25,1.644,2.329,1.959,5.644,1.81,7.253,1.486,1.457,1.59,5.331,1.981,7.236.8,3.661,2.438,5.2,3.092,5.672,1.727C136.771,188.567,133.414,186.473,130.649,186.406Z" transform="translate(23.842 -122.5)" fill="#4c3232"/>
        <path id="Path_347" data-name="Path 347" d="M85.425,182.625s-1.68,4.544-.268,8.442c-2.711,2.891-3.087,5.575-.865,8.658-.782,3.139-.27,5.786,2.336,9.091.415,3.459.412,5.985,1.891,8.392s3.556.244,3.182-1.564-3.545-5.824-3.483-7.345c1.156-1.334.5-6.4-1.7-9.177a7.9,7.9,0,0,0-.109-7.8c.671-1.656,4.483-5.459,3.391-7.044S85.425,182.625,85.425,182.625Z" transform="translate(25.469 -120.972)" fill="#4c3232"/>
        <path id="Path_348" data-name="Path 348" d="M85.9,195.561s-5.492-.564-6.7-5.035c-1.805-1.443-5-4.414-3.727-8.181-1.862-3.53.874-6.028,3.374-7.885,1.623-2.706,4.182-4,7.828-2.706a8.775,8.775,0,0,1,8,2.118c2.509-.412,4.924,3.177,4,7.3,3.355,3.353,1.5,8.575,1.5,8.575l-2.993-.941a12.547,12.547,0,0,1-.123-7.3c-2.855-2.1-3.284-4.042-3.284-5.689a9.265,9.265,0,0,1-6.838-2.121c-1.486.68-4.267,2.355-7.21,2.237a16.031,16.031,0,0,1-2.765,6.177c1.587,1.592,3.883,5.388,3.445,7.594,2.888-.118,5.191,2.49,6.53,3.3C89.357,194.447,85.9,195.561,85.9,195.561Z" transform="translate(14.536 -136.552)" fill="#4c3232"/>
        <path id="Path_349" data-name="Path 349" d="M118.2,187.152a11.008,11.008,0,0,1-3.109-2.988,4.824,4.824,0,0,0-1.775-2.042c-2.121-1.5-5.061-1.516-7.328-2.9-2.147-1.306-3.962-3.267-6.67-3.147-2.753.121-4.495,2.81-7.073,3.066-1.637.163-3.317-.254-4.8.341-2.741,1.1-3.218,3.881-5.414,5.663-1.227.993-2.76,1.327-3.447,2.91-.581,1.336-.073,3.03-.05,4.381.031,1.948-.261,3.547.3,5.469.576,1.971,1.047,2.436,2.758,3.72,2.372,1.779,6.066,4.663,9.146,4.836,1.554.088,2.886-.607,4.507-.3,1.58.3,1.964,1.04,3.353,1.346,3.656.806,6.326-1.526,9.906-1.922,2.54-.282,4.8.242,6.738-1.815a8.934,8.934,0,0,0,1.244-2.052c1.059-1.986,2.045-4.469,3.6-6.1C122.92,192.649,121.356,188.917,118.2,187.152Z" transform="translate(19.257 -129.941)" fill="#472599"/>
        <path id="Path_350" data-name="Path 350" d="M105.821,180.353c-5.07-3.187-11.534-3.078-20.452.926a9.829,9.829,0,0,0-4.642,12.532c3.58,8.418,17.465,8.814,25.08,5.369C114.756,195.133,113.9,185.433,105.821,180.353Z" transform="translate(21.519 -127.161)" fill="#330b7e"/>
        <path id="Path_351" data-name="Path 351" d="M107.049,184.188c-3.921-6.279-12.617-6.478-19.232-4.007a10.218,10.218,0,0,0-6.67,7.371c-2.14,9.461,10.736,11.487,17.138,10.949C105.807,197.869,111.665,191.583,107.049,184.188Zm-9.482,13.027c-5.767.4-17.5-1.1-14.948-9.814,2.09-7.122,14.387-8.779,20.071-5.817,3.713,1.936,6.182,7.419,3.843,11.439C104.758,196.073,100.742,196.993,97.567,197.215Z" transform="translate(22.819 -126.336)" fill="#472599"/>
        <path id="Path_352" data-name="Path 352" d="M99.277,185.184a2.593,2.593,0,0,0-.564-4.144c-1.417-.78-3.81-.981-4.957.3a1.971,1.971,0,0,0-.936-1.249,3.431,3.431,0,0,0-2.964.031,2.778,2.778,0,0,0-1.9,1.642,2.438,2.438,0,0,0,.017,1.478,4.271,4.271,0,0,0-2.256.41,4.492,4.492,0,0,0-2.962,3.466c-.355,3.075,3.293,4.369,5.819,3.443a2.706,2.706,0,0,0,.04,1.635,3.024,3.024,0,0,0,2.732,1.926A4.647,4.647,0,0,0,94.83,193.1a2.361,2.361,0,0,0,.588-.976c1.666.929,5.239.211,6.056-1.128A4.069,4.069,0,0,0,99.277,185.184Zm-.569-2.213c.2.734-.246,1.026-.6,1.405a5.972,5.972,0,0,0-.535-.862,4.533,4.533,0,0,0-3.587-1.493C95.223,181.193,98.3,181.442,98.709,182.971Zm-9.255-1.623c.794-.453,3.694-1.291,3.421.6-.007.05.026.081.031.126a7.5,7.5,0,0,0-1.948.517,5.8,5.8,0,0,0-2.125,1.426C88.71,183.072,88.513,181.885,89.454,181.347Zm-5.634,6.364a2.97,2.97,0,0,1,1.415-2.706c.685-.483,2.244-1.424,3.011-.742a.253.253,0,0,0,.275.047l.017.012a3.785,3.785,0,0,0-.851,1.9,3.441,3.441,0,0,0,1.092,2.985C87.077,189.809,84.078,190.1,83.82,187.712Zm5.094-.671a2.555,2.555,0,0,1,.761-2.561,15.1,15.1,0,0,1,3.661-1.379,5.646,5.646,0,0,1,1.433.1.2.2,0,0,0,.149-.021c.05.009.095.009.145.024a3.4,3.4,0,0,1,2.343,3.774c-.171,1.471-1.261,2.218-2.649,2.59C92.776,190.1,89.468,189.4,88.914,187.041Zm5.144,4.909a2.8,2.8,0,0,1-2.14.706c-.834,0-1.727-.19-1.99-1.09a3.834,3.834,0,0,1-.014-1.554,7.445,7.445,0,0,0,4.248.855A.994.994,0,0,1,94.058,191.95Zm6.606-2.412c-.325,2.222-3.684,2.175-5.146,1a4.307,4.307,0,0,0,3.094-4.781,4.947,4.947,0,0,1,1.474,1.012A3.647,3.647,0,0,1,100.663,189.538Z" transform="translate(25.307 -124.893)" fill="#472599"/>
      </g>
      <g id="Group_491" data-name="Group 491" transform="translate(107.066 53.733)">
        <g id="Group_490" data-name="Group 490" transform="translate(0 49.416)">
          <g id="Group_489" data-name="Group 489" transform="translate(0 12.283)">
            <path id="Path_353" data-name="Path 353" d="M79.1,75.082v5.511c0,7.236,11.029,13.1,24.634,13.1s24.632-5.867,24.632-13.1V75.082Z" transform="translate(-79.096 -75.082)" fill="#ccbcbc"/>
          </g>
          <path id="Path_354" data-name="Path 354" d="M103.73,69.9C90.125,69.9,79.1,75.765,79.1,83S90.125,96.106,103.73,96.106,128.362,90.237,128.362,83,117.333,69.9,103.73,69.9Z" transform="translate(-79.096 -69.898)" fill="#eddcda"/>
          <path id="Path_355" data-name="Path 355" d="M99.791,70.874c-9.878,0-17.886,4.26-17.886,9.513S89.913,89.9,99.791,89.9s17.884-4.258,17.884-9.513S109.667,70.874,99.791,70.874Z" transform="translate(-75.249 -68.561)" fill="#ccbcbc" opacity="0.5"/>
          <path id="Path_356" data-name="Path 356" d="M95.82,71.561c-6.047,0-10.947,2.606-10.947,5.822S89.773,83.2,95.82,83.2s10.944-2.606,10.944-5.822S101.864,71.561,95.82,71.561Z" transform="translate(-71.185 -67.621)" fill="#eddcda"/>
        </g>
        <path id="Path_357" data-name="Path 357" d="M86.273,69.552V78.6c0,2.239,3.417,4.056,7.629,4.056s7.627-1.817,7.627-4.056V69.552Z" transform="translate(-69.268 -20.956)" fill="#c1b1b0"/>
        <path id="Path_358" data-name="Path 358" d="M94.174,69.461c-4.511,0-8.167,1.943-8.167,4.343s3.656,4.343,8.167,4.343,8.165-1.945,8.165-4.343S98.683,69.461,94.174,69.461Z" transform="translate(-69.632 -21.081)" fill="#442c2c"/>
        <path id="Path_359" data-name="Path 359" d="M94.861,68.108c-5.13,0-9.288,2.213-9.288,4.94s4.158,4.94,9.288,4.94,9.286-2.213,9.286-4.94S99.988,68.108,94.861,68.108Z" transform="translate(-70.227 -22.934)" fill="#382323"/>
        <path id="Path_360" data-name="Path 360" d="M94.174,67.627c-4.511,0-8.167,1.945-8.167,4.345s3.656,4.343,8.167,4.343,8.165-1.945,8.165-4.343S98.683,67.627,94.174,67.627Z" transform="translate(-69.632 -23.592)" fill="#442c2c"/>
        <path id="Path_361" data-name="Path 361" d="M98.107,49.042a14.9,14.9,0,0,0-14.88,14.38,1.668,1.668,0,0,0-.026.251c0,.083,0,.163,0,.246l0,.028,0,.038c.017,3.542.379,5.923,3.481,12.366A60.8,60.8,0,0,1,90.2,86.08a45.883,45.883,0,0,1,1.239,9.44,3.87,3.87,0,0,0,.081.635c.448,1.7,3.18,3,6.494,3,3.457,0,6.288-1.422,6.547-3.225.012-.088.021-.673.021-.96a39.584,39.584,0,0,1,1.17-8.892,60.8,60.8,0,0,1,3.519-9.729,37.29,37.29,0,0,0,3.052-7.918A14.909,14.909,0,0,0,98.107,49.042Z" transform="translate(-73.475 -49.042)" fill="#382323"/>
        <path id="Path_362" data-name="Path 362" d="M95.455,59.843c-1.922,3.329-5.63,4.784-8.286,3.251s-3.251-5.473-1.329-8.8,5.632-4.784,8.288-3.251S97.377,56.516,95.455,59.843Z" transform="translate(-71.404 -47.141)" fill="#442c2c"/>
        <path id="Path_363" data-name="Path 363" d="M90.226,55.458c-1.156,1.381-2.912,1.817-3.924.971s-.893-2.649.263-4.033,2.912-1.817,3.921-.974S91.382,54.075,90.226,55.458Z" transform="translate(-70.169 -46.37)" fill="#fff"/>
      </g>
      <g id="Group_494" data-name="Group 494" transform="translate(65.473 41.227)">
        <g id="Group_493" data-name="Group 493" transform="translate(0 99.938)">
          <g id="Group_492" data-name="Group 492" transform="translate(0.001 6.929)">
            <path id="Path_364" data-name="Path 364" d="M94.045,90.388c-3.009-2.777-8.632-.9-15.086-.9s-12.079-1.877-15.088.9H61.542v8.364c0,5.115,7.8,9.264,17.417,9.264s17.417-4.149,17.417-9.264V90.388Z" transform="translate(-61.542 -88.867)" fill="#ccbcbc"/>
          </g>
          <ellipse id="Ellipse_6" data-name="Ellipse 6" cx="17.417" cy="9.264" rx="17.417" ry="9.264" fill="#eddcda"/>
          <path id="Path_365" data-name="Path 365" d="M76.24,86.655c-7.02,0-12.712,3.028-12.712,6.762s5.691,6.76,12.712,6.76,12.709-3.028,12.709-6.76S83.258,86.655,76.24,86.655Z" transform="translate(-58.822 -84.968)" fill="#ddcfce"/>
        </g>
        <path id="Path_366" data-name="Path 366" d="M65.154,84.323v10.5c0,2.6,3.966,4.71,8.859,4.71s8.857-2.109,8.857-4.71v-10.5Z" transform="translate(-56.595 11.776)" fill="#c1b1b0"/>
        <path id="Path_367" data-name="Path 367" d="M85.9,82.334l-4.063.346L81.357,83.7a14.9,14.9,0,0,0-12.461,0l-.486-1.021-4.063-.346a3.2,3.2,0,0,0,.9,2.3,4.036,4.036,0,0,1,1.024,2.412c0,2.6,3.966,4.71,8.859,4.71s8.857-2.109,8.857-4.71c0-.031-.007-.059-.009-.09A4.337,4.337,0,0,1,85,84.635,3.2,3.2,0,0,0,85.9,82.334Z" transform="translate(-57.715 9.053)" fill="#442c2c"/>
        <path id="Path_368" data-name="Path 368" d="M75.126,79.913c-5.957,0-10.785,2.568-10.785,5.736s4.829,5.736,10.785,5.736,10.783-2.568,10.783-5.736S81.081,79.913,75.126,79.913Z" transform="translate(-57.708 5.738)" fill="#382323"/>
        <path id="Path_369" data-name="Path 369" d="M74.327,79.262c-5.236,0-9.482,2.258-9.482,5.044s4.246,5.044,9.482,5.044,9.485-2.258,9.485-5.044S79.566,79.262,74.327,79.262Z" transform="translate(-57.018 4.846)" fill="#442c2c"/>
        <path id="Path_370" data-name="Path 370" d="M75.126,77.692c-5.957,0-10.785,2.566-10.785,5.736s4.829,5.736,10.785,5.736S85.909,86.6,85.909,83.428,81.081,77.692,75.126,77.692Z" transform="translate(-57.708 2.696)" fill="#382323"/>
        <path id="Path_371" data-name="Path 371" d="M74.327,76.959c-5.236,0-9.482,2.258-9.482,5.044s4.246,5.044,9.482,5.044S83.812,84.79,83.812,82,79.566,76.959,74.327,76.959Z" transform="translate(-57.018 1.692)" fill="#442c2c"/>
        <path id="Path_372" data-name="Path 372" d="M89.828,82.366A13.267,13.267,0,1,1,76.561,69.1,13.265,13.265,0,0,1,89.828,82.366Z" transform="translate(-59.143 -9.07)" fill="#382323"/>
        <path id="Path_373" data-name="Path 373" d="M74.327,67.475c-5.236,0-9.482,2.258-9.482,5.044s4.246,5.044,9.482,5.044,9.485-2.258,9.485-5.044S79.566,67.475,74.327,67.475Z" transform="translate(-57.018 -11.295)" fill="#442c2c"/>
        <path id="Path_374" data-name="Path 374" d="M75.126,65.9c-5.957,0-10.785,2.566-10.785,5.734s4.829,5.736,10.785,5.736,10.783-2.568,10.783-5.736S81.081,65.9,75.126,65.9Z" transform="translate(-57.708 -13.445)" fill="#382323"/>
        <path id="Path_375" data-name="Path 375" d="M74.327,65.346c-5.236,0-9.482,2.258-9.482,5.044s4.246,5.044,9.482,5.044,9.485-2.258,9.485-5.044S79.566,65.346,74.327,65.346Z" transform="translate(-57.018 -14.21)" fill="#442c2c"/>
        <path id="Path_376" data-name="Path 376" d="M78.9,43.764a17.3,17.3,0,0,0-17.28,16.7,1.613,1.613,0,0,0-.031.289v.365c.021,4.113.441,6.878,4.042,14.358a70.124,70.124,0,0,1,4.087,11.3,53.191,53.191,0,0,1,1.438,10.961,5.011,5.011,0,0,0,.092.737c.521,1.969,3.694,3.485,7.542,3.485,4.016,0,7.3-1.649,7.606-3.744.014-.1.024-.78.024-1.116a45.841,45.841,0,0,1,1.36-10.323,70.344,70.344,0,0,1,4.085-11.3,43.193,43.193,0,0,0,3.545-9.2A17.318,17.318,0,0,0,78.9,43.764Z" transform="translate(-61.48 -43.764)" fill="#382323"/>
        <path id="Path_377" data-name="Path 377" d="M75.818,56.306c-2.232,3.867-6.539,5.556-9.624,3.774s-3.774-6.355-1.542-10.221,6.539-5.554,9.624-3.774S78.05,52.441,75.818,56.306Z" transform="translate(-59.076 -41.556)" fill="#442c2c"/>
        <path id="Path_378" data-name="Path 378" d="M69.745,51.214c-1.343,1.6-3.381,2.111-4.556,1.13s-1.038-3.078.3-4.684,3.381-2.111,4.556-1.13S71.086,49.608,69.745,51.214Z" transform="translate(-57.641 -40.661)" fill="#fff"/>
      </g>
      <g id="Group_507" data-name="Group 507" transform="translate(32.779 98.012)">
        <g id="Group_496" data-name="Group 496" transform="translate(85.1 99.642)">
          <path id="Path_379" data-name="Path 379" d="M454.212,242.414,312.822,324.046,83.66,191.416,225.05,109.784Z" transform="translate(-83.66 -109.784)" fill="#fff"/>
          <g id="Group_495" data-name="Group 495" transform="translate(24.666 13.47)">
            <path id="Path_380" data-name="Path 380" d="M219.98,119.833,101.628,188.164,94.07,183.8l118.353-68.331Z" transform="translate(-94.07 -115.469)" fill="#442c2c"/>
            <path id="Path_381" data-name="Path 381" d="M224.443,122.409,106.091,190.74l-4.072-2.351,118.353-68.331Z" transform="translate(-83.186 -109.185)" fill="#442c2c"/>
            <path id="Path_382" data-name="Path 382" d="M228.527,124.767,110.175,193.1l-4.072-2.351,118.353-68.331Z" transform="translate(-77.593 -105.956)" fill="#442c2c"/>
            <path id="Path_383" data-name="Path 383" d="M232.611,127.125,114.259,195.456l-4.072-2.351,118.353-68.331Z" transform="translate(-72.001 -102.728)" fill="#442c2c"/>
            <path id="Path_384" data-name="Path 384" d="M195.461,136.187,114.27,183.063l4.072,2.351,81.19-46.875Z" transform="translate(-66.408 -87.099)" fill="#442c2c"/>
            <path id="Path_385" data-name="Path 385" d="M245.493,134.563,127.14,202.893l-4.072-2.351,118.353-68.331Z" transform="translate(-54.361 -92.543)" fill="#442c2c"/>
            <path id="Path_386" data-name="Path 386" d="M249.577,136.921,131.224,205.251l-4.072-2.351L245.5,134.569Z" transform="translate(-48.768 -89.314)" fill="#442c2c"/>
            <path id="Path_387" data-name="Path 387" d="M224.949,142.931l-93.712,54.1,4.072,2.351,93.713-54.1Z" transform="translate(-43.175 -77.864)" fill="#442c2c"/>
            <path id="Path_388" data-name="Path 388" d="M262.4,144.322,144.045,212.653l-4.072-2.351,118.352-68.331Z" transform="translate(-31.211 -79.178)" fill="#442c2c"/>
            <path id="Path_389" data-name="Path 389" d="M266.482,146.68,148.129,215.011l-4.072-2.351L262.41,144.33Z" transform="translate(-25.619 -75.949)" fill="#442c2c"/>
            <path id="Path_390" data-name="Path 390" d="M225.095,172.2l-58.167,33.582L171,208.133l58.166-33.583Z" transform="translate(5.7 -37.785)" fill="#442c2c"/>
            <path id="Path_391" data-name="Path 391" d="M241.854,152.692l-93.713,54.1,4.072,2.351,93.713-54.1Z" transform="translate(-20.026 -64.498)" fill="#442c2c"/>
          </g>
        </g>
        <g id="Group_501" data-name="Group 501" transform="translate(315.854)">
          <path id="Path_392" data-name="Path 392" d="M192.131,154.944c-.488.431-7.539,20.741-9.217,25.708a17.306,17.306,0,0,0-.578,9.639c.223,1.4,2.123-.332,3.019-3.35S195.8,155.164,195.8,155.164Z" transform="translate(-179.876 51.699)" fill="#472599"/>
          <g id="Group_497" data-name="Group 497" transform="translate(0 131.249)">
            <path id="Path_393" data-name="Path 393" d="M196.065,167.489s4.6,5.518,10.091.291c1.822-1.732,4.011-9,4.011-9s8.068-1.239,13.794-4.471c3.066,3.232,3.985,9.812,15.024,12.262,13.131,2.917,1.225-31.124,1.225-31.124l-30.044-1.677L191.16,154.612Z" transform="translate(-167.205 -108.551)" fill="#f4a490"/>
            <path id="Path_394" data-name="Path 394" d="M186.415,181.751s8.674,3.609,14.306,0,6.454-17.614,6.454-17.614,6.009-1.095,8.978-4.7a60.077,60.077,0,0,1,5.006-5.485s6.542,3.372,13.491,2.452c1.225,2.452,6.949,14.306,12.671,18.393s15.728-30.759,15.728-30.759L224.839,129.1s-23.3,5.044-24.525,6.367-12.02,22.094-12.02,22.094Z" transform="translate(-173.703 -114.946)" fill="#ffb9a4"/>
            <path id="Path_395" data-name="Path 395" d="M354.4,191.118c-12.8-4.594-23.637-9.989-29.546-15.138-10.71-9.333-24.07-25.243-36.661-35.716-7.563-6.288-13.178-11.146-17.792-13.9-9.6-5.724-14.87-1.4-19.057-2.455-11.387-2.86-15.067,2.687-19.261,6.58-5.824.073-18.545,1.3-22.019,6.125-5.262,7.31-22.194,18.114-23.554,27.544-1.341,9.29-2.175,19.325-4.5,28.717-.756,3.057-1.941,4.39.512,5.108A24.043,24.043,0,0,0,186,197.93c-1.758,3.2-2.635,6.532-1.775,9.331,1.287,4.184,9.056,2.019,12.641,2.528,6.272.886,13.385-1.249,21.012,1.519,2.786,1.009,11.8,3.713,25.141,8.549,14.1,5.113,32.257,2.552,45.17-1.109,6.708,4.888,38.111,19.085,45.219,22.862C340.154,231.8,354.716,197.4,354.4,191.118ZM223.7,155.781a37.187,37.187,0,0,0,19.033,2.362c2.144,4.293,7.4,11.018,8.253,15.266,1.476,7.374-1.8,10.5-7.971,13.337-7.516,3.459-21.049,3.855-25.753,3.372-7.8-.8-12.875-1.3-16.86.919,1.405-3.5,4.841-10.627,3.883-19.519C216.991,167.841,220.031,162.38,223.7,155.781Z" transform="translate(-181.05 -123.124)" fill="#ffc9b6"/>
            <path id="Path_396" data-name="Path 396" d="M242.385,187.786c0,13.124,7.978,19.154,17.82,13.472s17.822-20.929,17.822-34.05-7.98-19.156-17.822-13.475S242.385,174.662,242.385,187.786Z" transform="translate(-97.059 -84.136)" fill="#ffb9a4"/>
            <path id="Path_397" data-name="Path 397" d="M234.751,153.131s-5.312,3.68-7.561,9.2a14.769,14.769,0,0,0,0,10.627s.817-7.561,2.452-10.627S234.751,153.131,234.751,153.131Z" transform="translate(-119.235 -82.033)" fill="#ffb9a4"/>
            <path id="Path_398" data-name="Path 398" d="M194.065,155.46c-6.231.614-10.207,3.189-10.92,7.461s6.329,2.594,10.364,2.353A36.482,36.482,0,0,0,194.065,155.46Z" transform="translate(-178.25 -78.844)" fill="#ffd8cc"/>
          </g>
          <g id="Group_500" data-name="Group 500" transform="translate(15.309)">
            <g id="Group_499" data-name="Group 499">
              <g id="Group_498" data-name="Group 498" transform="translate(4.82 1.73)">
                <path id="Path_399" data-name="Path 399" d="M380.924,81.733c-.855-.765-1.372-1.386-2.521-2.4,1.128.069,2.26.085,3.379.054.384-.009.787-3.755-.483-5.36a14.429,14.429,0,0,0-4.753-.763c.081-.161,1.618-2.156,2.294-3a6.084,6.084,0,0,0-1.931-1.651c-8.771.313-17.32,5.2-25.895,10.759,2.09-3.583,4.272-7.53,6.141-10.913a15.716,15.716,0,0,0-2.305,1.066c-2.49,1.452-3.964,3.969-6.125,5.708A23.779,23.779,0,0,1,350.2,69.6c-5.76,4.646-14.756,14.133-18.1,21.019-.751-3.383.562-8.812,2.026-12.6a62.848,62.848,0,0,0-9.331,7.717c-3.279,3.5-5.528,7.532-8.267,11.42-.01.012-.021.009-.031.019a53.888,53.888,0,0,1,2.936-13.321,113.058,113.058,0,0,0-10.847,6.935c-3.485,2.594-5.3,5.9-7.9,9.049.062-1.694.13-3.386.159-5.082a12.549,12.549,0,0,0-2.952.817c-6.291,9.518-11.157,22.644-12.671,27.409-3.09-4.834-1.841-11.681-1.31-15.223-4.987,7.241-8.658,16.053-11.108,27.437-2.794-1.554-4.409-17.721-3.064-21.829-7.75,10.98-13.366,22.225-15.643,35.706-2.552-9.9-.888-21.784,4.27-31.863A49.767,49.767,0,0,0,252.4,122.1c-11.143,10.795-16.178,26.982-21.047,41.9a60.027,60.027,0,0,1,.344-6.72c.479-4.236,3.585-19.028,6.618-24.653-1.869.535-4.45,2.206-7.26,4.542-7.07,15.9-6.047,33.839-1.457,50.254-4.881-4.585-9.1-15.768-9.667-25-4.793,10.878-6.772,22.142-4.945,34.275-5.262-7.08-7.246-17.543-5.99-27.949a41.552,41.552,0,0,0-1.55,4.976c-3.4,14.619-4.407,30.3-2.215,43.919-4.587-8.79-6.791-20.14-1.817-36.434.13-.426-.516-.564-.72-.216-10.577,18.318-7.051,32.491-2.519,47.141-2.206-2.471-9.245-23.585-8.982-31.823a.2.2,0,0,0-.386-.059c-3.8,14.818,1.4,28.326,9.729,41.128.415.637,11.546,1.694,16.455.936,6.466-1,12.508-2.651,18.114-6.141a50.066,50.066,0,0,0,9.274-7.53c-9.492.872-21.857-5.746-24.26-9.5,9.032-.462,18.469-1.279,26.985-3.978-6.658.644-16.422-4.476-19.706-5.923,11.693-.443,23.137-1.315,33.991-5.369q.636-1.152,1.263-2.294c-2.459-.282-8.864-1.63-12.759-2.049,9.169-2.4,17.848-6.08,24.765-13.06,6.25-6.31,11.153-13.887,17.171-20.429.611-.663,1.291-1.379,2-2.111-7.956-1.7-21.163-4.407-26.227-5.634a101.452,101.452,0,0,1,28.421-3.618c-6.471-2.715-15.337-3.774-20.919-5.568,7.933-2.507,20.6-3.8,28.016-1.533a81.9,81.9,0,0,0-14.11-8.542c7.291,1.419,16.77,3.457,23.826,6.807,1.967-1.753,3.417-3,3.957-3.4-.133-1.159-2.557-3.36-3-4.217.588.161,4.168,1.777,4.722,1.746,2.509-2.194,10.954-8.6,13.233-10.394.22-.173.457-.372.685-.554-8.5-2.211-17.749-6.376-24.4-8.594,9.231-.232,19.967-.313,28.309-.922a167.984,167.984,0,0,1-17.735-8.636c10.838-.659,21.526,1.708,32.295.943,2.49-2.542,4.348-4.535,5-5.35q-2.324-2.534-4.651-5.068a27.015,27.015,0,0,0,22.891-6.08A23.788,23.788,0,0,0,380.924,81.733Z" transform="translate(-189.545 -68.46)" fill="#330b7e"/>
                <path id="Path_400" data-name="Path 400" d="M267.862,93.38c-8.343.609-19.078.689-28.309.922,6.648,2.218,15.9,6.383,24.4,8.594,5.682-4.587,13.4-12.036,18.472-17.209-10.769.765-21.457-1.6-32.295-.943A167.984,167.984,0,0,0,267.862,93.38Z" transform="translate(-121.066 -46.322)" fill="#472599"/>
                <path id="Path_401" data-name="Path 401" d="M258.006,105.1c-7.411-2.268-20.083-.974-28.016,1.533,5.582,1.794,14.448,2.853,20.919,5.568a101.452,101.452,0,0,0-28.421,3.618c5.063,1.227,18.27,3.931,26.227,5.634,5.675-5.888,14.022-13.643,19.007-18.088-7.056-3.35-16.536-5.388-23.826-6.807A81.9,81.9,0,0,1,258.006,105.1Z" transform="translate(-144.433 -29.979)" fill="#472599"/>
                <path id="Path_402" data-name="Path 402" d="M209.729,129.3c3.284,1.448,13.048,6.568,19.706,5.923-8.516,2.7-17.953,3.516-26.985,3.978,2.4,3.751,14.768,10.368,24.26,9.5,6.994-7.122,12.186-16.026,17.01-24.767C232.866,127.98,221.422,128.852,209.729,129.3Z" transform="translate(-171.874 7.494)" fill="#472599"/>
              </g>
              <path id="Path_403" data-name="Path 403" d="M243.16,96.5c2.739-3.888,4.987-7.921,8.267-11.42a62.848,62.848,0,0,1,9.331-7.717c-1.464,3.791-2.777,9.219-2.026,12.6,3.341-6.885,12.337-16.372,18.1-21.019-6.04-.251-19.91,8.044-28.416,12.9-.78.445-1.564.9-2.348,1.353a53.888,53.888,0,0,0-2.936,13.321C243.138,96.508,243.15,96.511,243.16,96.5Z" transform="translate(-111.349 -66.073)" fill="#240d6b"/>
              <path id="Path_404" data-name="Path 404" d="M283.588,69.614c-3.72-2.215-10.375-2.173-14.92-1.412a25.57,25.57,0,0,0-4.834,1.258c-1.869,3.383-4.052,7.331-6.141,10.913C266.268,74.81,274.816,69.926,283.588,69.614Z" transform="translate(-91.406 -67.73)" fill="#240d6b"/>
              <path id="Path_405" data-name="Path 405" d="M217.474,133.4c2.277-13.482,7.892-24.727,15.643-35.706-1.346,4.108.27,20.275,3.064,21.829,2.45-11.385,6.12-20.2,11.108-27.437-.531,3.542-1.779,10.39,1.31,15.223,1.514-4.765,6.381-17.891,12.671-27.409-6.618,2.493-19.121,10.07-27.129,14.306a112.142,112.142,0,0,0-12.4,7.331C216.585,111.619,214.922,123.5,217.474,133.4Z" transform="translate(-148.096 -51.061)" fill="#240d6b"/>
              <path id="Path_406" data-name="Path 406" d="M203.957,156.99c-1.827-12.134.152-23.4,4.945-34.275.569,9.231,4.786,20.415,9.667,25-4.589-16.415-5.613-34.356,1.457-50.254-5.713,4.751-12.389,12.295-16.067,18.962a97.306,97.306,0,0,0-5.992,12.619C196.711,139.447,198.694,149.91,203.957,156.99Z" transform="translate(-173.693 -27.02)" fill="#240d6b"/>
              <path id="Path_407" data-name="Path 407" d="M378.985,70.8C336.8,83.3,299.457,110.685,269.176,141.98a402.363,402.363,0,0,0-42.836,52.944c-9.748,14.268-20.064,29.5-28.091,45.291-.9,1.775-10.12,20.26-10.738,23.886,1.3-.18,1.784-.9,4.047-1.393.775-3.765,8.489-19.618,9.475-21.514,2.663-5.123,5.279-10.274,8.148-15.256q8.775-15.226,18.637-29.788a400.534,400.534,0,0,1,41.125-51.335,300.373,300.373,0,0,1,110.19-73.621A.212.212,0,0,0,378.985,70.8Z" transform="translate(-187.511 -63.544)" fill="#472599"/>
            </g>
            <path id="Path_408" data-name="Path 408" d="M207.09,104.744c.047-.1-.1-.163-.159-.071-5.419,9.165-11.058,20.239-7.3,31.06a.142.142,0,0,0,.272-.064C198.255,124.232,202.375,114.9,207.09,104.744Z" transform="translate(-172.58 -17.203)" fill="#fff"/>
            <path id="Path_409" data-name="Path 409" d="M206.078,130.315c-1.339-9.267-3.1-18.341-.393-27.572.043-.14-.194-.211-.246-.073-3.369,9.091-2.2,18.538.223,27.745C205.722,130.651,206.113,130.556,206.078,130.315Z" transform="translate(-165.824 -19.987)" fill="#fff"/>
            <path id="Path_410" data-name="Path 410" d="M223.894,93.12c.171-.332-.353-.671-.564-.353a77.86,77.86,0,0,0-13.155,39.941.26.26,0,0,0,.514.078A135.31,135.31,0,0,1,223.894,93.12Z" transform="translate(-156.476 -33.618)" fill="#fff"/>
            <path id="Path_411" data-name="Path 411" d="M227.449,88.124c.064-.083-.045-.218-.13-.142-5.594,4.933-9.849,12.764-9.726,20.379,0,.227.313.192.365.009C220.13,100.724,222.521,94.491,227.449,88.124Z" transform="translate(-146.322 -40.028)" fill="#fff"/>
            <path id="Path_412" data-name="Path 412" d="M232.238,85.5a.119.119,0,0,0-.182-.152,29.525,29.525,0,0,0-7.859,17.988.422.422,0,0,0,.834.128C226.345,96.769,228.284,91.123,232.238,85.5Z" transform="translate(-137.276 -43.669)" fill="#fff"/>
            <path id="Path_413" data-name="Path 413" d="M247.252,77.114a.065.065,0,0,0-.1-.083,27.357,27.357,0,0,0-8.324,16.209c-.014.128.182.2.227.069A55.912,55.912,0,0,1,247.252,77.114Z" transform="translate(-117.239 -55.022)" fill="#fff"/>
            <path id="Path_414" data-name="Path 414" d="M249.3,74.723c-2.263,2.275-4.672,5.3-5.18,8.565a.228.228,0,0,0,.431.128c1.663-2.924,2.824-5.833,5.115-8.39C249.871,74.794,249.509,74.507,249.3,74.723Z" transform="translate(-110.002 -58.258)" fill="#fff"/>
            <path id="Path_415" data-name="Path 415" d="M258.857,70.583c-3.409,2.2-6.729,5.433-8.136,9.328-.111.31.313.64.528.329,2.422-3.469,4.511-6.618,7.8-9.392A.162.162,0,0,0,258.857,70.583Z" transform="translate(-100.978 -63.863)" fill="#fff"/>
            <path id="Path_416" data-name="Path 416" d="M269.1,68.521a16.711,16.711,0,0,0-8.494,4.661c-.154.159.09.417.263.282a30.786,30.786,0,0,1,8.3-4.67C269.311,68.739,269.262,68.485,269.1,68.521Z" transform="translate(-87.483 -66.651)" fill="#fff"/>
            <path id="Path_417" data-name="Path 417" d="M217.551,135.775a43.059,43.059,0,0,1-8.6,1.649,44.445,44.445,0,0,1-8.651-.723c-.72-.095-1.114,1-.379,1.277A21.644,21.644,0,0,0,217.7,136.06C217.87,135.956,217.716,135.73,217.551,135.775Z" transform="translate(-171.056 25.442)" fill="#472599"/>
            <path id="Path_418" data-name="Path 418" d="M235.214,115.369a44.047,44.047,0,0,1-10.233,2.327c-3.521.265-6.966-.263-10.468-.472-.415-.024-.652.557-.22.742,6.521,2.8,15.207,1.436,21.244-1.99C235.894,115.774,235.569,115.256,235.214,115.369Z" transform="translate(-151.151 -2.516)" fill="#472599"/>
            <path id="Path_419" data-name="Path 419" d="M233.484,112.425c-5.438,3.2-11.589,3.663-17.735,3.066-.467-.045-.718.628-.244.825,6.286,2.592,13.155.659,18.254-3.5A.238.238,0,0,0,233.484,112.425Z" transform="translate(-149.525 -6.578)" fill="#472599"/>
            <path id="Path_420" data-name="Path 420" d="M256.2,94.789c-6.731-.974-13.51-1.587-20.123-3.248a.229.229,0,0,0-.18.4c5.419,3.566,13.951,4.073,20.279,3.729A.447.447,0,0,0,256.2,94.789Z" transform="translate(-121.366 -35.133)" fill="#472599"/>
            <path id="Path_421" data-name="Path 421" d="M273.643,76.884c-4.793.614-9.39.133-14.169.1-.434,0-.514.675-.13.825,4.5,1.753,9.98,1.268,14.543.1C274.474,77.756,274.23,76.809,273.643,76.884Z" transform="translate(-89.483 -55.2)" fill="#472599"/>
            <path id="Path_422" data-name="Path 422" d="M203.718,133.544c-1.08-1.91-2.677-3.383-3.628-5.416a15.1,15.1,0,0,1-1.405-6.807c.021-.758-1.137-.981-1.2-.187-.332,4.355,1.111,11.2,5.594,13.188A.524.524,0,0,0,203.718,133.544Z" transform="translate(-173.909 4.716)" fill="#472599"/>
            <path id="Path_423" data-name="Path 423" d="M207.306,128.34c-.813-2.218-2.068-4.182-2.711-6.492a60.887,60.887,0,0,1-1.431-7.632.454.454,0,0,0-.9.1c.382,4.495.595,11.335,4.312,14.55A.469.469,0,0,0,207.306,128.34Z" transform="translate(-167.315 -4.609)" fill="#472599"/>
            <path id="Path_424" data-name="Path 424" d="M214.749,116.807a48.475,48.475,0,0,1,.239-9.027,53.7,53.7,0,0,1,2.666-8.646c.069-.194-.182-.386-.327-.2-3.758,4.753-5.063,12.3-3.455,18.085C214.02,117.544,214.761,117.291,214.749,116.807Z" transform="translate(-152.338 -25.105)" fill="#472599"/>
          </g>
        </g>
        <g id="Group_502" data-name="Group 502" transform="translate(285.152 236.814)">
          <path id="Path_425" data-name="Path 425" d="M168.334,173.032c1.284,3.144,4.935,5.412,7.871,8.186,2.049,1.941,3.227,3.962,3.338,6.1a7.322,7.322,0,0,1-.512,3.388c-.547,1.23-6.329,5.4-9.658,2.876-.5-.374-1.557-.182-1.215.244,1.024,1.279,2.663,1.4,4.267,1.381,3.938-.04,7.229-2.189,8.127-4.215a7.9,7.9,0,0,0-1.182-8.243c-2.775-3.5-8.151-6.156-10.641-9.764C168.625,172.836,168.27,172.878,168.334,173.032Z" transform="translate(-168.092 -160.536)" fill="#472599"/>
          <path id="Path_426" data-name="Path 426" d="M203.947,167.906a19.863,19.863,0,0,1,.3,5.677c-.161,1.18.012,2.493-2.616,3.227-1.881.526-4.137-.791-5.824-2.467a13.06,13.06,0,0,0-1.877-2.092c-.4-.339-1.4-.192-1.109.22.412.583,2.422,2.3,3.161,4.338.438,1.208.4,3.727-2.8,3.533a9.485,9.485,0,0,1-3.706-1.725c-.926-3.1-3.154-6.8-7.324-7.544-1.242-.22-1.443.488-.929,1.171a25.222,25.222,0,0,0,6.656,6.186,22.119,22.119,0,0,1,.476,3.682c.187,2.509-.746,3.317-1.884,3.132a9.966,9.966,0,0,1-3.969-2.3,11.046,11.046,0,0,0-3.3-2.974c-.552-.3-1.4.019-.964.408a28.458,28.458,0,0,1,2.649,2.267,3.858,3.858,0,0,1,.8,3.27c-.1,1.152.23,3-3.31,2.327-2.578-.493-5.5-4.04-6.7-5.381-.5-.557-1.521-.54-.87.419,1.109,1.637,6.182,7.234,10.468,6.2,2.007-.486,1.789-2.888,1.827-3.964a5.175,5.175,0,0,0-.123-1.306c2.36,2.2,5.705,3.125,6.656.538a9.958,9.958,0,0,0,.1-5.139c1.675,1,4.127,2.256,6.009,1.817,2.616-.609,2.431-2.789,1.393-4.921a7.169,7.169,0,0,0,5.139,1.277c4.618-.931,3.357-7.663,2.526-9.906C204.691,167.588,203.906,167.626,203.947,167.906Zm-17.8,8.2c-1.147-.988-4.1-3.763-3.675-4.007.957-.552,2.748,1.021,3.777,2.336a10.161,10.161,0,0,1,1.246,2.763C186.916,176.746,186.437,176.353,186.148,176.1Z" transform="translate(-164.667 -167.678)" fill="#472599"/>
        </g>
        <g id="Group_503" data-name="Group 503" transform="translate(0 49.169)">
          <path id="Path_427" data-name="Path 427" d="M83.66,162.624l53.173-31.814s7.975,22.282-9.677,31.814S90.922,165.969,83.66,162.624Z" transform="translate(1.441 -30.519)" fill="#472599"/>
          <path id="Path_428" data-name="Path 428" d="M132.844,220.586s21.493,6.848,38.718-1.981c1.933-.993,5.817-5.58,6.746-7.127,7.71-12.84-4.627-31.671-35.171-22.706s-61.218-2.976-71.548-9.167a99.857,99.857,0,0,1-23.845-19.692l124.8-71.432S222.5,107.8,271.8,107.624c16.09-.059,31.577,18.486,29.349,31.07-2.379,13.456-9.586,20.462-21.068,27.454-21.966,13.378-72.117,44.63-108.825,58.971C152.029,232.63,132.844,220.586,132.844,220.586Z" transform="translate(-47.743 -88.482)" fill="#a18fdb"/>
        </g>
        <g id="Group_506" data-name="Group 506" transform="translate(164.572 248.517)">
          <g id="Group_505" data-name="Group 505">
            <g id="Group_504" data-name="Group 504" transform="translate(0 39.744)">
              <path id="Path_429" data-name="Path 429" d="M117.2,189.391v31.33c0,10.548,16.076,19.1,35.91,19.1s35.91-8.553,35.91-19.1v-31.33Z" transform="translate(-117.201 -189.391)" fill="#382323"/>
            </g>
            <path id="Path_430" data-name="Path 430" d="M153.111,181.329c-19.834,0-35.91,8.551-35.91,19.1s16.076,19.1,35.91,19.1,35.91-8.553,35.91-19.1S172.943,181.329,153.111,181.329Z" transform="translate(-117.201 -160.687)" fill="#442c2c"/>
            <path id="Path_431" data-name="Path 431" d="M145.5,181.343c-12.562,0-22.748,5.419-22.748,12.1s10.186,12.1,22.748,12.1,22.748-5.419,22.748-12.1S158.067,181.343,145.5,181.343Z" transform="translate(-109.594 -160.668)" fill="#382323"/>
            <path id="Path_432" data-name="Path 432" d="M125.845,177.574v17.794c0,4.533,6.907,8.208,15.429,8.208S156.7,199.9,156.7,195.368V177.574Z" transform="translate(-105.364 -165.829)" fill="#442c2c"/>
            <path id="Path_433" data-name="Path 433" d="M142.63,172.617c-9.816,0-17.775,4.466-17.775,9.977s7.959,9.975,17.775,9.975S160.4,188.1,160.4,182.594,152.446,172.617,142.63,172.617Z" transform="translate(-106.72 -172.617)" fill="#382323"/>
            <path id="Path_434" data-name="Path 434" d="M139.85,173.231c-7.16,0-12.965,3.087-12.965,6.895s5.8,6.9,12.965,6.9,12.963-3.087,12.963-6.9S147.01,173.231,139.85,173.231Z" transform="translate(-103.94 -171.776)" fill="#2d1c1c"/>
          </g>
          <path id="Path_435" data-name="Path 435" d="M127.015,184.579c-2.917.673-5.376,3.222-6.869,5.608-1.379,2.2-2.988,6.824-1.284,9.25a.6.6,0,0,0,1.1-.3,16.291,16.291,0,0,1,2.585-8.38,36.445,36.445,0,0,1,4.957-5.5C127.82,184.942,127.517,184.463,127.015,184.579Z" transform="translate(-115.933 -156.261)" fill="#fff"/>
          <path id="Path_436" data-name="Path 436" d="M119.4,194.267a.109.109,0,0,0-.208,0c-1.182,3.772-1.355,20.291-.5,24.2a.426.426,0,0,0,.815,0C120.267,214.537,120.367,198.1,119.4,194.267Z" transform="translate(-115.889 -143.076)" fill="#fff"/>
          <path id="Path_437" data-name="Path 437" d="M146.521,201.365c-.152-.2-.538-.163-.524.142.033.744.213,1.457.19,2.206a14.206,14.206,0,0,1-.471,2.376.547.547,0,0,0,1,.419A5.342,5.342,0,0,0,146.521,201.365Z" transform="translate(-78.17 -133.423)" fill="#2d1c1c"/>
          <path id="Path_438" data-name="Path 438" d="M143.2,204.751c-.254,0-.45.339-.194.509.621.41,1.3.685,1.9,1.144a14.249,14.249,0,0,1,1.644,1.779.546.546,0,0,0,.924-.557A5.345,5.345,0,0,0,143.2,204.751Z" transform="translate(-82.029 -128.614)" fill="#2d1c1c"/>
          <path id="Path_439" data-name="Path 439" d="M145.04,186.616c-.168-.033-.367.159-.277.332.313.6.806,1.076,1.152,1.659a22.412,22.412,0,0,1,.888,2.2.625.625,0,0,0,1.2-.268C148.03,189.068,146.533,186.9,145.04,186.616Z" transform="translate(-79.489 -153.452)" fill="#382323"/>
          <path id="Path_440" data-name="Path 440" d="M142.826,187.7c-.351.111-.31.7.092.668a9.014,9.014,0,0,1,4.649.912.738.738,0,0,0,.867-.114.559.559,0,0,0,.192-.332.737.737,0,0,0-.341-.808A7.418,7.418,0,0,0,142.826,187.7Z" transform="translate(-82.438 -152.471)" fill="#382323"/>
          <path id="Path_441" data-name="Path 441" d="M141.255,194.056c-.618-.242-1.23.682-1.531,1.09a6.97,6.97,0,0,0-1.234,2.481c-.182.784,1.009,1.388,1.372.578.419-.936.763-1.891,1.213-2.815C141.2,195.143,141.75,194.253,141.255,194.056Z" transform="translate(-88.074 -143.313)" fill="#382323"/>
          <path id="Path_442" data-name="Path 442" d="M144.185,194.55c-.514-.024-.832.272-1.279.49a8.248,8.248,0,0,1-1.614.564c-.1.026-1.424.213-1.213.592.36.645,1.595.353,2.18.227.82-.178,1.993-.519,2.327-1.348C144.692,194.81,144.427,194.562,144.185,194.55Z" transform="translate(-85.903 -142.585)" fill="#382323"/>
          <path id="Path_443" data-name="Path 443" d="M144.416,209.254a8.444,8.444,0,0,0-2.227-3.67.264.264,0,0,0-.438.256,16.758,16.758,0,0,0,1.625,3.855A.572.572,0,0,0,144.416,209.254Z" transform="translate(-83.594 -127.568)" fill="#2d1c1c"/>
          <path id="Path_444" data-name="Path 444" d="M147.035,194.876c-.358,1.225-.983,2.3-1.438,3.474a.588.588,0,0,0,.154.583.5.5,0,0,0,.263.154.627.627,0,0,0,.678-.275,6.171,6.171,0,0,0,.974-3.85A.323.323,0,0,0,147.035,194.876Z" transform="translate(-78.356 -142.447)" fill="#2d1c1c"/>
          <path id="Path_445" data-name="Path 445" d="M138.857,184.372c-.1-.4-.621-.263-.668.09a19.075,19.075,0,0,1-.4,2.478,8.116,8.116,0,0,0-.6,2.026.409.409,0,0,0,.609.351C139.06,188.383,139.214,185.769,138.857,184.372Z" transform="translate(-89.827 -156.856)" fill="#382323"/>
          <path id="Path_446" data-name="Path 446" d="M139.213,185.574a10.889,10.889,0,0,1-2.106,1.659,12.758,12.758,0,0,0-2.057,1.154c-.353.325.019.806.4.822a4.326,4.326,0,0,0,2.49-1.211,7.348,7.348,0,0,0,1.706-2.13C139.8,185.6,139.414,185.368,139.213,185.574Z" transform="translate(-92.953 -154.981)" fill="#382323"/>
          <path id="Path_447" data-name="Path 447" d="M139.078,180.76a14.443,14.443,0,0,1-2.867,1.234.207.207,0,0,0,0,.355c1.085.626,2.5.017,3.41-.661C140.173,181.281,139.63,180.345,139.078,180.76Z" transform="translate(-91.307 -161.608)" fill="#382323"/>
        </g>
      </g>
      <g id="Group_516" data-name="Group 516" transform="translate(32.575 202.508)">
        <g id="Group_508" data-name="Group 508" transform="translate(0 103.065)">
          <path id="Path_448" data-name="Path 448" d="M47.657,155.332v4.424c0,7.632,11.634,13.821,25.983,13.821s25.98-6.189,25.98-13.821v-4.424Z" transform="translate(-47.657 -155.332)" fill="#442c2c"/>
        </g>
        <path id="Path_449" data-name="Path 449" d="M73.64,149.5c-14.349,0-25.983,6.186-25.983,13.821S59.291,177.14,73.64,177.14s25.98-6.189,25.98-13.821S87.988,149.5,73.64,149.5Z" transform="translate(-47.657 -60.254)" fill="#d3c5c5"/>
        <path id="Path_450" data-name="Path 450" d="M72.636,149.99c-13.392,0-24.246,5.72-24.246,12.776s10.854,12.778,24.246,12.778,24.243-5.722,24.243-12.778S86.025,149.99,72.636,149.99Z" transform="translate(-46.653 -59.582)" fill="#ccbcbc"/>
        <g id="Group_509" data-name="Group 509" transform="translate(3.727 91.96)">
          <path id="Path_451" data-name="Path 451" d="M71.253,172.42c-12.349,0-22.023-4.781-22.023-10.887s9.674-10.887,22.023-10.887,22.023,4.781,22.023,10.887S83.6,172.42,71.253,172.42Zm0-20.58c-11.487,0-20.832,4.348-20.832,9.693s9.345,9.693,20.832,9.693,20.829-4.348,20.829-9.693S82.738,151.839,71.253,151.839Z" transform="translate(-49.23 -150.645)" fill="#d3c5c5"/>
        </g>
        <path id="Path_452" data-name="Path 452" d="M53.654,133.808h-6V184.97c0,3.355,2.256,6.426,6,8.819Z" transform="translate(-47.657 -81.741)" fill="#ddcfce"/>
        <path id="Path_453" data-name="Path 453" d="M66.752,130.935H65.409v48.337l1.343-.8Z" transform="translate(-23.348 -85.675)" fill="#c1aeae"/>
        <g id="Group_510" data-name="Group 510" transform="translate(37.6 41.628)">
          <path id="Path_454" data-name="Path 454" d="M63.526,129.4v50.314c1.372.453,2.751.929,4.462,1.656V129.4Z" transform="translate(-63.526 -129.402)" fill="#ddcfce"/>
          <path id="Path_455" data-name="Path 455" d="M67.114,131.575v49.091a14.329,14.329,0,0,1,4.462,6.67V131.575Z" transform="translate(-58.613 -126.426)" fill="#ddcfce"/>
        </g>
        <path id="Path_456" data-name="Path 456" d="M70.34,133.812H69v48.337l1.343-.8Z" transform="translate(-18.434 -81.736)" fill="#c1aeae"/>
        <g id="Group_511" data-name="Group 511" transform="translate(8.978 63.089)">
          <path id="Path_457" data-name="Path 457" d="M51.446,138.507v50.314a32.539,32.539,0,0,0,4.464,1.656v-51.97Z" transform="translate(-51.446 -138.396)" fill="#ddcfce"/>
          <path id="Path_458" data-name="Path 458" d="M55.035,138.46V191.5c1.433.265,2.924.467,4.462.595V138.46Z" transform="translate(-46.531 -138.46)" fill="#ddcfce"/>
        </g>
        <g id="Group_513" data-name="Group 513" transform="translate(25.983 57.149)">
          <path id="Path_459" data-name="Path 459" d="M68.954,135.953V181.34l.18,1.515L70.4,181.34V135.953Z" transform="translate(-44.476 -135.953)" fill="#442c2c"/>
          <g id="Group_512" data-name="Group 512" transform="translate(0 6.052)">
            <path id="Path_460" data-name="Path 460" d="M58.623,138.507v53.8h0c14.349,0,25.98-6.186,25.98-13.818v-3.817s-.533,2.836-5.383,6.855c-3.424,2.839-8.25,4.236-11.489,3.59-2.384-.476-3.426-2.007-3.426-3.59,0-4.862-.206-8.43-.256-12.868.121-8.942,8.61-11.231,13.678-14.136,5.108-2.929,6.876,0,6.876,0V138.507Z" transform="translate(-58.623 -138.507)" fill="#eddcda"/>
          </g>
          <path id="Path_461" data-name="Path 461" d="M75.936,161.465c-3.424,2.839-8.25,4.236-11.489,3.59-2.384-.476-3.426-2.007-3.426-3.59v2.08c0,1.58,1.043,3.113,3.426,3.59,3.239.647,8.065-.753,11.489-3.59,4.85-4.021,5.383-6.855,5.383-6.855v-3.53S80.786,157.446,75.936,161.465Z" transform="translate(-55.339 -112.389)" fill="#442c2c"/>
        </g>
        <path id="Path_462" data-name="Path 462" d="M54.673,140.041H53.33v48.337l1.343-.8Z" transform="translate(-39.889 -73.206)" fill="#c1aeae"/>
        <path id="Path_463" data-name="Path 463" d="M51.531,138.723H50.188V187.06l1.343-.8Z" transform="translate(-44.192 -75.011)" fill="#c1aeae"/>
        <path id="Path_464" data-name="Path 464" d="M58.261,140.7H56.918v48.337l1.343-.8Z" transform="translate(-34.975 -72.308)" fill="#c1aeae"/>
        <g id="Group_514" data-name="Group 514" transform="translate(0 13.821)">
          <path id="Path_465" data-name="Path 465" d="M99.62,117.666H47.657v51.162c0,7.632,11.634,13.821,25.983,13.821a48.043,48.043,0,0,0,5.682-.336V171.719c11.228-1.334,19.716-6.53,20.268-12.833l.031-.017Z" transform="translate(-47.657 -117.666)" fill="#cc8c52"/>
          <path id="Path_466" data-name="Path 466" d="M81.289,135.073c-.552,6.3-9.039,11.5-20.268,12.833V158.5c11.612-1.379,20.3-6.89,20.3-13.482v-9.961Z" transform="translate(-29.357 -93.853)" fill="#eddcda"/>
          <path id="Path_467" data-name="Path 467" d="M81.289,133.815c-.552,6.3-9.039,11.515-20.268,12.849v5.3c11.612-1.379,20.3-6.89,20.3-13.484v-4.663Z" transform="translate(-29.357 -95.552)" fill="#442c2c"/>
        </g>
        <path id="Path_468" data-name="Path 468" d="M73.64,111.833c-14.349,0-25.983,6.186-25.983,13.821s11.634,13.821,25.983,13.821,25.98-6.189,25.98-13.821S87.988,111.833,73.64,111.833Z" transform="translate(-47.657 -111.833)" fill="#e0a263"/>
        <path id="Path_469" data-name="Path 469" d="M71.789,111.9c-12.5,0-22.637,5.39-22.637,12.039s10.136,12.041,22.637,12.041,22.635-5.39,22.635-12.041S84.29,111.9,71.789,111.9Z" transform="translate(-45.61 -111.747)" fill="#efb078"/>
        <path id="Path_470" data-name="Path 470" d="M66.977,111.92c-7.9,0-14.311,3.41-14.311,7.613s6.407,7.613,14.311,7.613,14.309-3.41,14.309-7.613S74.879,111.92,66.977,111.92Z" transform="translate(-40.798 -111.714)" fill="#f9c193" opacity="0.5"/>
        <g id="Group_515" data-name="Group 515" transform="translate(0 20.784)">
          <path id="Path_471" data-name="Path 471" d="M73.64,133.172c-13.555,0-24.679-5.523-25.871-12.567h-.111v4.424c0,7.632,11.634,13.821,25.983,13.821s25.98-6.189,25.98-13.821v-4.424h-.111C98.317,127.649,87.192,133.172,73.64,133.172Z" transform="translate(-47.657 -120.605)" fill="#442c2c"/>
        </g>
        <path id="Path_472" data-name="Path 472" d="M64.315,139.889c0,1.933,2.462,2.08,5.5.327s5.5-4.739,5.5-6.672-2.462-2.08-5.5-.327S64.315,137.958,64.315,139.889Z" transform="translate(-24.846 -84.228)" fill="#fff"/>
      </g>
    </g>
  </g>
</svg>
