<svg xmlns="http://www.w3.org/2000/svg" width="80.899" height="77.93" viewBox="0 0 80.899 77.93">
  <g id="Group_164" data-name="Group 164" transform="translate(0)">
    <path id="Path_121" data-name="Path 121" d="M409.346,301.049l27.91-27.889c3.194-3.191,6.43-6.341,9.57-9.586,2.862-2.956,5.567-2.877,8.338.088,1.356,1.45,3.411,2.59,4.044,4.284.745,2,1.3,5.415.205,6.541-12.546,12.94-25.42,25.561-38.346,38.406Z" transform="translate(-379.127 -261.397)" fill="#fff"/>
    <path id="Path_122" data-name="Path 122" d="M381.651,327.239c5.525-1.547,7.723-5.147,8.274-10.72a12.728,12.728,0,0,1,14.71-11.079,13.31,13.31,0,0,1,10.834,15.538c-1.808,10.806-12.517,17.233-23.292,13.543-3.776-1.293-7.123-3.84-10.665-5.815Z" transform="translate(-381.511 -257.639)" fill="#fff"/>
  </g>
</svg>
