<svg xmlns="http://www.w3.org/2000/svg" width="169.619" height="169.619" viewBox="0 0 169.619 169.619">
  <g id="Group_532" data-name="Group 532" transform="translate(-336.135 -212.828)">
    <circle id="Ellipse_12" data-name="Ellipse 12" cx="84.809" cy="84.809" r="84.809" transform="translate(336.135 212.828)" fill="#ffac45"/>
    <g id="Group_531" data-name="Group 531">
      <path id="Path_651" data-name="Path 651" d="M388.208,343.842c-6.291-3.7-10.261-8.792-9.735-16.494.119-1.741-.1-3.215-1.748-4.182-7.8-4.573-8.2-12.083-8.119-19.932q.2-19.155-.009-38.311c-.065-5.613,1-10.76,4.352-15.332,4.182-3.464,9.041-4.575,14.394-4.555,22.552.084,45.1-.038,67.656.064,13.4.061,18.525,5.368,18.722,18.958a87.762,87.762,0,0,1-.04,9.774c-1.149,11.707-.373,21.338,14.25,24.928,8.023,1.969,10.653,10.673,7.435,18.9q-9.035,23.1-19.068,45.8c-3.93,8.89-11.436,11.479-21.022,7.614-19.619-7.912-39.119-16.12-58.683-24.167C393.843,345.774,391.005,344.857,388.208,343.842Zm14.364-8.375c-.466-4.944,6.359-5.523,6.517-10.4-6.055,0-11.768-.135-17.471.059-2.726.093-6.485-1.5-7.558,2.7-.974,3.806.9,6.916,3.835,9.219a17.107,17.107,0,0,0,8.071,3.609c20.5,8.6,40.975,17.265,61.526,25.744,6.647,2.743,11.835.526,14.634-6.051q9.234-21.709,18.033-43.6c2.5-6.218.69-11.223-5.533-14.177-3.13-1.486-6.4-2.671-10.056-4.174-.16,2.366-.4,3.964-.352,5.553.261,8.261-.942,15.788-9.355,20-2.976,1.489-1.8,4.234-1.668,6.5.466,8.133,1.052,16.26,1.689,24.382.392,4.985-1.225,6.445-6.11,4.353C440.084,351.171,421.313,343.354,402.572,335.467Zm12.319-16.032c14.123.054,28.246.156,42.368.141,6.338-.007,10.522-2.953,10.639-9.611.288-16.286.346-32.577.362-48.866.006-6.478-3.466-10.459-9.94-10.464-24.706-.02-49.412.278-74.108.465-7.122-.578-9.7,3.8-9.784,9.817-.226,15.99-.146,31.985-.048,47.978.045,7.282,3.848,10.843,11.237,10.722C395.373,319.456,405.133,319.486,414.891,319.435Zm44.67,34.339c-.562-8.48-1.265-16.017-1.484-23.568-.125-4.3-2.5-4.623-5.815-4.585-8.931.1-17.877.328-26.792-.063-6.678-.293-11.024,2.569-14.611,8.068Z" fill="#fdfcfc"/>
      <path id="Path_652" data-name="Path 652" d="M459.561,353.774l-48.7-20.148c3.587-5.5,7.933-8.361,14.611-8.068,8.915.391,17.861.163,26.792.063,3.318-.038,5.69.283,5.815,4.585C458.3,337.757,459,345.294,459.561,353.774Z" fill="#47423f"/>
      <path id="Path_653" data-name="Path 653" d="M416.457,313.25c-5.7-.146-11.394-.251-17.088-.454-3.363-.12-6.522-1.029-4.5-5.287,4.645-9.806,9.624-19.455,14.561-29.12.864-1.692,2.691-1.584,4.354-1.431l4.5,7.947c4.118-8.1,7.859-15.45,11.6-22.806.847-1.665,1.387-3.865,3.523-4.1,2.833-.306,3.284,2.42,4.2,4.239,7.33,14.5,14.488,29.091,21.911,43.544,3.009,5.857.49,7-4.859,7.01C441.922,312.814,429.19,313.083,416.457,313.25Zm35.725-5.864.228.266.232-.291c-3.408-14.616-12.485-26.454-18.679-40.719-6.229,9.5-8.942,19.281-15.032,27.179-4.71-.337-3.763-6.257-7.643-7.712q-4.24,8.361-8.435,16.63c-1.388,2.731-2.421,5.046,2.429,4.963,13.483-.23,26.97-.255,40.456-.361Z" fill="#fdfcfc"/>
      <path id="Path_654" data-name="Path 654" d="M418.931,293.821c6.09-7.9,8.8-17.676,15.032-27.179,6.194,14.265,15.271,26.1,18.684,40.716.006,0-.262-.31-.262-.31l-.2.338-6.429-.044c-4.557-.144-9.131-.393-13.7-.412C418.718,306.874,418.718,306.91,418.931,293.821Z" fill="#47423f"/>
    </g>
    <circle id="Ellipse_13" data-name="Ellipse 13" cx="10.702" cy="10.702" r="10.702" transform="translate(380.293 255.299)" fill="#47423f"/>
  </g>
</svg>
