<svg xmlns="http://www.w3.org/2000/svg" width="1430" height="471" viewBox="0 0 1430 471">
  <g id="Group_543" data-name="Group 543" transform="translate(-245 -4109)">
    <g id="Rectangle_33" data-name="Rectangle 33" transform="translate(290 4274)" fill="#fff" stroke="#330b7e" stroke-width="1">
      <rect width="415" height="141" rx="24" stroke="none"/>
      <rect x="0.5" y="0.5" width="414" height="140" rx="23.5" fill="none"/>
    </g>
    <ellipse id="Ellipse_5" data-name="Ellipse 5" cx="71" cy="70.5" rx="71" ry="70.5" transform="translate(245 4274)" fill="#ffac45"/>
    <g id="Rectangle_34" data-name="Rectangle 34" transform="translate(1192 4415) rotate(180)" fill="#fff" stroke="#330b7e" stroke-width="1">
      <rect width="416" height="141" rx="24" stroke="none"/>
      <rect x="0.5" y="0.5" width="415" height="140" rx="23.5" fill="none"/>
    </g>
    <path id="Path_659" data-name="Path 659" d="M70.5,0A70.5,70.5,0,1,1,0,70.5,70.5,70.5,0,0,1,70.5,0Z" transform="translate(869 4415) rotate(180)" fill="#ffac45"/>
    <g id="Group_164" data-name="Group 164" transform="translate(275.192 4297.942)">
      <path id="Path_121" data-name="Path 121" d="M409.346,301.049l27.91-27.889c3.194-3.191,6.43-6.341,9.57-9.586,2.862-2.956,5.567-2.877,8.338.088,1.356,1.45,3.411,2.59,4.044,4.284.745,2,1.3,5.415.205,6.541-12.546,12.94-25.42,25.561-38.346,38.406Z" transform="translate(-379.127 -261.397)" fill="#fff"/>
      <path id="Path_122" data-name="Path 122" d="M381.651,327.239c5.525-1.547,7.723-5.147,8.274-10.72a12.728,12.728,0,0,1,14.71-11.079,13.31,13.31,0,0,1,10.834,15.538c-1.808,10.806-12.517,17.233-23.292,13.543-3.776-1.293-7.123-3.84-10.665-5.815Z" transform="translate(-381.511 -257.639)" fill="#fff"/>
    </g>
    <text id="We_Find_the_Best_Artists" data-name="We Find the Best Artists" transform="translate(409.988 4314.682)" fill="#330b7e" font-size="18" font-family="SegoeUI, Segoe UI"><tspan x="0" y="0">We Find the Best Artists</tspan></text>
    <text id="Our_research_team_uses_our_proprietary_data_to_determine_which_artist_markets_have_the_most_momentum_and_we_believe_produce_the_best_risk-adjusted_returns." data-name="Our research team uses our proprietary data to
determine which artist markets have the most
momentum and we believe produce the best
risk-adjusted returns." transform="translate(409.988 4340.401)" fill="#330b7e" font-size="9" font-family="SegoeUI, Segoe UI"><tspan x="0" y="0">Our research team uses our proprietary data to</tspan><tspan x="0" y="12">determine which artist markets have the most</tspan><tspan x="0" y="24">momentum and we believe produce the best</tspan><tspan x="0" y="36">risk-adjusted returns.</tspan></text>
    <g id="Group_165" data-name="Group 165" transform="translate(758.233 4303.915)">
      <path id="Path_123" data-name="Path 123" d="M425.192,342.787c-9.809,0-19.618.059-29.427-.019-7.383-.059-10.711-3.356-10.734-10.742q-.1-29.993,0-59.985c.024-7.385,3.354-10.711,10.74-10.735q29.993-.093,59.985,0c7.383.024,10.711,3.353,10.734,10.741q.1,29.991,0,59.984c-.024,7.385-3.354,10.681-10.74,10.737C445.564,342.846,435.378,342.787,425.192,342.787Zm32.131-13.774L437.1,302.086l-15.819,20.189-11.482-13.3-15.573,20.038Z" transform="translate(-384.983 -261.259)" fill="#fff"/>
    </g>
    <text id="We_Purchase_the_Best_Art_" data-name="We Purchase the Best Art
" transform="translate(906.253 4322.381)" fill="#330b7e" font-size="18" font-family="SegoeUI, Segoe UI"><tspan x="0" y="0">We Purchase the Best Art</tspan><tspan font-family="STXihei"><tspan x="0" y="24"></tspan></tspan></text>
    <text id="Our_acquisitions_team_locates_the_best_example_available_at_the_best_price_and_purchase_the_work." data-name="Our acquisitions team locates the best
example available, at the best price, and
purchase the work." transform="translate(906.253 4348.1)" fill="#330b7e" font-size="9" font-family="SegoeUI, Segoe UI"><tspan x="0" y="0">Our acquisitions team locates the best</tspan><tspan x="0" y="12">example available, at the best price, and</tspan><tspan x="0" y="24">purchase the work.</tspan></text>
    <g id="Rectangle_35" data-name="Rectangle 35" transform="translate(1259 4274)" fill="#fff" stroke="#330b7e" stroke-width="1">
      <rect width="416" height="141" rx="24" stroke="none"/>
      <rect x="0.5" y="0.5" width="415" height="140" rx="23.5" fill="none"/>
    </g>
    <path id="Path_660" data-name="Path 660" d="M70.5,0A70.5,70.5,0,1,1,0,70.5,70.5,70.5,0,0,1,70.5,0Z" transform="translate(1215 4274)" fill="#ffac45"/>
    <text id="We_Find_the_Best_Artists-2" data-name="We Find the Best Artists" transform="translate(1379.32 4322.381)" fill="#330b7e" font-size="18" font-family="SegoeUI, Segoe UI"><tspan x="0" y="0">We Find the Best Artists</tspan></text>
    <text id="We_file_an_offering_circular_with_the_Securities_and_Exchange_Commission_allowing_anyone_to_invest." data-name="We file an offering circular with the Securities
and Exchange Commission allowing
anyone to invest." transform="translate(1379.32 4348.1)" fill="#330b7e" font-size="9" font-family="SegoeUI, Segoe UI"><tspan x="0" y="0">We file an offering circular with the Securities</tspan><tspan x="0" y="12">and Exchange Commission allowing</tspan><tspan x="0" y="24">anyone to invest.</tspan></text>
    <g id="Group_166" data-name="Group 166" transform="translate(1249.231 4301.455)">
      <path id="Path_124" data-name="Path 124" d="M457.17,286.425c.475,8.608-.263,18.821-4.976,28.405-5.744,11.685-14.281,20.491-26.658,24.936a14.433,14.433,0,0,1-8.994-.028c-17.685-6.248-30.807-24.833-31.451-44.226-.253-7.656-.257-15.334.052-22.985a6.435,6.435,0,0,1,3.126-4.6c9.926-4.7,19.977-9.152,30.093-13.435a7.847,7.847,0,0,1,5.527.033c9.967,4.209,19.776,8.788,29.734,13.02,2.71,1.153,3.818,2.6,3.612,5.574C456.969,276.931,457.17,280.777,457.17,286.425Zm-36.03,10.746v35.36c14.4-3.629,27.562-20.785,27.369-35.219H421V262.027c-9.141,4.043-17.659,7.76-26.11,11.627a3.536,3.536,0,0,0-1.784,2.532c-.146,6.927-.081,13.858-.081,20.986Z" transform="translate(-384.906 -254.003)" fill="#fff"/>
    </g>
    <g id="Rectangle_36" data-name="Rectangle 36" transform="translate(1616 4580) rotate(180)" fill="#fff" stroke="#330b7e" stroke-width="1">
      <rect width="330" height="142" rx="24" stroke="none"/>
      <rect x="0.5" y="0.5" width="329" height="141" rx="23.5" fill="none"/>
    </g>
    <path id="Path_662" data-name="Path 662" d="M70.5,0C109.436,0,141,31.788,141,71s-31.564,71-70.5,71S0,110.212,0,71,31.564,0,70.5,0Z" transform="translate(1661 4580) rotate(180)" fill="#ffac45"/>
    <text id="Sell_Your_Shares" data-name="Sell Your Shares" transform="translate(1499.5 4493.167)" fill="#330b7e" font-size="18" font-family="SegoeUI, Segoe UI"><tspan x="-125.13" y="0">Sell Your Shares</tspan></text>
    <text id="You_have_the_option_to_sell_your_shares_in_our_secondary_market." data-name="You have the option to sell your shares in
our secondary market." transform="translate(1499.5 4518.886)" fill="#330b7e" font-size="9" font-family="SegoeUI, Segoe UI"><tspan x="-163.45" y="0">You have the option to sell your shares in</tspan><tspan x="-88.479" y="12">our secondary market.</tspan></text>
    <g id="Group_169" data-name="Group 169" transform="translate(1576.867 4453.563) rotate(45)">
      <g id="Group_113" data-name="Group 113" transform="translate(0 0)">
        <path id="Path_76" data-name="Path 76" d="M83.331,5.216a1.894,1.894,0,0,1,.093.579V40.076a.931.931,0,0,0-.168.246c-.941,3.482-3.156,5.232-6.728,5.234q-27.155.013-54.31-.018a4.351,4.351,0,0,1-2.657-1.1q-9.056-9-18.071-18.049a5.1,5.1,0,0,1,0-7.208q8.943-8.949,17.877-17.906A4.332,4.332,0,0,1,22.446,0q22.7.029,45.4.015c3.037,0,6.075-.035,9.111.01a6.262,6.262,0,0,1,5.959,4.022A10.729,10.729,0,0,1,83.331,5.216Z" fill="#fff"/>
      </g>
      <path id="Path_125" data-name="Path 125" d="M5,0A5,5,0,1,1,0,5,5,5,0,0,1,5,0Z" transform="translate(14.357 17.782)" fill="#002f6c"/>
    </g>
    <path id="Polygon_9" data-name="Polygon 9" d="M13,0,26,23H0Z" transform="translate(728 4332.401) rotate(90)" fill="#330b7e"/>
    <path id="Polygon_10" data-name="Polygon 10" d="M13,0,26,23H0Z" transform="translate(1215 4332.401) rotate(90)" fill="#330b7e"/>
    <path id="Polygon_11" data-name="Polygon 11" d="M13,0,26,23H0Z" transform="translate(1486.219 4438) rotate(180)" fill="#330b7e"/>
    <g id="Rectangle_39" data-name="Rectangle 39" transform="translate(1616 4251) rotate(180)" fill="#fff" stroke="#330b7e" stroke-width="1">
      <rect width="330" height="142" rx="24" stroke="none"/>
      <rect x="0.5" y="0.5" width="329" height="141" rx="23.5" fill="none"/>
    </g>
    <path id="Path_661" data-name="Path 661" d="M70.5,0C109.436,0,141,31.788,141,71s-31.564,71-70.5,71S0,110.212,0,71,31.564,0,70.5,0Z" transform="translate(1661 4251) rotate(180)" fill="#ffac45"/>
    <text id="_3_-10_Year_Hold_Period_" data-name="3 -10 Year Hold Period " transform="translate(1499.5 4164.167)" fill="#330b7e" font-size="18" font-family="SegoeUI, Segoe UI"><tspan x="-183.032" y="0">3 -10 Year Hold Period </tspan></text>
    <text id="Wait_until_we_sell_the_painting_to_receive_your_pro_rata_proceeds_after_our_fees." data-name="Wait until we sell the painting to receive your 
pro rata proceeds, after our fees." transform="translate(1499.5 4189.886)" fill="#330b7e" font-size="9" font-family="SegoeUI, Segoe UI"><tspan x="-181.428" y="0">Wait until we sell the painting to receive your </tspan><tspan x="-129.467" y="12">pro rata proceeds, after our fees.</tspan></text>
    <path id="Polygon_12" data-name="Polygon 12" d="M13,0,26,23H0Z" transform="translate(1460.219 4251)" fill="#330b7e"/>
    <g id="Group_170" data-name="Group 170" transform="translate(1551.324 4141.065)">
      <path id="Path_126" data-name="Path 126" d="M415.847,257.3v7.708H388.774V292.1h-7.613c0-9.514-.3-19.006.147-28.461.186-3.9,3.391-6.241,7.445-6.3C397.625,257.217,406.5,257.3,415.847,257.3Z" transform="translate(-380.985 -257.274)" fill="#fff"/>
      <path id="Path_127" data-name="Path 127" d="M452.376,264.953H425.255v-7.437c9.541,0,19.187-.351,28.786.172,3.862.211,5.943,3.666,5.965,7.719.05,8.719.016,17.439.016,26.528h-7.646Z" transform="translate(-382.173 -257.277)" fill="#fff"/>
      <path id="Path_128" data-name="Path 128" d="M415.826,336.292c-9.285,0-18.156.126-27.021-.051-4.6-.092-7.629-3.09-7.724-7.678-.184-8.869-.055-17.745-.055-26.945h7.71v26.927h27.089Z" transform="translate(-380.983 -258.466)" fill="#fff"/>
      <path id="Path_129" data-name="Path 129" d="M425.228,336.267V328.69H452V301.641h7.935c0,9.285.247,18.618-.116,27.927-.155,3.958-3.111,6.536-7.142,6.633C443.655,336.416,434.623,336.267,425.228,336.267Z" transform="translate(-382.172 -258.467)" fill="#fff"/>
      <path id="Path_130" data-name="Path 130" d="M397.387,320.305c5.154-6.443,9.944-12.43,15.115-18.892L424.1,315.5l8.025-10.167,11.26,14.972Z" transform="translate(-381.424 -258.461)" fill="#fff"/>
      <path id="Path_131" data-name="Path 131" d="M435.073,288.966c-3.549-.33-5.9-2.112-5.948-5.747-.049-3.6,2.129-5.792,5.737-5.825a5.289,5.289,0,0,1,5.7,5.383C440.772,286.415,438.562,288.351,435.073,288.966Z" transform="translate(-382.277 -257.815)" fill="#fff"/>
    </g>
  </g>
</svg>
