<svg xmlns="http://www.w3.org/2000/svg" width="81.554" height="81.55" viewBox="0 0 81.554 81.55">
  <g id="Group_165" data-name="Group 165" transform="translate(0)">
    <path id="Path_123" data-name="Path 123" d="M425.192,342.787c-9.809,0-19.618.059-29.427-.019-7.383-.059-10.711-3.356-10.734-10.742q-.1-29.993,0-59.985c.024-7.385,3.354-10.711,10.74-10.735q29.993-.093,59.985,0c7.383.024,10.711,3.353,10.734,10.741q.1,29.991,0,59.984c-.024,7.385-3.354,10.681-10.74,10.737C445.564,342.846,435.378,342.787,425.192,342.787Zm32.131-13.774L437.1,302.086l-15.819,20.189-11.482-13.3-15.573,20.038Z" transform="translate(-384.983 -261.259)" fill="#fff"/>
  </g>
</svg>
