<svg id="Group_170" data-name="Group 170" xmlns="http://www.w3.org/2000/svg" width="77.86" height="77.869" viewBox="0 0 77.86 77.869">
  <path id="Path_126" data-name="Path 126" d="M415.847,257.3v7.708H388.774V292.1h-7.613c0-9.514-.3-19.006.147-28.461.186-3.9,3.391-6.241,7.445-6.3C397.625,257.217,406.5,257.3,415.847,257.3Z" transform="translate(-380.985 -257.274)" fill="#fff"/>
  <path id="Path_127" data-name="Path 127" d="M452.376,264.953H425.255v-7.437c9.541,0,19.187-.351,28.786.172,3.862.211,5.943,3.666,5.965,7.719.05,8.719.016,17.439.016,26.528h-7.646Z" transform="translate(-382.173 -257.277)" fill="#fff"/>
  <path id="Path_128" data-name="Path 128" d="M415.826,336.292c-9.285,0-18.156.126-27.021-.051-4.6-.092-7.629-3.09-7.724-7.678-.184-8.869-.055-17.745-.055-26.945h7.71v26.927h27.089Z" transform="translate(-380.983 -258.466)" fill="#fff"/>
  <path id="Path_129" data-name="Path 129" d="M425.228,336.267V328.69H452V301.641h7.935c0,9.285.247,18.618-.116,27.927-.155,3.958-3.111,6.536-7.142,6.633C443.655,336.416,434.623,336.267,425.228,336.267Z" transform="translate(-382.172 -258.467)" fill="#fff"/>
  <path id="Path_130" data-name="Path 130" d="M397.387,320.305c5.154-6.443,9.944-12.43,15.115-18.892L424.1,315.5l8.025-10.167,11.26,14.972Z" transform="translate(-381.424 -258.461)" fill="#fff"/>
  <path id="Path_131" data-name="Path 131" d="M435.073,288.966c-3.549-.33-5.9-2.112-5.948-5.747-.049-3.6,2.129-5.792,5.737-5.825a5.289,5.289,0,0,1,5.7,5.383C440.772,286.415,438.562,288.351,435.073,288.966Z" transform="translate(-382.277 -257.815)" fill="#fff"/>
</svg>
