<svg xmlns="http://www.w3.org/2000/svg" width="209.71" height="197.964" viewBox="0 0 209.71 197.964">
  <g id="Group_530" data-name="Group 530" transform="translate(-336.135 -212.828)">
    <circle id="Ellipse_11" data-name="Ellipse 11" cx="84.809" cy="84.809" r="84.809" transform="translate(336.135 212.828)" fill="#ffac45"/>
    <g id="Group_529" data-name="Group 529" transform="translate(361.241 212.926)">
      <path id="Path_633" data-name="Path 633" d="M389.6,212.926c3.457,1.683,7.387,2.147,10.646,4.4,5.684,3.934,9.838,9.061,11.054,15.88.611,3.423,2.106,3.77,4.914,3.731,8.933-.125,17.87-.089,26.8-.033,7.088.044,10.359,3.26,10.389,10.328q.091,21.675-.007,43.35c-.035,6.708-3.382,10.007-10.159,10.117-8.929.145-17.859.153-26.788.219-11.066-.059-22.133-.069-33.2-.2-7.232-.084-10.534-3.479-10.575-10.767-.05-8.79-.06-17.582.022-26.372a5.674,5.674,0,0,0-2.216-5.126c-5.036-3.921-7.81-9.285-9.135-15.466-1-14.413,4.893-23.616,18.428-28.765.733-.279,1.674-.243,1.86-1.3Zm26.1,81.74c9.106.055,18.213.04,27.317.2,3.493.063,4.581-1.568,4.663-4.844.169-6.831.281-6.82-6.435-6.836-1.986,0-3.982.045-5.956-.124-5.246-.449-9.208-3.512-10.189-8.66-2.22-11.651.826-21.112,15.211-20.214.99.062,1.995-.071,2.98.022,2.821.267,4.992-.089,4.355-3.82-.524-3.066,1.648-7.61-4.276-7.608q-14.409,0-28.818,0c-1.514,0-2.735-.069-3.206,2.068-1.586,7.2-6.261,12.272-12,16.5-.778.277-1.54.615-2.336.821-5.046,1.3-9.547,5.989-15.469,1.889-2.006-1.39-3.043.387-3.015,2.727.1,7.816.111,15.634,0,23.449-.048,3.505,1.59,4.665,4.871,4.624C394.166,294.723,404.933,294.719,415.7,294.666ZM387.084,221c-1.71-.062-3.486-.284-3.276,2.36a3.041,3.041,0,0,1-1.079,2.569c-6.9,6.763-6.205,11.025,2.265,15.371,1.593.817,4.566,1.225,3.366,3.891-1.016,2.258-3.546,1.216-5.311.534-2.018-.78-3.467-2.251-4.7,1.28-1.148,3.3.274,4.189,2.722,4.955,1.493.467,2.783.947,2.617,2.961-.208,2.53,1.775,1.8,3.1,1.877,1.451.082,3.118.37,2.968-2.046a3.391,3.391,0,0,1,1.225-3.006c7.444-6.784,6.664-11.782-2.4-16.5-1.339-.7-3.8-.962-2.862-3.133.818-1.888,2.915-1.087,4.4-.373,1.931.929,3.415,1.711,4.348-1.294.74-2.383,1.068-4.038-1.941-4.754-1.224-.292-2.612-.746-2.493-2.559C390.184,220.864,388.631,220.893,387.084,221Zm60.549,47.981c0-9.027,0-9.027-8.662-8.966-6.709.047-8.538,1.865-8.559,8.507-.022,7.157,1.667,8.929,8.581,9C447.633,277.615,447.633,277.615,447.633,268.979Z" transform="translate(-361.241 -212.926)" fill="#fdfdfd"/>
      <path id="Path_634" data-name="Path 634" d="M545.846,332.8c-12.2-.771-12.2-.771-16.292,10.374-4.862,13.238-9.834,26.437-14.511,39.741-1.258,3.58-3.117,5.078-6.9,4.806-1.76-.126-4.422-1.221-5.29,1.027-.967,2.508-.31,4.861,2.3,6.86,3.583,2.74,4.1,6.73,1.89,10.737a8.1,8.1,0,0,1-10.225,3.841c-4.133-1.713-6.186-4.882-5.671-9.455a7.307,7.307,0,0,1,3.625-5.7c2.78-1.537,2.4-3.974,1.9-6.065-.585-2.44-3.048-1.235-4.649-1.277-5.635-.15-11.278-.14-16.913,0-1.414.035-3.722-1.165-4.082,1.333-.284,1.968-.954,4.3,1.523,5.813a7.547,7.547,0,0,1,3.668,5.12c.818,4.453-.654,7.879-4.761,9.925-3.77,1.877-7.939.679-10.528-2.886a8.156,8.156,0,0,1,.851-10.894c.675-.712,1.565-1.213,2.3-1.869,1.82-1.614,1.139-3.791.793-5.6-.318-1.658-2.21-.921-3.422-.971-2.484-.1-4.981-.142-7.46,0-2.4.139-3.6-.395-3.594-3.23,0-2.9,1.621-2.7,3.517-2.7,16.584.017,33.17-.109,49.752.1,3.982.049,6.028-.847,7.453-5,5.22-15.22,11.1-30.212,16.44-45.392,1.275-3.623,3.069-5.049,6.833-4.752,3.792.3,7.623.1,11.437.125Zm-77.767,71.969a2.6,2.6,0,0,0,2.527-3.027,2.41,2.41,0,0,0-2.612-2.421,2.519,2.519,0,0,0-2.775,2.767C465.265,403.906,466.332,404.73,468.079,404.774Zm34.25-2.86a2.483,2.483,0,0,0-2.911-2.539A2.4,2.4,0,0,0,497,401.932a2.5,2.5,0,0,0,2.661,2.818C501.468,404.768,502.219,403.605,502.329,401.914Z" transform="translate(-361.241 -212.926)" fill="#363535"/>
      <path id="Path_635" data-name="Path 635" d="M479.665,335.444c10.615,0,21.229-.037,31.844.015,5.551.028,6.283,1.071,4.447,6.215-3.627,10.157-7.372,20.272-10.943,30.448-.966,2.752-2.489,3.862-5.477,3.832q-20.4-.2-40.8,0c-3.06.033-4.459-1.247-5.369-3.955-3.435-10.224-7.032-20.393-10.484-30.611-1.606-4.757-.738-5.906,4.439-5.931C458.1,335.408,468.885,335.444,479.665,335.444Zm-.111,5.691c-9.12,0-18.24.049-27.359-.032-2.465-.022-3.253.449-2.266,3.118,2.817,7.622,5.445,15.319,7.965,23.046.684,2.1,1.674,2.87,3.864,2.853q17.409-.131,34.82,0c2.142.016,3.24-.652,3.964-2.744,2.661-7.68,5.463-15.313,8.319-22.922.98-2.61.464-3.435-2.446-3.381C497.464,341.24,488.508,341.135,479.554,341.135Z" transform="translate(-361.241 -212.926)" fill="#363535"/>
      <path id="Path_636" data-name="Path 636" d="M381.224,357.7V317.782c-1.145-.675-1.661.49-2.329,1.081-1.865,1.651-2.564-.313-3.6-1.133-1.155-.916-1.549-1.735-.451-3.28,6.571-9.242,9.3-9.606,16.912-1.64,1.083,1.135,3.968,1.863,1.769,4.67-1.828,2.332-3.555,2.439-6.035-.192v36.631c-1.2,10.516-1.2,10.516,8.8,10.516q18.1,0,36.2-.006c2.032,0,3.885-.275,3.853,2.911-.033,3.284-2.08,2.756-3.989,2.757-15.205.014-30.412-.1-45.615.076-4.137.047-5.724-1.436-5.368-5.527A60.947,60.947,0,0,0,381.224,357.7Z" transform="translate(-361.241 -212.926)" fill="#fdfdfd"/>
      <path id="Path_637" data-name="Path 637" d="M468.049,315.058a14.194,14.194,0,0,1,14.633-14.314A14.492,14.492,0,0,1,496.824,315.2a14.813,14.813,0,0,1-14.29,14.453A14.467,14.467,0,0,1,468.049,315.058Zm14.526,8.726a8.847,8.847,0,0,0,8.433-8.735,8.573,8.573,0,0,0-9.094-8.449,8.365,8.365,0,0,0-8.087,8.874A8.576,8.576,0,0,0,482.575,323.784Z" transform="translate(-361.241 -212.926)" fill="#363535"/>
      <path id="Path_638" data-name="Path 638" d="M485.2,284.845c2.843-3.495,4.941-3.494,6.756-.615.337.534.945,1.05.308,1.678-2.945,2.906-5.821,5.9-8.943,8.6-1.139.986-2.521-.059-3.507-1.014a43.736,43.736,0,0,1-4.877-4.972c-.961-1.289-4.069-1.761-1.982-4.628,1.989-2.732,3.874-2.186,5.732-.072.353-.433.511-.536.521-.651.948-11.419.948-11.419-10.459-11.42-2.155,0-4.322-.141-6.463.037-2.424.2-3.047-.75-3.119-3.112-.081-2.711,1.209-2.876,3.3-2.845,6.133.091,12.269.106,18.4.005,3.223-.053,4.455,1.383,4.363,4.534C485.106,274.691,485.2,279.019,485.2,284.845Z" transform="translate(-361.241 -212.926)" fill="#fdfdfd"/>
      <path id="Path_639" data-name="Path 639" d="M399.346,261.348c5.738-4.229,10.413-9.3,12-16.5.471-2.137,1.692-2.068,3.206-2.068q14.409.009,28.818,0c5.924,0,3.752,4.542,4.276,7.608.637,3.731-1.534,4.087-4.355,3.82-.985-.093-1.99.04-2.98-.022-14.385-.9-17.431,8.563-15.211,20.214.981,5.148,4.943,8.211,10.189,8.66,1.974.169,3.97.119,5.956.124,6.716.016,6.6.005,6.435,6.836-.082,3.276-1.17,4.907-4.663,4.844-9.1-.162-18.211-.147-27.318-.2C414.032,281.688,408.818,270.465,399.346,261.348Z" transform="translate(-361.241 -212.926)" fill="#fdfdfd"/>
      <path id="Path_640" data-name="Path 640" d="M387.084,221c1.547-.1,3.1-.134,2.952,2.131-.119,1.813,1.269,2.267,2.493,2.559,3.009.716,2.681,2.371,1.941,4.754-.933,3.005-2.417,2.223-4.348,1.294-1.482-.714-3.579-1.515-4.4.373-.942,2.171,1.523,2.436,2.862,3.133,9.064,4.72,9.844,9.718,2.4,16.5a3.391,3.391,0,0,0-1.225,3.006c.15,2.416-1.517,2.128-2.968,2.046-1.327-.074-3.31.653-3.1-1.877.166-2.014-1.124-2.494-2.617-2.961-2.448-.766-3.87-1.657-2.722-4.955,1.229-3.531,2.678-2.06,4.7-1.28,1.765.682,4.295,1.724,5.311-.534,1.2-2.666-1.773-3.074-3.366-3.891-8.47-4.346-9.163-8.608-2.265-15.371a3.041,3.041,0,0,0,1.079-2.569C383.6,220.714,385.374,220.936,387.084,221Z" transform="translate(-361.241 -212.926)" fill="#ffac45"/>
      <path id="Path_641" data-name="Path 641" d="M447.633,268.979c0,8.636,0,8.636-8.64,8.544-6.914-.074-8.6-1.846-8.581-9,.021-6.642,1.85-8.46,8.559-8.507C447.634,259.952,447.634,259.952,447.633,268.979Zm-11.349-.356c-.395,2.313.442,3.268,2.915,3.193,2.135-.065,2.828-.781,2.894-2.906.075-2.4-.747-3.147-3.109-3.116C436.855,265.822,435.856,266.4,436.284,268.623Z" transform="translate(-361.241 -212.926)" fill="#ffac45"/>
      <path id="Path_642" data-name="Path 642" d="M468.079,404.774c-1.747-.044-2.814-.868-2.86-2.681a2.519,2.519,0,0,1,2.775-2.767,2.41,2.41,0,0,1,2.612,2.421A2.6,2.6,0,0,1,468.079,404.774Z" transform="translate(-361.241 -212.926)" fill="#fdfdfd"/>
      <path id="Path_643" data-name="Path 643" d="M502.33,401.919c-.111,1.686-.862,2.849-2.668,2.831A2.5,2.5,0,0,1,497,401.932a2.4,2.4,0,0,1,2.417-2.557A2.485,2.485,0,0,1,502.33,401.919Z" transform="translate(-361.241 -212.926)" fill="#fdfdfd"/>
      <path id="Path_644" data-name="Path 644" d="M479.554,341.135c8.954,0,17.91.1,26.861-.061,2.91-.054,3.426.771,2.446,3.381-2.856,7.609-5.658,15.242-8.319,22.922-.724,2.092-1.822,2.76-3.964,2.744q-17.409-.131-34.82,0c-2.19.017-3.18-.756-3.864-2.853-2.52-7.727-5.148-15.424-7.965-23.046-.987-2.669-.2-3.14,2.266-3.118C461.314,341.184,470.434,341.135,479.554,341.135Zm-.251,11.658c4.974,0,9.95-.092,14.921.04,2.311.062,2.714-.988,2.708-3-.006-2.074-.6-2.983-2.822-2.964-9.782.085-19.565.1-29.346-.007-2.441-.028-2.556,1.206-2.625,3.088-.077,2.093.49,2.957,2.741,2.887C469.683,352.689,474.495,352.793,479.3,352.793Zm.281,11.666c3.622,0,7.247-.087,10.866.031,2.319.075,3.631-.3,3.621-3.172s-1.622-2.686-3.5-2.681c-7.409.02-14.818.05-22.226-.019-2.039-.019-3.4.089-3.326,2.808.065,2.423.892,3.159,3.2,3.071C472.006,364.354,475.8,364.458,479.584,364.459Z" transform="translate(-361.241 -212.926)" fill="#fdfdfd"/>
      <path id="Path_645" data-name="Path 645" d="M482.575,323.784a8.576,8.576,0,0,1-8.748-8.31,8.365,8.365,0,0,1,8.087-8.874,8.573,8.573,0,0,1,9.094,8.449A8.847,8.847,0,0,1,482.575,323.784Z" transform="translate(-361.241 -212.926)" fill="#fdfdfd"/>
      <path id="Path_646" data-name="Path 646" d="M387.466,271.761c2.169-.3,2.661.921,2.683,2.893.028,2.422-1.147,3-3.322,2.995-2.652-.007-2.7-1.634-2.729-3.566C384.068,271.6,385.708,271.683,387.466,271.761Z" transform="translate(-361.241 -212.926)" fill="#fdfdfd"/>
      <path id="Path_647" data-name="Path 647" d="M386.758,288.955c-2.169.3-2.661-.921-2.684-2.893-.027-2.422,1.148-3,3.322-3,2.652.007,2.706,1.634,2.729,3.566C390.156,289.116,388.515,289.033,386.758,288.955Z" transform="translate(-361.241 -212.926)" fill="#fdfdfd"/>
      <path id="Path_648" data-name="Path 648" d="M436.284,268.623c-.428-2.227.571-2.8,2.7-2.829,2.362-.031,3.184.715,3.109,3.116-.066,2.125-.759,2.841-2.894,2.906C436.726,271.891,435.889,270.936,436.284,268.623Z" transform="translate(-361.241 -212.926)" fill="#fdfdfd"/>
      <path id="Path_649" data-name="Path 649" d="M479.3,352.793c-4.808,0-9.62-.1-14.423.046-2.251.07-2.818-.794-2.741-2.887.069-1.882.184-3.116,2.625-3.088,9.781.109,19.564.092,29.346.007,2.226-.019,2.816.89,2.822,2.964.006,2.01-.4,3.06-2.708,3C489.253,352.7,484.277,352.793,479.3,352.793Z" transform="translate(-361.241 -212.926)" fill="#363535"/>
      <path id="Path_650" data-name="Path 650" d="M479.584,364.459c-3.787,0-7.578-.105-11.359.038-2.312.088-3.139-.648-3.2-3.071-.072-2.719,1.287-2.827,3.326-2.808,7.408.069,14.817.039,22.226.019,1.876-.005,3.489-.2,3.5,2.681s-1.3,3.247-3.621,3.172C486.831,364.372,483.206,364.459,479.584,364.459Z" transform="translate(-361.241 -212.926)" fill="#363535"/>
    </g>
  </g>
</svg>
