<svg xmlns="http://www.w3.org/2000/svg" width="80.677" height="80.683" viewBox="0 0 80.677 80.683">
  <g id="Group_175" data-name="Group 175" transform="translate(-381.661 -257.935)">
    <path id="Path_140" data-name="Path 140" d="M421.587,338.617c-22.388-.067-39.956-17.89-39.926-40.505.03-22.7,17.833-40.255,40.752-40.177,22.593.076,40.047,18,39.924,41C462.219,321.227,444.289,338.685,421.587,338.617Zm9.464-30.526a6.6,6.6,0,0,1-3.9,6.267c-4.663,2.494-9.074,1.2-13.158-4.392-1.618-2.215-3.045-2.182-4.987-1.016-2.157,1.294-.993,2.841-.194,4.267a13.041,13.041,0,0,0,5.561,5.573c2.381,1.174,4.962,1.991,5.071,5.408.044,1.382,1.394,1.673,2.66,1.663,1.3-.01,2.44-.427,2.559-1.823.248-2.925,2.417-3.63,4.627-4.532,4.116-1.679,6.934-4.485,7.444-9.171.716-6.572-1.742-10.838-8.237-13.825-3.619-1.665-7.548-2.768-10.935-4.8-4.325-2.591-3.748-7.7.854-9.787,3.942-1.788,7.512-1.07,10.385,2.211,1.8,2.06,3.758,1.384,5.274.087,1.949-1.669-.114-2.984-1.084-4.105a12.234,12.234,0,0,0-3.479-2.774c-2.2-1.155-4.666-1.817-4.9-4.98-.1-1.4-1.395-1.684-2.659-1.678-1.287.006-2.42.374-2.588,1.788-.266,2.254-1.475,3.475-3.531,4.341a11,11,0,0,0-7.137,10.521c-.066,5.062,3.165,8.267,7.467,10.322,3.145,1.5,6.485,2.591,9.677,4A8.225,8.225,0,0,1,431.051,308.091Z" fill="#ffac45"/>
  </g>
</svg>
