<svg xmlns="http://www.w3.org/2000/svg" width="664.8" height="530.051" viewBox="0 0 664.8 530.051">
  <g id="Group_526" data-name="Group 526" transform="translate(-8.609 -10.848)">
    <circle id="Ellipse_1" data-name="Ellipse 1" cx="218.831" cy="218.831" r="218.831" transform="translate(8.609 89.316)" fill="#e0e0e0"/>
    <circle id="Ellipse_1-2" data-name="Ellipse 1" cx="158.196" cy="158.196" r="158.196" transform="translate(357.018 193.745)" fill="#e0e0e0"/>
    <g id="Group_525" data-name="Group 525" transform="translate(172.569 10.848)">
      <path id="Path_613" data-name="Path 613" d="M224.142,342.036c-91.31,0-165.6-74.286-165.6-165.6s74.286-165.592,165.6-165.592,165.6,74.286,165.6,165.592S315.452,342.036,224.142,342.036Zm0-321.338C138.266,20.7,68.4,90.564,68.4,176.44s69.87,155.746,155.746,155.746S379.887,262.32,379.887,176.44,310.018,20.7,224.142,20.7Z" transform="translate(-58.546 -10.848)" fill="#ffac45"/>
    </g>
    <path id="Path_614" data-name="Path 614" d="M204.37,94.432c-13.639-13.639-39.646-9.752-58.079,8.678s-22.317,44.44-8.678,58.079c11.058,11.055,30.243,10.592,46.932.2l47.195,47.195-6.678,6.675,12.017,12.017,4.672-4.672,6.678,6.675,5.339-5.342,6.675,6.675,6.675-6.675,4.675,4.672-5.342,5.342,4.006,4.006-8.011,8.011,6.009,6.005,5.007-5,5.674,5.674h15.353L304.5,242.629,204.048,142.175C214.936,125.3,215.605,105.667,204.37,94.432Zm-8.038,38.747a18.974,18.974,0,0,1-13.912,5.447,18.974,18.974,0,0,1-5.447,13.912c-7.759,7.755-20.922,7.168-29.4-1.31s-9.065-21.641-1.31-29.4a18.974,18.974,0,0,1,13.912-5.447,18.974,18.974,0,0,1,5.447-13.912c7.759-7.755,20.921-7.171,29.4,1.31S204.087,125.42,196.332,133.178Z" transform="translate(275.961 172.252)" fill="#330b7e"/>
    <path id="Path_615" data-name="Path 615" d="M123.316,103.282a23.337,23.337,0,0,0,2.84,35.618v9.2L104.3,169.96l7.87,7.87H96.425L53.578,220.678l7.87,7.87-4.373,4.373-5.247-5.247-6.12,6.12,6.994,7-6.12,6.12-7-6.994-4.37,4.37,20.55,20.55,93.129-93.132H159.38a23.5,23.5,0,1,0,32.292-32.4,23.5,23.5,0,1,0-31.8-31.8,23.416,23.416,0,0,0-36.557-4.226ZM190.211,128.2a13.6,13.6,0,1,1,0-19.237A13.59,13.59,0,0,1,190.211,128.2Zm-20.547,40.664a13.6,13.6,0,1,1,19.237,0A13.59,13.59,0,0,1,169.664,168.867Zm-39.351-58.591a13.6,13.6,0,1,1,0,19.24A13.593,13.593,0,0,1,130.313,110.276Z" transform="translate(60.748 192.354)" fill="#330b7e"/>
    <path id="Path_616" data-name="Path 616" d="M94.435,149.382a47.756,47.756,0,0,0,29.439,44.109V325.077l8.553,8.553h10.582l16.01-16.01V307.307L148.709,297v-9.771l6.511-6.511V257.923l-7.056-7.056,7.056-7.056V212.333h14.112l-4.213-21.046a47.762,47.762,0,1,0-70.684-41.905Zm60.785-19.539a13.025,13.025,0,1,1-13.025-13.025A13.02,13.02,0,0,1,155.22,129.842Z" transform="translate(195.97 207.269)" fill="#330b7e"/>
  </g>
</svg>
