<svg xmlns="http://www.w3.org/2000/svg" width="91.207" height="91.207" viewBox="0 0 91.207 91.207">
  <g id="Group_169" data-name="Group 169" transform="translate(32.217) rotate(45)">
    <g id="Group_113" data-name="Group 113" transform="translate(0 0)">
      <path id="Path_76" data-name="Path 76" d="M83.331,5.216a1.894,1.894,0,0,1,.093.579V40.076a.931.931,0,0,0-.168.246c-.941,3.482-3.156,5.232-6.728,5.234q-27.155.013-54.31-.018a4.351,4.351,0,0,1-2.657-1.1q-9.056-9-18.071-18.049a5.1,5.1,0,0,1,0-7.208q8.943-8.949,17.877-17.906A4.332,4.332,0,0,1,22.446,0q22.7.029,45.4.015c3.037,0,6.075-.035,9.111.01a6.262,6.262,0,0,1,5.959,4.022A10.729,10.729,0,0,1,83.331,5.216Z" fill="#fff"/>
    </g>
    <path id="Path_125" data-name="Path 125" d="M5,0A5,5,0,1,1,0,5,5,5,0,0,1,5,0Z" transform="translate(14.357 17.782)" fill="#002f6c"/>
  </g>
</svg>
