<svg xmlns="http://www.w3.org/2000/svg" width="72.387" height="86.468" viewBox="0 0 72.387 86.468">
  <g id="Group_166" data-name="Group 166" transform="translate(0)">
    <path id="Path_124" data-name="Path 124" d="M457.17,286.425c.475,8.608-.263,18.821-4.976,28.405-5.744,11.685-14.281,20.491-26.658,24.936a14.433,14.433,0,0,1-8.994-.028c-17.685-6.248-30.807-24.833-31.451-44.226-.253-7.656-.257-15.334.052-22.985a6.435,6.435,0,0,1,3.126-4.6c9.926-4.7,19.977-9.152,30.093-13.435a7.847,7.847,0,0,1,5.527.033c9.967,4.209,19.776,8.788,29.734,13.02,2.71,1.153,3.818,2.6,3.612,5.574C456.969,276.931,457.17,280.777,457.17,286.425Zm-36.03,10.746v35.36c14.4-3.629,27.562-20.785,27.369-35.219H421V262.027c-9.141,4.043-17.659,7.76-26.11,11.627a3.536,3.536,0,0,0-1.784,2.532c-.146,6.927-.081,13.858-.081,20.986Z" transform="translate(-384.906 -254.003)" fill="#fff"/>
  </g>
</svg>
