<svg xmlns="http://www.w3.org/2000/svg" width="183.68" height="171.828" viewBox="0 0 183.68 171.828">
  <g id="Group_528" data-name="Group 528" transform="translate(-336.135 -210.619)">
    <circle id="Ellipse_10" data-name="Ellipse 10" cx="84.809" cy="84.809" r="84.809" transform="translate(336.135 212.828)" fill="#ffac45"/>
    <g id="Group_527" data-name="Group 527">
      <path id="Path_618" data-name="Path 618" d="M419.741,360.453c-7.8-.047-15.613-.213-23.415-.082-2.869.049-3.526-.939-3.661-3.7-.949-19.454,6.274-33.912,25.24-41.633-6.426-6.056-8.7-13.012-5.471-21.293,3.349-5.3,7.673-9.1,14.305-9.469,7.107-.394,13.274,2.985,16.272,9.243,3.172,6.623,2.389,12.869-2.314,18.554-.836,1.01-1.8,1.908-2.813,2.963,18.642,7.408,25.922,21.619,25.539,40.826-.079,3.935-1.3,4.564-4.827,4.521C445.646,360.23,432.693,360.4,419.741,360.453Zm5.9-40.826a30.639,30.639,0,0,0-27.207,31.388c.082,2.515.794,3.567,3.421,3.5,6.962-.171,13.929-.156,20.894-.215,10.631.076,21.262.129,31.893.25,1.936.022,2.985-.307,3.033-2.674C458.089,331.91,441.393,317.563,425.644,319.627Zm13.446-18.486a11.272,11.272,0,0,0-11.281-11.4c-5.4.084-10.742,4.842-10.889,9.693-.2,6.483,5.415,12.955,11.164,12.875A11.277,11.277,0,0,0,439.09,301.141Z" fill="#fdfdfd"/>
      <path id="Path_619" data-name="Path 619" d="M366.953,210.718c5.471,0,10.943-.072,16.413.019,7.272.12,11.826,4.352,12.14,11.658.269,6.286.26,12.6,0,18.889-.3,7.385-4.6,11.588-12.039,11.717q-16.16.279-32.327.009c-7.923-.134-12.035-4.589-12.117-12.621q-.087-8.451,0-16.905c.08-8.338,4.53-12.692,13.005-12.76C357.005,210.685,361.979,210.717,366.953,210.718Zm13.7,26.262c2.666-4,5.12-7.692,7.59-11.376,2.966-4.423,1.068-8.888-4.219-9-11.259-.233-22.527-.1-33.791-.022-2.811.018-5.063,1.552-5.165,4.364-.263,7.271-.186,14.56-.041,21.838.049,2.436,1.97,3.6,4.132,4.4,2.311.851,3.294-.686,4.432-2.146,4.578-5.877,9.258-11.677,13.744-17.623,2.56-3.392,4.616-3.122,6.837.258C376.149,230.694,378.289,233.608,380.648,236.98Zm9.2-3.042c-1.778,2.549-2.819,3.964-3.781,5.432-5.025,7.663-5.237,7.661-10.641-.031-1.547-2.2-3.165-4.357-4.9-6.737l-11.515,14.841c9.038,0,16.933.146,24.819-.062,3.906-.1,5.961-2.544,6.012-6.509C389.868,239.05,389.849,237.227,389.849,233.938Z" fill="#383838"/>
      <path id="Path_620" data-name="Path 620" d="M429.49,210.72c5.472,0,10.947-.106,16.415.028,6.915.171,11.494,4.632,11.7,11.57.2,6.459.211,12.934-.012,19.391-.224,6.51-4.472,11.041-10.956,11.2q-17.15.423-34.317.027c-6.586-.142-10.871-4.427-11.183-10.982-.314-6.615-.3-13.266-.023-19.884.292-6.922,4.968-11.194,11.957-11.33C418.544,210.635,424.018,210.719,429.49,210.72Zm13.27,26.275c2.745-4.12,5.114-7.677,7.484-11.233,3.146-4.719,1.15-9.1-4.518-9.2-10.955-.2-21.915-.073-32.873-.037-3.244.011-5.7,1.618-5.842,4.877-.293,6.957-.2,13.936-.052,20.9.056,2.58,1.867,4.052,4.3,4.885,2.636.9,3.542-1.061,4.739-2.583,4.1-5.216,8.175-10.455,12.276-15.672,4.274-5.436,5.033-5.423,8.9.088C438.889,231.46,440.6,233.9,442.76,236.995Zm9.083-3.08c-2.42,3.633-4.119,6.1-5.725,8.62-2,3.134-4.076,3.063-6.184.2-1.964-2.664-3.847-5.39-5.71-8.127-.922-1.356-1.675-1.921-2.931-.256-3.135,4.155-6.379,8.226-10.171,13.091,8.957,0,16.85.139,24.735-.059,3.881-.1,6.039-2.381,5.989-6.439C451.824,239.13,451.843,237.312,451.843,233.915Z" fill="#383838"/>
      <path id="Path_621" data-name="Path 621" d="M509.665,210.619c7.814,2.688,9.9,5.545,9.987,13.611.015,1.47.107,2.94.163,4.41-.06,4.312-.055,8.627-.2,12.938-.217,6.587-4.225,11.139-10.791,11.311-11.452.3-22.921.289-34.374.04-6.72-.145-10.8-4.29-11.1-11-.3-6.628-.3-13.288-.026-19.916.3-7.051,4.8-11.186,11.959-11.264C486.746,210.62,498.2,210.653,509.665,210.619Zm2.948,14.221c2.381-4.276,1.155-6.779-3.955-8.071q-16.917-.121-33.834-.232c-3.337-.016-5.63,1.832-5.767,4.994-.3,6.95-.229,13.928,0,20.884.082,2.492,1.95,4.06,4.418,4.826,2.647.822,3.517-1.248,4.7-2.739,4.529-5.724,9.051-11.454,13.484-17.252,2.376-3.107,4.417-2.977,6.563.2,2.113,3.13,4.34,6.184,6.781,9.646Zm.824,9.775c-1.99,3.026-3.572,5.348-5.067,7.724-2.113,3.358-4.259,3.32-6.5.165s-4.493-6.348-7.042-9.953l-11.7,14.922c7.609,0,14.059,0,20.509,0C513.276,247.47,514.926,245.467,513.437,234.615Z" fill="#383838"/>
      <path id="Path_622" data-name="Path 622" d="M494.465,315.089c19.183,7.848,26.242,22.553,25.242,42.115-.115,2.258-.513,3.173-3.012,3.155q-22.412-.164-44.826-.013c-2.3.013-3.179-.562-3.162-3.036.019-2.753,1.506-2.8,3.509-2.794,12.286.036,24.574-.117,36.856.1,3.752.066,5.206-.684,4.93-4.833-.844-12.683-6.457-22.3-17.967-27.7-11.185-5.243-21.648-2.981-30.957,4.966-.964.823-1.892,2.288-3.028.285-.793-1.4-2.928-2.572-.669-4.588a41.909,41.909,0,0,1,13.2-7.629c-4.851-4.456-7.794-9.539-6.916-16.178a16.54,16.54,0,0,1,5.751-10.678,17.017,17.017,0,0,1,23.032.924C503.563,296.422,502.937,305.936,494.465,315.089Zm1.154-14.058a11.213,11.213,0,1,0-11.451,11.283A11.42,11.42,0,0,0,495.619,301.031Z" fill="#fdfdfd"/>
      <path id="Path_623" data-name="Path 623" d="M363.9,315.063c-8.257-11-8.454-20.276-.674-26.918a16.862,16.862,0,0,1,23.385,1.167c6.642,7.043,5.913,16.667-2.276,25.645a51.76,51.76,0,0,1,10.356,5.41c1.733,1.27,2.465,2.288.971,4.385s-2.6,1.745-4.407.443c-9.474-6.834-19.721-7.937-29.988-2.424-10.607,5.7-15.9,15.025-16.491,27.152-.191,3.911,1.2,4.706,4.788,4.638,11.125-.21,22.257-.049,33.386-.1,2.345-.01,4.2-.051,4.1,3.271-.1,3.412-2.391,2.544-4.174,2.551q-19.934.072-39.866-.012c-1.574-.007-3.813.952-4.012-2.148-1.019-15.822,3.043-31.293,19.548-40.514C360.262,316.655,362.1,315.917,363.9,315.063Zm21.709-14.249a11.278,11.278,0,1,0-22.552.433,11.568,11.568,0,0,0,11.717,11.05A11.7,11.7,0,0,0,385.613,300.814Z" fill="#fdfdfd"/>
      <path id="Path_624" data-name="Path 624" d="M380.648,236.98c-2.359-3.372-4.5-6.286-6.481-9.3-2.221-3.38-4.277-3.65-6.837-.258-4.486,5.946-9.166,11.746-13.744,17.623-1.138,1.46-2.121,3-4.432,2.146-2.162-.8-4.083-1.964-4.132-4.4-.145-7.278-.222-14.567.041-21.838.1-2.812,2.354-4.346,5.165-4.364,11.264-.073,22.532-.211,33.791.022,5.287.109,7.185,4.574,4.219,9C385.768,229.288,383.314,232.984,380.648,236.98Zm-20.566-9.509c-.257-3.483-2.407-5.412-5.746-5.314a5.094,5.094,0,0,0-5.294,5.36c-.066,3.6,2.181,5.641,5.485,5.662S359.98,231.181,360.082,227.471Z" fill="#fdfdfd"/>
      <path id="Path_625" data-name="Path 625" d="M389.849,233.938c0,3.289.019,5.112-.005,6.934-.051,3.965-2.106,6.406-6.012,6.509-7.886.208-15.781.062-24.819.062L370.528,232.6c1.734,2.38,3.352,4.534,4.9,6.737,5.4,7.692,5.616,7.694,10.641.031C387.03,237.9,388.071,236.487,389.849,233.938Z" fill="#fdfdfd"/>
      <path id="Path_626" data-name="Path 626" d="M442.76,236.995c-2.165-3.093-3.871-5.535-5.583-7.972-3.87-5.511-4.629-5.524-8.9-.088-4.1,5.217-8.174,10.456-12.276,15.672-1.2,1.522-2.1,3.486-4.739,2.583-2.433-.833-4.244-2.305-4.3-4.885-.152-6.966-.241-13.945.052-20.9.137-3.259,2.6-4.866,5.842-4.877,10.958-.036,21.918-.16,32.873.037,5.668.1,7.664,4.48,4.518,9.2C447.874,229.318,445.505,232.875,442.76,236.995Zm-20.614-9.471c-.221-3.374-2.2-5.323-5.395-5.367-3.482-.049-5.716,2.162-5.629,5.636s2.389,5.552,5.9,5.347C420.259,232.951,422.06,230.886,422.146,227.524Z" fill="#fdfdfd"/>
      <path id="Path_627" data-name="Path 627" d="M451.843,233.915c0,3.4-.019,5.215,0,7.033.05,4.058-2.108,6.341-5.989,6.439-7.885.2-15.778.059-24.735.059,3.792-4.865,7.036-8.936,10.171-13.091,1.256-1.665,2.009-1.1,2.931.256,1.863,2.737,3.746,5.463,5.71,8.127,2.108,2.86,4.188,2.931,6.184-.2C447.724,240.012,449.423,237.548,451.843,233.915Z" fill="#fdfdfd"/>
      <path id="Path_628" data-name="Path 628" d="M512.613,224.84,505,237.1c-2.441-3.462-4.668-6.516-6.781-9.646-2.146-3.177-4.187-3.307-6.563-.2-4.433,5.8-8.955,11.528-13.484,17.252-1.181,1.491-2.051,3.561-4.7,2.739-2.468-.766-4.336-2.334-4.418-4.826-.229-6.956-.3-13.934,0-20.884.137-3.162,2.43-5.01,5.767-4.994,11.278.055,22.556.151,33.834.231A11.691,11.691,0,0,0,512.613,224.84ZM473.254,227.7c.239,3.327,2.086,5.36,5.317,5.449,3.508.1,5.74-2.081,5.712-5.533s-2.312-5.607-5.8-5.453C475.268,222.306,473.443,224.39,473.254,227.7Z" fill="#fdfdfd"/>
      <path id="Path_629" data-name="Path 629" d="M513.437,234.615c1.489,10.852-.161,12.855-9.8,12.857-6.45,0-12.9,0-20.509,0l11.7-14.922c2.549,3.605,4.789,6.784,7.042,9.953s4.389,3.193,6.5-.165C509.865,239.963,511.447,237.641,513.437,234.615Z" fill="#fdfdfd"/>
      <path id="Path_630" data-name="Path 630" d="M360.082,227.471c-.1,3.71-2.244,5.728-5.555,5.708s-5.551-2.063-5.485-5.662a5.094,5.094,0,0,1,5.294-5.36C357.675,222.059,359.825,223.988,360.082,227.471Z" fill="#383838"/>
      <path id="Path_631" data-name="Path 631" d="M422.149,227.531c-.089,3.355-1.89,5.42-5.131,5.609-3.507.205-5.809-1.88-5.9-5.347s2.147-5.685,5.629-5.636C419.942,222.2,421.925,224.15,422.149,227.531Z" fill="#383838"/>
      <path id="Path_632" data-name="Path 632" d="M473.254,227.7c.189-3.311,2.014-5.4,5.227-5.537,3.49-.154,5.774,2,5.8,5.453s-2.2,5.629-5.712,5.533C475.34,233.061,473.493,231.028,473.254,227.7Z" fill="#383838"/>
    </g>
  </g>
</svg>
