<svg xmlns="http://www.w3.org/2000/svg" width="72.009" height="79.729" viewBox="0 0 72.009 79.729">
  <g id="Group_174" data-name="Group 174" transform="translate(-384.994 -257.558)">
    <path id="Path_135" data-name="Path 135" d="M385,313.34h11.814v-55.6l6.214,5.2,5.944-5.353,6,5.419,5.959-5.4,6.073,5.369,5.954-5.386,6.025,5.4,5.988-5.431,5.965,5.417,5.724-5c.135,1.961.315,3.363.317,4.765q.027,29.967.006,59.932c-.011,10.161-4.432,14.577-14.589,14.592q-21.725.033-43.451-.006c-9.232-.026-13.846-4.614-13.94-13.736C384.977,320.369,385,317.214,385,313.34ZM449,269.616h-43.63v43.951H441c0,3.843-.482,7.265.18,10.451.4,1.913,2.577,3.456,3.956,5.165,1.286-1.635,3.667-3.254,3.691-4.907C449.1,306.175,449,288.068,449,269.616Z" fill="#ffac45"/>
    <path id="Path_136" data-name="Path 136" d="M432.652,285.044h-23.4v-7.4h23.4Z" fill="#ffac45"/>
    <path id="Path_137" data-name="Path 137" d="M409.09,296.983V289.65h23.559v7.333Z" fill="#ffac45"/>
    <path id="Path_138" data-name="Path 138" d="M437.307,277.364h7.3v7.561h-7.3Z" fill="#ffac45"/>
    <path id="Path_139" data-name="Path 139" d="M444.636,297.074h-7.36v-7.567h7.36Z" fill="#ffac45"/>
  </g>
</svg>
