<svg xmlns="http://www.w3.org/2000/svg" width="583.379" height="567.201" viewBox="0 0 583.379 567.201">
  <g id="Group_524" data-name="Group 524" transform="translate(-8.609 -15.476)">
    <circle id="Ellipse_1" data-name="Ellipse 1" cx="138.821" cy="138.821" r="138.821" transform="translate(148.431 305.036)" fill="#e0e0e0"/>
    <circle id="Ellipse_1-2" data-name="Ellipse 1" cx="192.03" cy="192.03" r="192.03" transform="translate(8.609 71)" fill="#e0e0e0"/>
    <circle id="Ellipse_1-3" data-name="Ellipse 1" cx="138.821" cy="138.821" r="138.821" transform="translate(314.347 162.638)" fill="#e0e0e0"/>
    <g id="Group_519" data-name="Group 519" transform="translate(223.001 367.639)">
      <path id="Path_473" data-name="Path 473" d="M130.159,150.769a1.743,1.743,0,0,0-1.809,1.668c-.017.461-.04.916-.069,1.374a1.743,1.743,0,0,0,.934,1.648q1.5.778,3.12,1.654a1.744,1.744,0,0,0,2.06-.3,1.767,1.767,0,0,0,.3-.4,1.741,1.741,0,0,0-.7-2.357c-.743-.4-1.472-.789-2.178-1.161l.014-.314A1.743,1.743,0,0,0,130.159,150.769Z" transform="translate(2.12 -113.125)" fill="#330b7e"/>
      <path id="Path_474" data-name="Path 474" d="M146.128,164.257a124.861,124.861,0,0,0-13.755-9.194,1.739,1.739,0,0,0-1.749,3.005A121.5,121.5,0,0,1,144,167.008q.67.514,1.334,1.049a1.74,1.74,0,0,0,2.314-.13,1.611,1.611,0,0,0,.133-.144,1.743,1.743,0,0,0-.274-2.446C147.048,164.971,146.587,164.611,146.128,164.257Z" transform="translate(4.91 -105.491)" fill="#330b7e"/>
      <path id="Path_475" data-name="Path 475" d="M129.485,149.951a1.74,1.74,0,1,0-3.472.233,60.788,60.788,0,0,1-.2,10.367,4.463,4.463,0,0,0,2.414,4.408q1.75.89,3.668,1.9a1.737,1.737,0,0,0,2.043-.308,1.673,1.673,0,0,0,.308-.418,1.739,1.739,0,0,0-.726-2.351c-1.291-.683-2.533-1.323-3.711-1.922a.968.968,0,0,1-.536-.942A64.554,64.554,0,0,0,129.485,149.951Z" transform="translate(-2.568 -117.715)" fill="#330b7e"/>
      <path id="Path_476" data-name="Path 476" d="M87.747,175.978a1.744,1.744,0,0,0,1.109-2.2c-.9-2.749-1.711-5.567-2.406-8.373a1.741,1.741,0,0,0-3.38.836c.715,2.89,1.55,5.791,2.481,8.623A1.741,1.741,0,0,0,87.747,175.978Z" transform="translate(-83.019 -88.066)" fill="#330b7e"/>
      <path id="Path_477" data-name="Path 477" d="M127.4,171.153a.966.966,0,0,1-.513-1.04,56.726,56.726,0,0,0-.441-23.28,1.74,1.74,0,1,0-3.391.778,53.255,53.255,0,0,1,.412,21.86,4.422,4.422,0,0,0,2.34,4.777c.654.334,1.389.712,2.213,1.127,11.294,5.708,25.663,13.833,36.64,26.1a1.741,1.741,0,0,0,2.458.138l.072-.069a1.741,1.741,0,0,0,.063-2.389c-11.366-12.706-26.1-21.044-37.663-26.89C128.779,171.856,128.052,171.484,127.4,171.153Z" transform="translate(-7.78 -123.071)" fill="#330b7e"/>
      <path id="Path_478" data-name="Path 478" d="M90.949,197.949a1.742,1.742,0,0,0,1.178-2.161,106.816,106.816,0,0,1-3.478-44.356,1.741,1.741,0,0,0-3.452-.455,110.318,110.318,0,0,0,3.59,45.791A1.74,1.74,0,0,0,90.949,197.949Z" transform="translate(-80.716 -115.58)" fill="#330b7e"/>
      <path id="Path_479" data-name="Path 479" d="M105.425,200.555a1.674,1.674,0,0,0,.187-.161,1.743,1.743,0,0,0,.161-2.273,110.638,110.638,0,0,1-16.005-30.014,1.74,1.74,0,0,0-3.287,1.144,114.12,114.12,0,0,0,16.507,30.956A1.742,1.742,0,0,0,105.425,200.555Z" transform="translate(-76.691 -82.707)" fill="#330b7e"/>
      <path id="Path_480" data-name="Path 480" d="M131.184,208.506a1.74,1.74,0,0,0-.435-2.778c-11.332-5.834-23.312-12.98-34.128-25.683A1.74,1.74,0,0,0,93.97,182.3c11.208,13.161,23.537,20.526,35.188,26.522A1.739,1.739,0,0,0,131.184,208.506Z" transform="translate(-63.191 -59.198)" fill="#330b7e"/>
      <path id="Path_481" data-name="Path 481" d="M127.911,160.054a1.738,1.738,0,0,0,.6,2.386c12.666,7.572,22.18,16.339,29.086,26.807a1.74,1.74,0,0,0,2.412.5,1.879,1.879,0,0,0,.274-.222,1.744,1.744,0,0,0,.219-2.19c-7.2-10.914-17.08-20.033-30.207-27.876A1.743,1.743,0,0,0,127.911,160.054Z" transform="translate(0.968 -97.246)" fill="#330b7e"/>
      <path id="Path_482" data-name="Path 482" d="M123.5,178.91a5.468,5.468,0,0,0-.156,1.726,6.729,6.729,0,0,0,3.576,5.373c1.435.778,3.319,1.758,5.6,2.91q1.638.83,3.492,1.778a1.739,1.739,0,1,0,1.593-3.092c-1.239-.64-2.417-1.236-3.515-1.789-2.256-1.141-4.112-2.106-5.52-2.867a3.23,3.23,0,0,1-1.758-2.538,1.95,1.95,0,0,1,.049-.614,50.193,50.193,0,0,0-4.653-37.318,1.74,1.74,0,1,0-3.043,1.688A46.717,46.717,0,0,1,123.5,178.91Z" transform="translate(-15.416 -130.402)" fill="#330b7e"/>
      <path id="Path_483" data-name="Path 483" d="M87.141,185.628a1.739,1.739,0,0,0,1.9,1.564,1.718,1.718,0,0,0,1.063-.5,1.737,1.737,0,0,0,.5-1.4,98.915,98.915,0,0,1,2.8-34.817c.372-1.406.813-2.812,1.311-4.175a1.74,1.74,0,1,0-3.267-1.2c-.536,1.467-1.011,2.976-1.409,4.486A102.475,102.475,0,0,0,87.141,185.628Z" transform="translate(-76.167 -125.928)" fill="#330b7e"/>
      <path id="Path_484" data-name="Path 484" d="M95.769,186.214a1.74,1.74,0,0,0,.968-2.265,102.257,102.257,0,0,1-6.215-22.8,1.74,1.74,0,1,0-3.44.519,105.665,105.665,0,0,0,6.425,23.574A1.738,1.738,0,0,0,95.769,186.214Z" transform="translate(-75.414 -96.374)" fill="#330b7e"/>
      <path id="Path_485" data-name="Path 485" d="M90.5,172.632a107.97,107.97,0,0,0,14.85,22.658c10.318,12.115,22.079,19.134,32.221,24.4a1.747,1.747,0,0,0,2.034-.314,1.8,1.8,0,0,0,.311-.429,1.738,1.738,0,0,0-.74-2.345c-10.341-5.371-21.272-11.943-31.175-23.571a104.541,104.541,0,0,1-14.374-21.926,1.739,1.739,0,1,0-3.126,1.524Z" transform="translate(-69.274 -76.699)" fill="#330b7e"/>
      <path id="Path_486" data-name="Path 486" d="M112.475,190.726a1.741,1.741,0,0,0-3.362-.9c-.21.784-.441,1.625-.7,2.521-.308,1.069-.579,2.155-.812,3.23a1.739,1.739,0,0,0,3.4.738c.216-1,.473-2.014.758-3.011C112.023,192.385,112.259,191.527,112.475,190.726Z" transform="translate(-36.847 -42.077)" fill="#330b7e"/>
      <path id="Path_487" data-name="Path 487" d="M125.073,161.291a1.742,1.742,0,0,0,.689,2.363c11.407,6.258,27.6,16.881,36.566,36.776A1.74,1.74,0,1,0,165.5,199c-9.387-20.846-26.219-31.9-38.064-38.4A1.746,1.746,0,0,0,125.073,161.291Z" transform="translate(-4.31 -95.025)" fill="#330b7e"/>
      <path id="Path_488" data-name="Path 488" d="M128.861,184a12.533,12.533,0,0,0-.271,4.9,13.851,13.851,0,0,0,7.249,10.174c1.461.789,3.357,1.772,5.636,2.924a1.74,1.74,0,1,0,1.57-3.106c-2.253-1.138-4.12-2.106-5.552-2.881a10.358,10.358,0,0,1-5.454-7.58,9.006,9.006,0,0,1,.187-3.541,43.588,43.588,0,0,0-16.953-46.641,1.74,1.74,0,1,0-2.005,2.844A40.113,40.113,0,0,1,128.861,184Z" transform="translate(-27.504 -137.27)" fill="#330b7e"/>
      <path id="Path_489" data-name="Path 489" d="M101.822,232.3a1.74,1.74,0,0,0,2.368.663,1.642,1.642,0,0,0,.38-.285,1.739,1.739,0,0,0,.285-2.083,93.565,93.565,0,0,1-9.249-70A40.055,40.055,0,0,1,106,142.5a1.74,1.74,0,0,0-2.461-2.461A43.5,43.5,0,0,0,92.245,159.7,97.029,97.029,0,0,0,101.822,232.3Z" transform="translate(-71.639 -134.266)" fill="#330b7e"/>
      <path id="Path_490" data-name="Path 490" d="M110.294,185.5l-.256.5-.529,1.048Z" transform="translate(-33.186 -47.781)" fill="#330b7e"/>
      <path id="Path_491" data-name="Path 491" d="M104.414,182.284a99.192,99.192,0,0,1-6.192-8.082,1.739,1.739,0,1,0-2.867,1.971,101.954,101.954,0,0,0,6.411,8.367c11.268,13.231,24.4,19.863,34.943,25.193l.533-1.046,1.037-2.06C128.011,201.438,115.23,194.982,104.414,182.284Z" transform="translate(-60.389 -70.461)" fill="#330b7e"/>
      <path id="Path_492" data-name="Path 492" d="M115.716,190.157a1.741,1.741,0,0,0-3.385-.812c-.432,1.8-.957,3.783-1.562,5.9-.337,1.181-.631,2.386-.867,3.584a1.74,1.74,0,0,0,2.939,1.565,1.71,1.71,0,0,0,.475-.89c.219-1.1.487-2.213.8-3.3C114.734,194.038,115.273,192,115.716,190.157Z" transform="translate(-32.51 -43.062)" fill="#330b7e"/>
      <path id="Path_493" data-name="Path 493" d="M134.241,190.462c-1.464-.738-3.668-1.853-5.662-2.933a17.5,17.5,0,0,1-9.041-12.421,15.912,15.912,0,0,1,.294-6.635,36.283,36.283,0,0,0-.91-21.6,1.74,1.74,0,0,0-3.276,1.176,32.806,32.806,0,0,1,.821,19.54,19.4,19.4,0,0,0-.366,8.07,21.006,21.006,0,0,0,10.822,14.933c2.037,1.1,4.27,2.233,5.748,2.979,12.167,6.151,32.535,16.446,41.85,39.7.818,2.046,1.55,4.146,2.17,6.241a1.74,1.74,0,1,0,3.336-.988c-.651-2.2-1.418-4.4-2.276-6.546C167.948,207.5,146.846,196.835,134.241,190.462Z" transform="translate(-21.837 -122.626)" fill="#330b7e"/>
      <path id="Path_494" data-name="Path 494" d="M128.183,156.022c.17.274.334.547.5.827a1.74,1.74,0,0,0,3.005-1.755q-.268-.458-.545-.908a36.38,36.38,0,0,0-21.713-16.031,1.74,1.74,0,0,0-.887,3.365A32.909,32.909,0,0,1,128.183,156.022Z" transform="translate(-37.451 -136.959)" fill="#330b7e"/>
      <path id="Path_495" data-name="Path 495" d="M94.41,164.914a88.562,88.562,0,0,0-2.916,23,1.74,1.74,0,0,0,3.481-.017,85.021,85.021,0,0,1,2.8-22.1,33.039,33.039,0,0,1,33.575-24.583,1.739,1.739,0,1,0,.164-3.475,36.518,36.518,0,0,0-37.1,27.17Z" transform="translate(-67.077 -137.703)" fill="#330b7e"/>
      <path id="Path_496" data-name="Path 496" d="M158.088,243.576c.081-.524.15-1.011.2-1.461a7.641,7.641,0,0,0-3.93-7.632c-2.291-1.265-4.907-2.587-6.5-3.394-9.71-4.907-21.794-11.012-31.7-22.641a88.75,88.75,0,0,1-21.07-49.727,1.74,1.74,0,0,0-3.466.317A92.214,92.214,0,0,0,113.515,210.7c10.361,12.165,22.79,18.446,32.8,23.505,1.544.781,4.123,2.086,6.359,3.319a4.175,4.175,0,0,1,2.158,4.169c-.049.412-.112.861-.187,1.345a104.667,104.667,0,0,1-2.858,12.188c-.3,1.04-.55,2.106-.758,3.164a1.74,1.74,0,0,0,3.417.663c.184-.959.418-1.925.686-2.867A108.067,108.067,0,0,0,158.088,243.576Z" transform="translate(-66.84 -101.136)" fill="#330b7e"/>
      <path id="Path_497" data-name="Path 497" d="M131.513,171.614a1.736,1.736,0,0,0-.279,2.446,54.8,54.8,0,0,1,8.018,13.8,63.375,63.375,0,0,1,3.555,12.424,1.74,1.74,0,1,0,3.426-.611,67.064,67.064,0,0,0-3.748-13.107,58.407,58.407,0,0,0-8.528-14.671A1.737,1.737,0,0,0,131.513,171.614Z" transform="translate(6.969 -74.623)" fill="#330b7e"/>
      <path id="Path_498" data-name="Path 498" d="M117.447,154.425a1.74,1.74,0,0,0-3.365-.887c-2.293,8.7.118,18.33,6.454,25.767,2.184,2.561,7.857,5.428,13.346,8.2,6.811,3.443,15.288,7.73,23,14.464a1.741,1.741,0,0,0,2.374-.081c.029-.029.055-.058.081-.086a1.739,1.739,0,0,0-.167-2.455c-8.036-7.019-16.728-11.415-23.718-14.948-4.693-2.374-10.534-5.325-12.262-7.356C117.589,170.479,115.445,162.02,117.447,154.425Z" transform="translate(-26.183 -110.354)" fill="#330b7e"/>
      <path id="Path_499" data-name="Path 499" d="M153.028,167.668a1.741,1.741,0,0,0,1.49-1.959,29.585,29.585,0,0,0-57.924-3.564A82.675,82.675,0,0,0,97,205.412a1.739,1.739,0,1,0,3.351-.934,79.189,79.189,0,0,1-.392-41.446,26.112,26.112,0,0,1,51.11,3.143A1.741,1.741,0,0,0,153.028,167.668Z" transform="translate(-62.529 -133.16)" fill="#330b7e"/>
      <path id="Path_500" data-name="Path 500" d="M156.669,219.62c-.867-2.161-4.9-4.492-13.608-8.9-9.151-4.624-20.543-10.381-29.538-20.944a83.108,83.108,0,0,1-14.32-24,1.74,1.74,0,0,0-3.247,1.253,86.608,86.608,0,0,0,14.919,25.006c9.448,11.093,21.186,17.025,30.619,21.791,3.619,1.832,11.15,5.641,11.943,7.085,2,4.99-1.683,17.852-2.893,22.079-.184.637-.349,1.3-.493,1.956a1.741,1.741,0,0,0,2.933,1.6,1.72,1.72,0,0,0,.47-.864c.127-.585.274-1.167.435-1.729C156.318,235.461,158.83,225.022,156.669,219.62Z" transform="translate(-58.902 -86.982)" fill="#330b7e"/>
      <path id="Path_501" data-name="Path 501" d="M135.5,179.081c-6.059-3.063-11.781-5.955-14.418-9.05a34.43,34.43,0,0,1-6.174-10.519,1.74,1.74,0,1,0-3.267,1.2,37.977,37.977,0,0,0,6.791,11.58c3.092,3.627,9.119,6.676,15.5,9.9,11.75,5.941,27.847,14.078,35.206,32.457a57.468,57.468,0,0,1,4.054,19.955,1.74,1.74,0,0,0,3.478-.1,60.844,60.844,0,0,0-4.3-21.145C164.519,193.753,147.748,185.273,135.5,179.081Z" transform="translate(-29.376 -98.824)" fill="#330b7e"/>
      <path id="Path_502" data-name="Path 502" d="M138.629,153.758a22.469,22.469,0,0,0-13.778-10.485,22.615,22.615,0,0,0-27.637,16.1,1.74,1.74,0,0,0,3.365.887,19.139,19.139,0,1,1,37.012,9.762A33.135,33.135,0,0,0,136.6,180.9a1.74,1.74,0,0,0,1.864,1.608,1.714,1.714,0,0,0,1.1-.5,1.734,1.734,0,0,0,.507-1.357,29.519,29.519,0,0,1,.882-9.733A22.463,22.463,0,0,0,138.629,153.758Z" transform="translate(-56.423 -128.616)" fill="#330b7e"/>
      <path id="Path_503" data-name="Path 503" d="M100.219,153.558a1.74,1.74,0,0,0-3.46-.375,78.265,78.265,0,0,0,18.5,58.858,57.291,57.291,0,0,0,4.9,5.062,1.742,1.742,0,0,0,2.406-.052l.055-.055a1.743,1.743,0,0,0-.109-2.461,53.107,53.107,0,0,1-4.6-4.751A74.778,74.778,0,0,1,100.219,153.558Z" transform="translate(-57.987 -111.5)" fill="#330b7e"/>
      <path id="Path_504" data-name="Path 504" d="M142.4,197.109c-1.988-4.964-8.58-8.3-16.933-12.522a131.6,131.6,0,0,1-15.876-9.024,1.741,1.741,0,0,0-1.979,2.864A135.129,135.129,0,0,0,123.9,187.7c7.693,3.89,13.766,6.961,15.268,10.707,2.538,6.344.078,17-2.665,26.582a1.74,1.74,0,0,0,2.9,1.709,1.716,1.716,0,0,0,.441-.752C142.752,215.791,145.328,204.428,142.4,197.109Z" transform="translate(-38.17 -67.059)" fill="#330b7e"/>
      <path id="Path_505" data-name="Path 505" d="M128.011,172.057a107.089,107.089,0,0,1-11.45-6.353,1.741,1.741,0,1,0-1.951,2.884,110.033,110.033,0,0,0,11.833,6.575c11.361,5.742,25.5,12.891,31.886,28.832a53.764,53.764,0,0,1,3.406,24.1,1.74,1.74,0,0,0,2.968,1.345,1.723,1.723,0,0,0,.5-1.112A57.171,57.171,0,0,0,161.56,202.7C154.689,185.541,139.9,178.064,128.011,172.057Z" transform="translate(-25.029 -85.588)" fill="#330b7e"/>
      <path id="Path_506" data-name="Path 506" d="M139.549,202.149a1.739,1.739,0,0,0,.092-2.357c-8.551-10.038-11.767-23.194-8.6-35.2a15.657,15.657,0,0,0-11.147-19.134,15.652,15.652,0,0,0-19.134,11.147,67.235,67.235,0,0,0-1.9,10.545,1.739,1.739,0,1,0,3.46.343,64.1,64.1,0,0,1,1.8-10,12.18,12.18,0,0,1,23.554,6.212c-3.457,13.1.026,27.438,9.318,38.343a1.739,1.739,0,0,0,2.452.193Q139.5,202.2,139.549,202.149Z" transform="translate(-53.234 -124.073)" fill="#330b7e"/>
      <path id="Path_507" data-name="Path 507" d="M162.052,237.171a1.741,1.741,0,0,0,1.985,1.452,1.737,1.737,0,0,0,1.452-1.985,24.35,24.35,0,0,0-1.429-5.342c-2.965-7.4-10.594-11.263-20.255-16.146-8.453-4.273-18.036-9.116-25.214-17.544a68.585,68.585,0,0,1-16.337-40.256,1.74,1.74,0,1,0-3.475.2,72.089,72.089,0,0,0,17.161,42.314c7.635,8.961,17.547,13.971,26.3,18.394,9,4.552,16.115,8.148,18.593,14.334A21.064,21.064,0,0,1,162.052,237.171Z" transform="translate(-53.374 -103.833)" fill="#330b7e"/>
      <path id="Path_508" data-name="Path 508" d="M124.745,185.322a1.737,1.737,0,0,0-1.781,1.7c-.121,4.863-1.1,10.439-3.178,18.083a1.742,1.742,0,0,0,2.913,1.686,1.769,1.769,0,0,0,.447-.772c2.152-7.926,3.169-13.755,3.3-18.912A1.738,1.738,0,0,0,124.745,185.322Z" transform="translate(-13.966 -48.121)" fill="#330b7e"/>
      <path id="Path_509" data-name="Path 509" d="M144.336,194.284c-4.751-11.862-14.348-18.42-22.18-22.808a1.74,1.74,0,1,0-1.7,3.037c7.785,4.362,16.331,10.277,20.65,21.065,3.077,7.684,3.815,16.547,2.253,27.095a1.74,1.74,0,0,0,3.443.51C148.457,212.009,147.65,202.556,144.336,194.284Z" transform="translate(-14.267 -74.583)" fill="#330b7e"/>
      <path id="Path_510" data-name="Path 510" d="M148.73,212.214c-7.347-3.714-14.282-7.223-18.737-12.447-10.027-11.773-13.778-27.282-10.032-41.487a8.7,8.7,0,1,0-16.823-4.437,63.188,63.188,0,0,0,7.1,48.113,1.74,1.74,0,0,0,2.991-1.781,59.688,59.688,0,0,1-6.722-45.445,5.219,5.219,0,1,1,10.093,2.662c-4.037,15.308-.017,31.99,10.75,44.63,4.907,5.76,12.147,9.419,19.82,13.3Z" transform="translate(-48.885 -119.533)" fill="#330b7e"/>
      <path id="Path_511" data-name="Path 511" d="M149.912,198.189l.037-.037a1.74,1.74,0,0,0-.075-2.461c-4.6-4.33-10.779-7.454-17.328-10.764-8.252-4.172-16.783-8.485-23.056-15.844a1.739,1.739,0,1,0-2.648,2.256c6.725,7.892,15.576,12.366,24.139,16.7,6.313,3.19,12.274,6.206,16.509,10.191A1.738,1.738,0,0,0,149.912,198.189Z" transform="translate(-38.977 -79.822)" fill="#330b7e"/>
      <path id="Path_512" data-name="Path 512" d="M126.107,181.758a1.741,1.741,0,0,0-3.233,1.294c2.875,7.174,2.74,16.12-.435,29a1.74,1.74,0,0,0,2.919,1.648,1.723,1.723,0,0,0,.458-.815C128.081,203.71,130.158,191.877,126.107,181.758Z" transform="translate(-8.958 -56.882)" fill="#330b7e"/>
      <path id="Path_513" data-name="Path 513" d="M120.078,202.092a1.743,1.743,0,0,0,.092-2.357c-11.508-13.5-15.795-31.365-11.467-47.773a1.74,1.74,0,0,0-3.365-.887c-4.616,17.509-.063,36.545,12.182,50.917a1.74,1.74,0,0,0,2.455.2Q120.026,202.143,120.078,202.092Z" transform="translate(-44.358 -114.989)" fill="#330b7e"/>
      <path id="Path_514" data-name="Path 514" d="M153.876,200.446c-4.918-12.283-16.092-17.93-26.9-23.393a117.074,117.074,0,0,1-13.193-7.4,1.741,1.741,0,1,0-1.965,2.875,120.305,120.305,0,0,0,13.591,7.627c10.7,5.408,20.805,10.516,25.237,21.58,3.077,7.681,3.365,16.795.908,28.677a1.74,1.74,0,0,0,3.408.706C157.561,218.54,157.218,208.79,153.876,200.446Z" transform="translate(-30.267 -78.158)" fill="#330b7e"/>
    </g>
    <g id="Group_520" data-name="Group 520" transform="translate(376.186 256.046)">
      <path id="Path_515" data-name="Path 515" d="M161.355,158.305c-1.2-2.409-2.342-4.849-3.385-7.249a1.741,1.741,0,0,0-1.357-1.031c-3.57-.493-7.134-1.158-10.591-1.974a1.741,1.741,0,1,0-.8,3.388c3.253.769,6.6,1.406,9.949,1.9.957,2.167,1.988,4.356,3.069,6.523a1.742,1.742,0,0,0,3.117-1.556Z" transform="translate(-121.713 -6.732)" fill="#ffac45"/>
      <path id="Path_516" data-name="Path 516" d="M177.288,168.535a149.143,149.143,0,0,1-8.37-17.365,1.737,1.737,0,0,0-1.438-1.08,107.707,107.707,0,0,1-24.513-5.445,1.742,1.742,0,0,0-1.147,3.29,110.994,110.994,0,0,0,24.263,5.506,152.482,152.482,0,0,0,8.171,16.806,1.742,1.742,0,0,0,3.034-1.711Z" transform="translate(-127.786 -13.236)" fill="#ffac45"/>
      <path id="Path_517" data-name="Path 517" d="M189.76,137.131a26.674,26.674,0,0,0,.862,2.9,1.741,1.741,0,0,0,2.227,1.052,1.744,1.744,0,0,0,1.052-2.227,22.4,22.4,0,0,1-.746-2.512,26.584,26.584,0,0,1-.5-8.727,1.742,1.742,0,0,0-3.466-.352A30.13,30.13,0,0,0,189.76,137.131Z" transform="translate(-36.793 -48.7)" fill="#ffac45"/>
      <path id="Path_518" data-name="Path 518" d="M191.2,132.2a44.592,44.592,0,0,0-1.573,4.382,1.742,1.742,0,1,0,3.336,1,41.194,41.194,0,0,1,1.449-4.042,65.045,65.045,0,0,0,4.2-14.562,1.74,1.74,0,0,0-3.434-.565A61.655,61.655,0,0,1,191.2,132.2Z" transform="translate(-35.792 -65.141)" fill="#ffac45"/>
      <path id="Path_519" data-name="Path 519" d="M155.088,148.235a1.74,1.74,0,0,0-1.176-2.164,100.551,100.551,0,0,1-12.94-4.835,1.742,1.742,0,1,0-1.441,3.172,103.808,103.808,0,0,0,13.392,5A1.741,1.741,0,0,0,155.088,148.235Z" transform="translate(-131.816 -19.755)" fill="#ffac45"/>
      <path id="Path_520" data-name="Path 520" d="M178.328,172.782a141.084,141.084,0,0,1-12.666-25.8,1.736,1.736,0,0,0-1.516-1.135l-1.288-.089a102.071,102.071,0,0,1-15.708-2.409,1.742,1.742,0,0,0-.8,3.391,105.744,105.744,0,0,0,16.256,2.492l.181.012a144.526,144.526,0,0,0,12.585,25.384,1.741,1.741,0,1,0,2.953-1.844Z" transform="translate(-119.586 -15.579)" fill="#ffac45"/>
      <path id="Path_521" data-name="Path 521" d="M193.344,111.478a53.758,53.758,0,0,1-3.017,32.3c-2.576,6.143-5.155,15.576-2.8,25.654a33.609,33.609,0,0,0,3.581,9.018,1.694,1.694,0,0,0,.282.366,1.741,1.741,0,0,0,2.74-2.1,30.142,30.142,0,0,1-3.213-8.082c-2.144-9.168.242-17.846,2.619-23.511a57.251,57.251,0,0,0,3.21-34.379,1.742,1.742,0,0,0-3.406.735Z" transform="translate(-41.342 -79.412)" fill="#ffac45"/>
      <path id="Path_522" data-name="Path 522" d="M183.164,105.194a46.665,46.665,0,0,1,8.024,49.188c-2.971,7.091-5.932,18.039-3.161,29.927a41.387,41.387,0,0,0,5.944,13.539,1.65,1.65,0,0,0,.219.265,1.741,1.741,0,0,0,2.68-2.2,37.831,37.831,0,0,1-5.451-12.4c-2.559-10.977.21-21.171,2.982-27.789a50.122,50.122,0,0,0-8.621-52.833,1.741,1.741,0,1,0-2.616,2.3Z" transform="translate(-48.628 -92.709)" fill="#ffac45"/>
      <path id="Path_523" data-name="Path 523" d="M152.24,120.507c.766.885,1.539,1.853,2.279,2.852a8.684,8.684,0,0,0,.85.962,10.028,10.028,0,0,0,1.593,1.322,1.74,1.74,0,0,0,1.685.118,10.7,10.7,0,0,0,4.575-5.261,46.717,46.717,0,0,1,13.461-17.146,1.743,1.743,0,0,0-2.161-2.734,50.225,50.225,0,0,0-14.464,18.428,9.3,9.3,0,0,1-2.072,2.962c-.049-.046-.1-.1-.156-.15a6.59,6.59,0,0,1-.5-.547c-.81-1.1-1.639-2.135-2.463-3.089a1.742,1.742,0,0,0-2.633,2.282Z" transform="translate(-106.783 -96.574)" fill="#ffac45"/>
      <path id="Path_524" data-name="Path 524" d="M201.747,183.849a133.9,133.9,0,0,1-16.29-33.065,1.74,1.74,0,0,0-1.628-1.2c-1.907-.029-3.82-.112-5.682-.245a93.761,93.761,0,0,1-38.4-11.424,1.742,1.742,0,1,0-1.68,3.051,97.218,97.218,0,0,0,39.827,11.845c1.53.109,3.089.187,4.65.23A137.453,137.453,0,0,0,198.863,185.8a1.742,1.742,0,1,0,2.884-1.953Z" transform="translate(-134.35 -26.11)" fill="#ffac45"/>
      <path id="Path_525" data-name="Path 525" d="M155.732,130.306a1.736,1.736,0,0,0-.354,2.435,1.816,1.816,0,0,0,.164.193,1.743,1.743,0,0,0,2.273.161,19.1,19.1,0,0,0,5.7-7.3,40.053,40.053,0,0,1,73.356,32.157c-3.368,8.039-6.713,20.494-3.515,34.2a48.507,48.507,0,0,0,7.9,17.224,1.741,1.741,0,1,0,2.832-2.026,45.053,45.053,0,0,1-7.344-15.994c-2.985-12.8.167-24.5,3.336-32.062a43.537,43.537,0,0,0-79.738-34.952A15.575,15.575,0,0,1,155.732,130.306Z" transform="translate(-100.735 -98.972)" fill="#ffac45"/>
      <path id="Path_526" data-name="Path 526" d="M160.566,114.917c-.9-.066-2.533-.815-4.431-2.711a13.874,13.874,0,0,1-1.161-1.314l-.012-.012c-.588-.8-1.19-1.562-1.795-2.273a1.742,1.742,0,0,0-2.656,2.253c.559.654,1.115,1.363,1.66,2.1l.04.049a17.2,17.2,0,0,0,1.464,1.657c2.247,2.247,4.6,3.57,6.633,3.723a1.742,1.742,0,0,0,.259-3.475Z" transform="translate(-110.012 -81.995)" fill="#ffac45"/>
      <path id="Path_527" data-name="Path 527" d="M211.232,189.414a127.2,127.2,0,0,1-19.258-39.484,1.737,1.737,0,0,0-1.749-1.256,85.079,85.079,0,0,1-10.182-.161,86.859,86.859,0,0,1-40.931-13.787,1.743,1.743,0,0,0-2.175,2.7,1.78,1.78,0,0,0,.291.233,90.355,90.355,0,0,0,42.553,14.331,89.489,89.489,0,0,0,9.228.216,130.725,130.725,0,0,0,19.4,39.251,1.741,1.741,0,1,0,2.821-2.04Z" transform="translate(-135.73 -32.231)" fill="#ffac45"/>
      <path id="Path_528" data-name="Path 528" d="M251.583,207.771a52.285,52.285,0,0,1-9.119-19.373c-3.406-14.6.133-27.818,3.7-36.332A36.574,36.574,0,0,0,179.178,122.7c-3.388,7.4-9.779,12.055-15.907,11.594-3.659-.271-6.823-2.723-8.831-4.731a18.8,18.8,0,0,1-1.85-2.121c-.363-.484-.735-.971-1.124-1.441a1.741,1.741,0,1,0-2.685,2.216c.349.424.686.864,1.006,1.294a23.129,23.129,0,0,0,2.19,2.515c2.426,2.426,6.31,5.391,11.035,5.739,7.572.57,15.343-4.9,19.336-13.617a33.236,33.236,0,0,1,43.371-16.527,33.078,33.078,0,0,1,17.233,43.094c-3.766,8.987-7.494,22.958-3.878,38.47a55.686,55.686,0,0,0,9.718,20.661,1.741,1.741,0,1,0,2.792-2.08Z" transform="translate(-113.242 -94.428)" fill="#ffac45"/>
      <path id="Path_529" data-name="Path 529" d="M219.277,193.777a120.4,120.4,0,0,1-21.569-45.336,1.744,1.744,0,0,0-1.89-1.325,79.86,79.86,0,0,1-14.8.279,80.572,80.572,0,0,1-42.066-15.708,1.741,1.741,0,0,0-2.259,2.636,1.722,1.722,0,0,0,.2.176,83.983,83.983,0,0,0,43.861,16.368,82.906,82.906,0,0,0,13.922-.135,123.877,123.877,0,0,0,21.825,45.157,1.741,1.741,0,0,0,2.769-2.112Z" transform="translate(-136.186 -38.058)" fill="#ffac45"/>
      <path id="Path_530" data-name="Path 530" d="M249.829,208.182a59.362,59.362,0,0,1-10.911-22.747c-3.829-16.423.089-31.149,4.054-40.608a29.606,29.606,0,0,0-54.222-23.773c-4.59,10.035-13.735,16.322-22.759,15.648-5.794-.432-10.4-3.913-13.242-6.756a25.724,25.724,0,0,1-2.53-2.913c-.144-.2-.291-.386-.441-.579a1.741,1.741,0,1,0-2.749,2.138c.127.164.254.328.377.5a29.34,29.34,0,0,0,2.878,3.322c3.262,3.262,8.586,7.255,15.446,7.768,10.47.784,20.993-6.319,26.185-17.671A26.244,26.244,0,0,1,226.16,109.46a26.117,26.117,0,0,1,13.6,34.019c-4.163,9.937-8.275,25.418-4.233,42.749A62.728,62.728,0,0,0,247.069,210.3a1.74,1.74,0,0,0,2.76-2.121Z" transform="translate(-116.478 -89.884)" fill="#ffac45"/>
      <path id="Path_531" data-name="Path 531" d="M226.037,197.018a113.869,113.869,0,0,1-21.992-45.241c-.435-1.876-.824-3.766-1.158-5.621a1.741,1.741,0,0,0-2.049-1.4,73.18,73.18,0,0,1-19.6,1.193c-15.354-1.15-29.5-6.912-42.043-17.129a1.74,1.74,0,0,0-2.331,2.579,1.328,1.328,0,0,0,.133.121c13.1,10.675,27.9,16.7,43.982,17.9a76.519,76.519,0,0,0,18.806-.931c.265,1.354.559,2.72.873,4.077a117.3,117.3,0,0,0,22.658,46.615,1.741,1.741,0,1,0,2.726-2.167Z" transform="translate(-135.878 -43.558)" fill="#ffac45"/>
      <path id="Path_532" data-name="Path 532" d="M145.287,129a37.772,37.772,0,0,0,3.322,3.786c4.094,4.094,10.859,9.113,19.849,9.785,13.36.994,26.637-7.73,33.042-21.71a19.248,19.248,0,0,1,25.113-9.566,19.142,19.142,0,0,1,9.972,24.946c-4.561,10.885-9.061,27.879-4.6,47.022a69.72,69.72,0,0,0,13.383,27.47,1.742,1.742,0,0,0,2.734-2.158,66.292,66.292,0,0,1-12.726-26.1c-4.253-18.238.055-34.477,4.42-44.887a22.64,22.64,0,0,0-41.467-18.175c-5.8,12.663-17.7,20.575-29.613,19.684-7.923-.588-13.968-5.1-17.647-8.773a34.054,34.054,0,0,1-3.005-3.426,1.742,1.742,0,0,0-2.778,2.1Z" transform="translate(-119.725 -85.337)" fill="#ffac45"/>
      <path id="Path_533" data-name="Path 533" d="M231.652,199.231a107.123,107.123,0,0,1-21.788-43.867,109.579,109.579,0,0,1-2.158-12.553,1.754,1.754,0,0,0-.775-1.262,1.736,1.736,0,0,0-1.467-.207,66.892,66.892,0,0,1-24.678,2.824c-18.881-1.406-32.728-10.583-41.02-18.036a1.741,1.741,0,0,0-2.394,2.527l.066.063c8.7,7.817,23.228,17.44,43.089,18.918a70.125,70.125,0,0,0,23.966-2.386c.481,3.653,1.144,7.31,1.977,10.9a110.619,110.619,0,0,0,22.488,45.287,1.742,1.742,0,0,0,2.694-2.21Z" transform="translate(-134.912 -48.723)" fill="#ffac45"/>
      <path id="Path_534" data-name="Path 534" d="M143.594,129.463a45.914,45.914,0,0,0,3.331,3.711c4.927,4.924,13.133,10.972,24.254,11.8,16.25,1.21,32.284-9.142,39.9-25.758a12.254,12.254,0,0,1,15.979-6.091A12.19,12.19,0,0,1,233.4,129.01c-4.961,11.827-9.845,30.328-4.95,51.3a76.569,76.569,0,0,0,15.21,30.858,1.742,1.742,0,1,0,2.711-2.187,73.124,73.124,0,0,1-14.53-29.463c-4.685-20.065.009-37.807,4.771-49.162a15.674,15.674,0,0,0-28.706-12.588c-7.01,15.3-21.667,24.839-36.47,23.736-10.056-.752-17.541-6.284-22.05-10.793a41.953,41.953,0,0,1-3.074-3.426,1.742,1.742,0,0,0-2.72,2.178Z" transform="translate(-122.968 -80.795)" fill="#ffac45"/>
      <path id="Path_535" data-name="Path 535" d="M236.2,200.454a100.569,100.569,0,0,1-21.073-41.873,102.451,102.451,0,0,1-2.639-20.667,1.741,1.741,0,0,0-2.472-1.536,61.231,61.231,0,0,1-30.23,5.644c-18.212-1.357-31.348-10.756-39.162-18.4a1.742,1.742,0,0,0-2.449,2.478l.014.014c8.226,8.047,22.076,17.944,41.334,19.382a64.48,64.48,0,0,0,29.579-4.912,105.8,105.8,0,0,0,2.633,18.788,104.017,104.017,0,0,0,21.791,43.313,1.742,1.742,0,0,0,2.674-2.233Z" transform="translate(-133.394 -53.528)" fill="#ffac45"/>
      <path id="Path_536" data-name="Path 536" d="M145.2,133.606c5.774,5.774,15.386,12.781,28.616,13.772,19.143,1.435,37.926-10.542,46.739-29.8a5.225,5.225,0,0,1,9.569,4.2c-5.353,12.784-10.623,32.8-5.307,55.573a83.7,83.7,0,0,0,17.054,34.24,1.742,1.742,0,0,0,2.694-2.21,80.207,80.207,0,0,1-16.354-32.82c-5.105-21.866-.032-41.129,5.126-53.435a8.708,8.708,0,0,0-15.948-7c-8.211,17.941-25.617,29.106-43.313,27.781-14.867-1.115-24.836-10.56-29.458-16.095a1.742,1.742,0,0,0-2.674,2.233C142.842,131.119,143.928,132.332,145.2,133.606Z" transform="translate(-126.116 -76.251)" fill="#ffac45"/>
      <path id="Path_537" data-name="Path 537" d="M239.846,200.813a93.734,93.734,0,0,1-19.88-39.283,95.74,95.74,0,0,1-2-31.3,1.743,1.743,0,0,0-2.763-1.579,55.631,55.631,0,0,1-36.839,10.96c-17.4-1.305-29.674-10.989-36.563-18.2a1.69,1.69,0,0,0-2.564-.127,1.813,1.813,0,0,0,.069,2.556l.006.006c.395.412.807.836,1.236,1.265,7.477,7.477,20.062,16.665,37.557,17.976a58.672,58.672,0,0,0,36.1-9.517,99.006,99.006,0,0,0,2.374,28.757,97.17,97.17,0,0,0,20.609,40.732,1.741,1.741,0,1,0,2.665-2.242Z" transform="translate(-131.443 -58.059)" fill="#ffac45"/>
      <path id="Path_538" data-name="Path 538" d="M242.443,209.755a87,87,0,0,1-18.2-36.159c-5.532-23.692-.066-44.463,5.494-57.714a1.742,1.742,0,0,0-3.19-1.4c-9.424,20.575-29.587,33.365-50.174,31.826-16.619-1.245-27.994-11.456-33.3-17.434a1.72,1.72,0,0,0-2.458-.147,1.738,1.738,0,0,0-.147,2.458c.72.813,1.547,1.7,2.478,2.631,6.365,6.365,17.6,14.8,33.163,15.965,17.235,1.291,34.174-6.754,45.532-20.805a94.493,94.493,0,0,0-.8,45.414,90.532,90.532,0,0,0,18.915,37.6,1.743,1.743,0,0,0,2.677-2.233Z" transform="translate(-128.941 -71.706)" fill="#ffac45"/>
    </g>
    <g id="Group_521" data-name="Group 521" transform="translate(51.042 230.24)">
      <path id="Path_539" data-name="Path 539" d="M44.911,145.71a128.376,128.376,0,0,1-13.931-8.246,1.742,1.742,0,0,0-2.213,2.671,1.64,1.64,0,0,0,.254.21,132.643,132.643,0,0,0,14.308,8.471,1.743,1.743,0,0,0,1.582-3.106Z" transform="translate(-14.077 -1.319)" fill="#ffac45"/>
      <path id="Path_540" data-name="Path 540" d="M80.4,150.3a130.544,130.544,0,0,1-42.213-8.56,1.741,1.741,0,0,0-1.853,2.858,1.682,1.682,0,0,0,.608.395,134.5,134.5,0,0,0,13,4.233,134.259,134.259,0,0,0,30.339,4.558A1.743,1.743,0,1,0,80.4,150.3Z" transform="translate(0.159 7.078)" fill="#ffac45"/>
      <path id="Path_541" data-name="Path 541" d="M70.484,158.839a1.741,1.741,0,0,0-1.069-2.219A122.7,122.7,0,0,1,27.84,131.94a1.741,1.741,0,0,0-2.394,2.527l.069.066A126.086,126.086,0,0,0,68.266,159.9,1.738,1.738,0,0,0,70.484,158.839Z" transform="translate(-20.329 -11.984)" fill="#ffac45"/>
      <path id="Path_542" data-name="Path 542" d="M83.154,144.768a123.728,123.728,0,0,1-37.47-3.357,1.741,1.741,0,1,0-.836,3.38,127.05,127.05,0,0,0,38.525,3.452,1.741,1.741,0,1,0-.219-3.475Z" transform="translate(14.639 6.574)" fill="#ffac45"/>
      <path id="Path_543" data-name="Path 543" d="M51.834,150.257a1.738,1.738,0,0,0-.553-2.4,119.862,119.862,0,0,1-21.226-16.942c-1.118-1.118-2.233-2.276-3.408-3.544a1.742,1.742,0,1,0-2.553,2.371c1.2,1.3,2.348,2.487,3.5,3.636a123.376,123.376,0,0,0,21.845,17.431A1.739,1.739,0,0,0,51.834,150.257Z" transform="translate(-22.787 -20.784)" fill="#ffac45"/>
      <path id="Path_544" data-name="Path 544" d="M111.794,148.542a1.743,1.743,0,0,0-2-1.441,116.392,116.392,0,0,1-53.743-3.754,115.894,115.894,0,0,1-18.215-7.428,1.743,1.743,0,0,0-2.025,2.783,1.8,1.8,0,0,0,.438.32,120.191,120.191,0,0,0,74.1,11.519A1.743,1.743,0,0,0,111.794,148.542Z" transform="translate(-0.822 -4.018)" fill="#ffac45"/>
      <path id="Path_545" data-name="Path 545" d="M143.4,163.791a1.746,1.746,0,0,0-2.121-1.256,111.187,111.187,0,0,1-60.632-1.423,109.338,109.338,0,0,1-45.111-27.472,117.24,117.24,0,0,1-9.087-10.223,1.742,1.742,0,0,0-2.734,2.158A121.069,121.069,0,0,0,33.068,136.1a112.751,112.751,0,0,0,46.537,28.334,114.656,114.656,0,0,0,62.534,1.472A1.742,1.742,0,0,0,143.4,163.791Z" transform="translate(-23.336 -28.429)" fill="#ffac45"/>
      <path id="Path_546" data-name="Path 546" d="M52.28,94.253a1.611,1.611,0,0,0,.3.239,59.738,59.738,0,0,1,8.1,6.189,1.742,1.742,0,0,0,2.314.026,60.48,60.48,0,0,1,10.686-7.419,1.742,1.742,0,0,0-1.665-3.06,63.855,63.855,0,0,0-10.136,6.86,63.186,63.186,0,0,0-7.431-5.535,1.741,1.741,0,0,0-2.167,2.7Z" transform="translate(30.156 -90.015)" fill="#ffac45"/>
      <path id="Path_547" data-name="Path 547" d="M80.992,164.582c23.254,7.249,47.932,6.333,71.365-2.648a1.742,1.742,0,1,0-1.248-3.253c-22.692,8.7-46.581,9.589-69.08,2.576A102.449,102.449,0,0,1,39.768,135.51a110.977,110.977,0,0,1-10.632-12.332c-.752-1.008-1.5-2.095-2.221-3.233a1.742,1.742,0,0,0-2.942,1.867c.769,1.213,1.567,2.371,2.368,3.446A114.71,114.71,0,0,0,37.3,137.974,105.922,105.922,0,0,0,80.992,164.582Z" transform="translate(-22.649 -35.227)" fill="#ffac45"/>
      <path id="Path_548" data-name="Path 548" d="M56.2,105.736l.043.043a1.744,1.744,0,0,0,2.42.043,53.323,53.323,0,0,1,19.5-11.637,1.742,1.742,0,1,0-1.112-3.3,56.814,56.814,0,0,0-20.762,12.392A1.743,1.743,0,0,0,56.2,105.736Z" transform="translate(37.605 -88.556)" fill="#ffac45"/>
      <path id="Path_549" data-name="Path 549" d="M49.062,94.4a1.8,1.8,0,0,0,.473.337,52.878,52.878,0,0,1,14.36,10.22,1.742,1.742,0,1,0,2.463-2.463A56.37,56.37,0,0,0,51.056,91.6a1.742,1.742,0,0,0-1.994,2.8Z" transform="translate(24.102 -87.368)" fill="#ffac45"/>
      <path id="Path_550" data-name="Path 550" d="M40.536,139.431a98.994,98.994,0,0,0,40.836,24.888c26.836,8.361,56.613,4.774,82.155-9.8,1.265-.712,3.962-1.766,3.236-3.607a1.749,1.749,0,0,0-2.518-.853c-25.237,15.294-55.066,19.278-81.835,10.94A95.55,95.55,0,0,1,43,136.968a104.736,104.736,0,0,1-9.966-11.554,47.377,47.377,0,0,1-5.1-8.647,1.741,1.741,0,0,0-3.172,1.438,50.8,50.8,0,0,0,5.48,9.286A108.279,108.279,0,0,0,40.536,139.431Z" transform="translate(-20.954 -41.612)" fill="#ffac45"/>
      <path id="Path_551" data-name="Path 551" d="M57.123,107.619a1.74,1.74,0,0,0,.032,2.429l.035.032a1.74,1.74,0,0,0,2.461-.063A47.129,47.129,0,0,1,87.5,95.812a1.743,1.743,0,0,0-.461-3.455A50.65,50.65,0,0,0,57.123,107.619Z" transform="translate(39.325 -85.639)" fill="#ffac45"/>
      <path id="Path_552" data-name="Path 552" d="M45.739,93.9a1.748,1.748,0,0,0,1.049,2.3A46.2,46.2,0,0,1,64.5,107.273a47.253,47.253,0,0,1,4.512,5.224,1.741,1.741,0,0,0,2.8-2.074,50.536,50.536,0,0,0-4.849-5.613A49.659,49.659,0,0,0,48.024,92.948,1.749,1.749,0,0,0,45.739,93.9Z" transform="translate(18.569 -84.763)" fill="#ffac45"/>
      <path id="Path_553" data-name="Path 553" d="M42.8,140.5a92.139,92.139,0,0,0,37.98,23.159c32.056,9.986,67.38,1.781,94.5-21.952a1.743,1.743,0,0,0-2.3-2.622c-26.193,22.929-60.272,30.872-91.162,21.246a88.659,88.659,0,0,1-36.554-22.295,97.944,97.944,0,0,1-9.3-10.782,39.826,39.826,0,0,1-6.52-13.409,1.741,1.741,0,1,0-3.362.9,43.333,43.333,0,0,0,7.085,14.582A101.784,101.784,0,0,0,42.8,140.5Z" transform="translate(-18.29 -47.607)" fill="#ffac45"/>
      <path id="Path_554" data-name="Path 554" d="M43.457,97.554a1.727,1.727,0,0,0,.882.475,39.837,39.837,0,0,1,24.1,15.285,17.013,17.013,0,0,0,1.622,1.884,9.633,9.633,0,0,0,3.751,2.475c3.815,1.19,10.764-.856,16.662-7.068A39.869,39.869,0,0,1,123.431,98.34a1.741,1.741,0,1,0,.334-3.466,43.331,43.331,0,0,0-35.814,13.331c-5.166,5.443-10.77,6.869-13.1,6.143a6.083,6.083,0,0,1-2.325-1.614,13.328,13.328,0,0,1-1.291-1.5,43.3,43.3,0,0,0-26.2-16.619,1.74,1.74,0,0,0-1.576,2.939Z" transform="translate(13.55 -81.428)" fill="#ffac45"/>
      <path id="Path_555" data-name="Path 555" d="M44.07,141.19A85.225,85.225,0,0,0,79.2,162.626c32.829,10.231,69.247-.294,95.046-27.467.781-.818,1.536-1.694,2.314-2.674a1.742,1.742,0,1,0-2.705-2.2c-.717.91-1.415,1.717-2.132,2.469-24.879,26.2-59.932,36.375-91.485,26.539a81.727,81.727,0,0,1-33.7-20.572,89.953,89.953,0,0,1-8.626-10.009A32.853,32.853,0,0,1,31.442,111.2a1.742,1.742,0,0,0-3.478.225,36.355,36.355,0,0,0,7.145,19.368A93.476,93.476,0,0,0,44.07,141.19Z" transform="translate(-14.637 -53.221)" fill="#ffac45"/>
      <path id="Path_556" data-name="Path 556" d="M41.068,99.685a1.739,1.739,0,0,0,1.155.507,32.87,32.87,0,0,1,25.11,13.268,23.837,23.837,0,0,0,2.291,2.651,16.233,16.233,0,0,0,6.61,4.2c7.065,2.207,16.622-1.38,23.779-8.926a33.234,33.234,0,0,1,37.292-7.523,1.742,1.742,0,0,0,1.395-3.192,36.723,36.723,0,0,0-41.21,8.318c-6.267,6.6-14.389,9.819-20.22,8a12.817,12.817,0,0,1-5.18-3.334,20.8,20.8,0,0,1-1.956-2.265A36.331,36.331,0,0,0,42.376,96.714a1.742,1.742,0,0,0-1.308,2.971Z" transform="translate(9.064 -77.416)" fill="#ffac45"/>
      <path id="Path_557" data-name="Path 557" d="M36.2,145.7a87.045,87.045,0,0,0,8.3,9.62,78.334,78.334,0,0,0,32.278,19.713c30.267,9.433,63.954-.38,87.915-25.617a29.344,29.344,0,0,0,8.171-21.4l0-.334-.017-.052a29.067,29.067,0,0,0-2.27-10.015c-.179-.424-.372-.841-.573-1.259l-.107-.305-.089-.092a29.7,29.7,0,0,0-5.656-7.863c-.167-.167-.334-.334-.545-.533a29.649,29.649,0,0,0-41.858,1.089c-8.177,8.615-18.912,12.481-27.351,9.851a18.749,18.749,0,0,1-6.408-3.578,1.742,1.742,0,0,0-2.23,2.677,22.252,22.252,0,0,0,7.6,4.227c9.7,3.025,21.831-1.207,30.913-10.779a26.167,26.167,0,0,1,36.934-.962c.187.176.328.32.481.473a26.2,26.2,0,0,1,5.085,7.117,61.72,61.72,0,0,1,2.616,10.5,25.941,25.941,0,0,1-7.22,18.852c-23.038,24.266-55.36,33.725-84.351,24.686a74.848,74.848,0,0,1-30.852-18.846A83.772,83.772,0,0,1,39,143.625a25.959,25.959,0,0,1-4.878-19.379c.092-.611.2-1.222.334-1.809a1.741,1.741,0,1,0-3.4-.743c-.144.66-.271,1.346-.377,2.04A29.43,29.43,0,0,0,36.2,145.7Z" transform="translate(-10.135 -72.28)" fill="#ffac45"/>
      <path id="Path_558" data-name="Path 558" d="M37.976,101.873a1.743,1.743,0,0,0,2.072,1.334A26.444,26.444,0,0,1,64.166,110.2a25.839,25.839,0,0,1,2.51,2.907,1.743,1.743,0,1,0,2.8-2.074A29.559,29.559,0,0,0,39.31,99.8,1.746,1.746,0,0,0,37.976,101.873Z" transform="translate(4.13 -72.912)" fill="#ffac45"/>
      <path id="Path_559" data-name="Path 559" d="M87.771,121.234a26.6,26.6,0,0,1-10.888-6.785,34.347,34.347,0,0,1-3.287-3.818,23.266,23.266,0,0,0-2.175-2.521,22.76,22.76,0,0,0-29.5-2.152,22.634,22.634,0,0,0-4.673,31.67,80.305,80.305,0,0,0,7.629,8.848,71.424,71.424,0,0,0,29.42,17.987C102.01,173.1,132.968,164,155.085,140.7a22.518,22.518,0,0,0-.418-31.6c-.13-.13-.259-.256-.415-.406a22.67,22.67,0,0,0-32.007.833C112.252,120.052,98.719,124.648,87.771,121.234Zm37-9.309a19.185,19.185,0,0,1,27.083-.706c.13.127.242.233.352.346a19.055,19.055,0,0,1,.354,26.741c-21.194,22.327-50.787,31.074-77.228,22.834a67.963,67.963,0,0,1-27.994-17.126,76.5,76.5,0,0,1-7.3-8.462,19.154,19.154,0,0,1,3.956-26.8,19.14,19.14,0,0,1,26.8,3.956,38.214,38.214,0,0,0,3.622,4.2,30.088,30.088,0,0,0,12.314,7.647C98.941,128.365,113.872,123.406,124.769,111.925Z" transform="translate(-5.585 -68.361)" fill="#ffac45"/>
      <path id="Path_560" data-name="Path 560" d="M63.451,110.245a15.593,15.593,0,0,0-1.507-1.749,15.752,15.752,0,0,0-20.422-1.487,15.669,15.669,0,0,0-3.236,21.926,72.944,72.944,0,0,0,6.964,8.073,63.654,63.654,0,0,0,43.109,19.1,1.742,1.742,0,0,0,.135-3.481,60.2,60.2,0,0,1-40.781-18.085,69.436,69.436,0,0,1-6.633-7.687A12.189,12.189,0,0,1,43.6,109.8a12.249,12.249,0,0,1,15.881,1.155,12.4,12.4,0,0,1,1.176,1.363,44.712,44.712,0,0,0,4.29,4.973,36.9,36.9,0,0,0,15.164,9.373c14.723,4.59,32.451-1.095,45.163-14.487a12.2,12.2,0,0,1,17.233-.45c.081.075.153.147.225.216a12.129,12.129,0,0,1,.228,17.019C130,142.612,113.468,150.945,96.4,152.437a1.741,1.741,0,1,0,.3,3.469c17.918-1.565,35.24-10.28,48.779-24.539a15.592,15.592,0,0,0-.288-21.88c-.092-.092-.184-.181-.288-.279a15.694,15.694,0,0,0-22.159.573c-11.8,12.438-28.132,17.76-41.6,13.562a33.444,33.444,0,0,1-13.738-8.511A41.513,41.513,0,0,1,63.451,110.245Z" transform="translate(-1.036 -63.82)" fill="#ffac45"/>
      <path id="Path_561" data-name="Path 561" d="M74.526,125.462c-10.352-3.224-17.253-10.26-21.217-15.6a8.707,8.707,0,1,0-13.98,10.384,65.892,65.892,0,0,0,6.3,7.3A57.6,57.6,0,0,0,69.343,142.09c22.609,7.047,48.1-.634,66.539-20.05a8.708,8.708,0,0,0-12.631-11.992C109.631,124.393,90.505,130.447,74.526,125.462Zm51.251-13.014a5.224,5.224,0,1,1,7.578,7.194c-17.512,18.446-41.645,25.773-62.975,19.123A54.179,54.179,0,0,1,48.088,125.09a62.685,62.685,0,0,1-5.964-6.918,5.225,5.225,0,0,1,7.88-6.82,5.606,5.606,0,0,1,.51.591c4.273,5.751,11.729,13.34,22.975,16.847C90.727,134.163,111.25,127.747,125.777,112.448Z" transform="translate(3.514 -59.29)" fill="#ffac45"/>
      <path id="Path_562" data-name="Path 562" d="M64.682,122.467a1.944,1.944,0,0,0,.242.305,1.747,1.747,0,0,0,2.161.239A69.524,69.524,0,0,0,80.4,112.048a1.74,1.74,0,0,0-2.524-2.4,66.124,66.124,0,0,1-12.651,10.413A1.744,1.744,0,0,0,64.682,122.467Z" transform="translate(53.94 -54.096)" fill="#ffac45"/>
      <path id="Path_563" data-name="Path 563" d="M43.167,109.471a1.741,1.741,0,1,0-2.795,2.077A59.3,59.3,0,0,0,46,118.071,50.937,50.937,0,0,0,66.865,130.89c11.732,3.656,24.974,2.74,37.292-2.584a1.74,1.74,0,1,0-1.38-3.2c-11.554,4.99-23.937,5.863-34.874,2.455C55.757,123.776,47.748,115.634,43.167,109.471Z" transform="translate(8.063 -54.74)" fill="#ffac45"/>
    </g>
    <g id="Group_522" data-name="Group 522" transform="translate(211.569 147.235)">
      <path id="Path_564" data-name="Path 564" d="M122.708,107.688a1.74,1.74,0,1,0-2.461-2.461c-4.509,4.506-5.915,9.9-3.276,12.536S125,119,129.511,114.491s5.915-9.9,3.273-12.539a1.742,1.742,0,0,0-2.463,2.463c.864.864,0,4.339-3.273,7.612s-6.748,4.137-7.612,3.273S119.438,110.962,122.708,107.688Z" transform="translate(-10.209 14.487)" fill="#330b7e"/>
      <path id="Path_565" data-name="Path 565" d="M117.113,113.986a33.462,33.462,0,0,0-3.443,6.319c-2.357,5.826-2.04,10.839.87,13.752,5.195,5.195,16.731,1.8,26.262-7.736s12.931-21.067,7.736-26.262c-4.028-4.025-11.911-3.014-20.082,2.579a1.742,1.742,0,0,0,1.968,2.875c6.514-4.46,12.951-5.69,15.651-2.991,3.285,3.285.959,12.643-7.733,21.338S120.288,134.877,117,131.593c-1.847-1.847-1.887-5.581-.1-9.983a30.158,30.158,0,0,1,3.086-5.659,1.74,1.74,0,1,0-2.873-1.965Z" transform="translate(-16.871 7.288)" fill="#330b7e"/>
      <path id="Path_566" data-name="Path 566" d="M111.387,128.228c-4.014,9.243-3.746,17.114.735,21.595,7.791,7.791,25.355,2.435,39.986-12.2s19.987-32.195,12.2-39.986-25.358-2.438-39.988,12.193a67.342,67.342,0,0,0-8.356,10.113,1.741,1.741,0,1,0,2.893,1.939,63.968,63.968,0,0,1,7.926-9.589C139.586,99.49,155.643,93.907,161.84,100.1s.611,22.252-12.2,35.059-28.861,18.394-35.059,12.2c-3.365-3.365-3.365-10,0-17.745a1.741,1.741,0,0,0-3.2-1.386Z" transform="translate(-23.543 0.615)" fill="#330b7e"/>
      <path id="Path_567" data-name="Path 567" d="M126.372,111.888c-19.728,19.728-27.043,43.319-16.653,53.709a13.44,13.44,0,0,0,1.276,1.127,1.741,1.741,0,1,0,2.126-2.757,9.833,9.833,0,0,1-.939-.833c-8.707-8.707-1.08-31.048,16.653-48.782s40.078-25.366,48.785-16.659,1.083,31.054-16.653,48.791c-9.364,9.364-20.33,16.3-30.089,19.028a1.741,1.741,0,0,0,.939,3.354c10.315-2.884,21.84-10.145,31.613-19.918,19.731-19.731,27.043-43.325,16.653-53.717S146.1,92.16,126.372,111.888Z" transform="translate(-30.232 -6.069)" fill="#330b7e"/>
      <path id="Path_568" data-name="Path 568" d="M154.233,99.874c-3.939,11.928-12.283,24.669-23.493,35.88-2.08,2.083-4.267,4.112-6.5,6.036-.032.023-.052.052-.084.078a1.286,1.286,0,0,0-.121.1l-.043.052c-.029.035-.055.066-.081.1a1.807,1.807,0,0,0-.15.216l-.029.055a1.737,1.737,0,0,0,.049,1.709l.017.035a1.91,1.91,0,0,0,.236.3,1.717,1.717,0,0,0,.4.3,1.59,1.59,0,0,0,.15.058,1.746,1.746,0,0,0,.3.112c.061.014.124.009.187.017a1.015,1.015,0,0,0,.487-.014,1.83,1.83,0,0,0,.245-.046l.026-.012.023-.006a1.83,1.83,0,0,0,.314-.147c.026-.017.046-.035.072-.052a1.486,1.486,0,0,0,.176-.124c2.331-2.005,4.613-4.123,6.785-6.3,11.588-11.588,20.232-24.816,24.338-37.248a1.742,1.742,0,0,0-3.308-1.095Z" transform="translate(4.625 9.289)" fill="#330b7e"/>
      <path id="Path_569" data-name="Path 569" d="M124.518,89.56a1.741,1.741,0,1,0,1.095,3.3c9.35-3.092,17.567-3.164,23.136-.2a1.741,1.741,0,0,0,2.049-.305,1.719,1.719,0,0,0,.305-.415,1.738,1.738,0,0,0-.72-2.354C143.874,86.125,134.931,86.117,124.518,89.56Z" transform="translate(4.234 -12.712)" fill="#330b7e"/>
      <path id="Path_570" data-name="Path 570" d="M156.635,92.66a1.742,1.742,0,0,0-1.6-3.1,109.338,109.338,0,0,0-26.671,19.849c-16.78,16.78-27.083,36.707-26.888,52a1.742,1.742,0,1,0,3.483-.043c-.182-14.176,9.972-33.6,25.868-49.5A105.744,105.744,0,0,1,156.635,92.66Z" transform="translate(-36.864 -8.226)" fill="#330b7e"/>
      <path id="Path_571" data-name="Path 571" d="M117.6,115.924a144.091,144.091,0,0,0-12.5,14.251,1.742,1.742,0,1,0,2.766,2.118,140.3,140.3,0,0,1,12.2-13.9C141.2,97.26,167.058,84.746,184.42,87.253a1.742,1.742,0,0,0,.5-3.449C166.234,81.107,139.813,93.716,117.6,115.924Z" transform="translate(-30.728 -19.372)" fill="#330b7e"/>
      <path id="Path_572" data-name="Path 572" d="M113.937,104.99a1.742,1.742,0,1,0-2.927-1.89c-6.065,9.4-10.393,18.981-12.513,27.72a1.742,1.742,0,1,0,3.385.821C103.91,123.277,108.079,114.06,113.937,104.99Z" transform="translate(-42.564 16.107)" fill="#330b7e"/>
      <path id="Path_573" data-name="Path 573" d="M192.766,80.143c-20.223,3.1-44.426,17.083-64.744,37.4-13.732,13.732-24.5,28.991-31.137,44.129a1.742,1.742,0,0,0,3.19,1.4c6.468-14.746,16.985-29.636,30.411-43.066,19.811-19.811,43.29-33.425,62.808-36.419a1.717,1.717,0,0,0,.965-.49,1.74,1.74,0,0,0-1.492-2.953Z" transform="translate(-45.779 -25.619)" fill="#330b7e"/>
      <path id="Path_574" data-name="Path 574" d="M156.516,81.537a1.742,1.742,0,1,0-1.2-3.27c-14.712,5.425-30.126,14.709-44.575,26.85a1.742,1.742,0,0,0,2.242,2.668C127.122,95.9,142.179,86.821,156.516,81.537Z" transform="translate(-20.615 -29.312)" fill="#330b7e"/>
      <path id="Path_575" data-name="Path 575" d="M97.62,137.672a1.766,1.766,0,0,0,.32-.441c7.526-14.778,18.538-29.625,31.846-42.936a1.741,1.741,0,0,0-2.463-2.461c-13.565,13.565-24.8,28.714-32.486,43.815a1.742,1.742,0,0,0,2.783,2.023Z" transform="translate(-49.715 -4.546)" fill="#330b7e"/>
      <path id="Path_576" data-name="Path 576" d="M187.782,75.511c-20.353,8.284-41.8,23.087-60.4,41.685-14.337,14.337-26.447,30.357-35.018,46.324a1.742,1.742,0,1,0,3.069,1.648c8.413-15.674,20.315-31.411,34.413-45.512,18.278-18.276,39.32-32.808,59.249-40.922a1.718,1.718,0,0,0,.576-.38,1.741,1.741,0,0,0-1.887-2.844Z" transform="translate(-54.403 -34.538)" fill="#330b7e"/>
      <path id="Path_577" data-name="Path 577" d="M93.56,163.723a224.381,224.381,0,0,1,35.111-44.9c18.074-18.071,38.185-32.641,58.163-42.138a1.742,1.742,0,1,0-1.5-3.146c-20.333,9.664-40.781,24.473-59.131,42.824a227.742,227.742,0,0,0-35.652,45.6,1.741,1.741,0,0,0,3.005,1.76Z" transform="translate(-57.86 -38.33)" fill="#330b7e"/>
      <path id="Path_578" data-name="Path 578" d="M91.749,162.235A251.84,251.84,0,0,1,127.393,117.8c17.757-17.757,37.583-32.65,57.333-43.068a1.741,1.741,0,1,0-1.625-3.08c-20.056,10.58-40.17,25.686-58.169,43.685A255.128,255.128,0,0,0,88.8,160.391a1.741,1.741,0,0,0,2.953,1.844Z" transform="translate(-61.218 -41.941)" fill="#330b7e"/>
      <path id="Path_579" data-name="Path 579" d="M157.309,69.823c-19.8,11.26-39.654,26.6-57.417,44.365a1.741,1.741,0,0,0,2.461,2.463C119.9,99.1,139.5,83.958,159.029,72.851a1.741,1.741,0,1,0-1.72-3.028Z" transform="translate(-40.808 -45.425)" fill="#330b7e"/>
      <path id="Path_580" data-name="Path 580" d="M88.194,120.969a1.742,1.742,0,0,0,2.665,2.221,1.882,1.882,0,0,0,.2-.245,278.694,278.694,0,0,1,26.6-32.852,1.74,1.74,0,0,0-.075-2.461,1.758,1.758,0,0,0-2.461.075A282.2,282.2,0,0,0,88.194,120.969Z" transform="translate(-62.429 -12.367)" fill="#330b7e"/>
      <path id="Path_581" data-name="Path 581" d="M88.245,159.126a305.428,305.428,0,0,1,36.41-43.708,296.48,296.48,0,0,1,56.138-44.4,1.741,1.741,0,1,0-1.8-2.982,299.685,299.685,0,0,0-56.8,44.918,308.883,308.883,0,0,0-36.828,44.207,1.742,1.742,0,1,0,2.878,1.962Z" transform="translate(-67.74 -48.825)" fill="#330b7e"/>
      <path id="Path_582" data-name="Path 582" d="M86.644,156.943A332.455,332.455,0,0,1,123,114.01a323.42,323.42,0,0,1,55.429-44.722,1.8,1.8,0,0,0,.3-.242,1.742,1.742,0,0,0-2.164-2.7,326.892,326.892,0,0,0-56.031,45.2A336.006,336.006,0,0,0,83.8,154.932a1.742,1.742,0,1,0,2.844,2.011Z" transform="translate(-70.715 -52.05)" fill="#330b7e"/>
      <path id="Path_583" data-name="Path 583" d="M85.235,153.79a360.071,360.071,0,0,1,35.753-41.544,351.409,351.409,0,0,1,54.086-44.5,1.686,1.686,0,0,0,.271-.222,1.741,1.741,0,0,0-2.2-2.68,354.81,354.81,0,0,0-54.625,44.941,363.9,363.9,0,0,0-36.1,41.948,1.742,1.742,0,0,0,2.809,2.06Z" transform="translate(-73.336 -54.916)" fill="#330b7e"/>
      <path id="Path_584" data-name="Path 584" d="M84.035,149.56a388.162,388.162,0,0,1,34.543-39.493,378.983,378.983,0,0,1,52.052-43.65,1.794,1.794,0,0,0,.242-.2,1.742,1.742,0,0,0-2.224-2.662A382.527,382.527,0,0,0,116.115,107.6a391.836,391.836,0,0,0-34.854,39.85,1.742,1.742,0,0,0,2.775,2.106Z" transform="translate(-75.563 -57.373)" fill="#330b7e"/>
      <path id="Path_585" data-name="Path 585" d="M97.407,92.015a1.738,1.738,0,0,0,2.458.127,400.679,400.679,0,0,1,33.122-26.807,2.621,2.621,0,0,0,.213-.182,1.743,1.743,0,0,0-2.256-2.642A404.967,404.967,0,0,0,97.534,89.554,1.739,1.739,0,0,0,97.407,92.015Z" transform="translate(-45.367 -59.374)" fill="#330b7e"/>
      <path id="Path_586" data-name="Path 586" d="M108.838,81.95c-9.2,9.2-17.985,18.823-26.124,28.613a1.742,1.742,0,0,0,2.57,2.345c.037-.037.075-.078.109-.118,8.07-9.71,16.786-19.258,25.908-28.377,2.351-2.351,4.757-4.705,7.157-6.993a1.723,1.723,0,0,0,.058-2.463,1.745,1.745,0,0,0-2.463-.058C113.635,77.208,111.207,79.582,108.838,81.95Z" transform="translate(-72.916 -36.349)" fill="#330b7e"/>
      <path id="Path_587" data-name="Path 587" d="M82.41,134.126A445.993,445.993,0,0,1,151.574,66.2a1.473,1.473,0,0,0,.158-.138,1.742,1.742,0,0,0-2.308-2.6A449.493,449.493,0,0,0,79.71,131.922a1.743,1.743,0,1,0,2.7,2.2Z" transform="translate(-78.55 -57.656)" fill="#330b7e"/>
      <path id="Path_588" data-name="Path 588" d="M82.122,123.726c8.188-9.655,16.95-19.163,26.049-28.259,10.116-10.116,20.71-19.8,31.486-28.769a1.4,1.4,0,0,0,.118-.107,1.741,1.741,0,0,0-2.345-2.57C126.57,73.062,115.9,82.812,105.707,93c-9.165,9.165-17.993,18.742-26.242,28.469a1.742,1.742,0,1,0,2.656,2.253Z" transform="translate(-79.051 -56.668)" fill="#330b7e"/>
      <path id="Path_589" data-name="Path 589" d="M86.083,95.636a1.741,1.741,0,0,0,2.472,2.452l.009-.009a498.241,498.241,0,0,1,36.8-33.791,1.5,1.5,0,0,0,.124-.112,1.742,1.742,0,0,0-2.345-2.57C111.36,71.365,99.8,81.9,88.789,92.911Q87.428,94.272,86.083,95.636Z" transform="translate(-66.763 -61.206)" fill="#330b7e"/>
      <path id="Path_590" data-name="Path 590" d="M83.356,88.14l.06-.066c3.077-3.408,6.258-6.837,9.456-10.185a1.742,1.742,0,0,0-2.521-2.406c-3.218,3.371-6.422,6.823-9.52,10.26a1.741,1.741,0,0,0,2.524,2.4Z" transform="translate(-76.546 -35.365)" fill="#330b7e"/>
      <path id="Path_591" data-name="Path 591" d="M89.013,85.09c6.843-6.722,13.922-13.305,21.039-19.563.029-.026.058-.052.084-.078a1.742,1.742,0,0,0-2.383-2.538c-7.166,6.3-14.294,12.928-21.18,19.7a1.769,1.769,0,0,0-.023,2.463A1.743,1.743,0,0,0,89.013,85.09Z" transform="translate(-65.863 -58.817)" fill="#330b7e"/>
      <path id="Path_592" data-name="Path 592" d="M83.744,85.24l.043-.043c3.57-3.815,7.321-7.7,11.153-11.545a1.742,1.742,0,0,0-2.466-2.461v0c-3.858,3.872-7.635,7.782-11.231,11.623a1.741,1.741,0,0,0,2.5,2.423Z" transform="translate(-75.813 -43.382)" fill="#330b7e"/>
    </g>
    <g id="Group_523" data-name="Group 523" transform="translate(18.005 15.476)">
      <path id="Path_593" data-name="Path 593" d="M68.916,47.444a1.744,1.744,0,0,0-1.533,1.93,74.559,74.559,0,0,1-1.216,24.583,1.741,1.741,0,1,0,3.4.749,77.887,77.887,0,0,0,1.276-25.729A1.742,1.742,0,0,0,68.916,47.444Z" transform="translate(90.197 44.641)" fill="#330b7e"/>
      <path id="Path_594" data-name="Path 594" d="M85.5,44.67a59.572,59.572,0,0,1-8.6,4.538,1.744,1.744,0,0,0-1.029,1.913,67.62,67.62,0,0,1-4.06,38.66,66.38,66.38,0,0,1-13.769,20.9,1.742,1.742,0,0,0,2.481,2.446l.017-.017a69.851,69.851,0,0,0,14.487-22,70.952,70.952,0,0,0,4.506-39.265,63.036,63.036,0,0,0,7.837-4.247A1.741,1.741,0,0,0,85.5,44.67Z" transform="translate(74.073 38.929)" fill="#330b7e"/>
      <path id="Path_595" data-name="Path 595" d="M102.665,42.226A53.488,53.488,0,0,1,88,49.383a1.743,1.743,0,0,0-1.164,2.109c3.705,13.98,2.9,27.533-2.4,40.282a60.332,60.332,0,0,1-33.074,32.7c-.948.389-1.876.74-2.754,1.043a1.741,1.741,0,0,0,1.132,3.293c.942-.326,1.933-.7,2.945-1.112A63.843,63.843,0,0,0,87.651,93.111,64.777,64.777,0,0,0,90.6,52.195a56.854,56.854,0,0,0,14.046-7.108,1.741,1.741,0,1,0-1.985-2.861Z" transform="translate(55.027 34.263)" fill="#330b7e"/>
      <path id="Path_596" data-name="Path 596" d="M16.617,49.407a75.616,75.616,0,0,1,11.122-4.518,1.722,1.722,0,0,0,.709-.429,1.748,1.748,0,0,0,.366-.539A85.861,85.861,0,0,1,43.139,21.281a1.741,1.741,0,1,0-2.616-2.3A89.207,89.207,0,0,0,25.935,41.812,78.618,78.618,0,0,0,15.053,46.3a1.741,1.741,0,0,0,1.565,3.112Z" transform="translate(-7.686 -9.997)" fill="#330b7e"/>
      <path id="Path_597" data-name="Path 597" d="M119.483,39.923a47.239,47.239,0,0,1-20.71,8.742,1.757,1.757,0,0,0-1.227.876,1.8,1.8,0,0,0-.1,1.524l.04.109C102.97,66,102.962,80.243,97.453,93.5a53.385,53.385,0,0,1-29.27,28.922,57.221,57.221,0,0,1-29.109,3.5,1.743,1.743,0,0,0-.481,3.452A60.8,60.8,0,0,0,69.5,125.645a56.854,56.854,0,0,0,31.169-30.809c5.636-13.565,5.872-28.06.709-43.106a50.738,50.738,0,0,0,20.186-9.012,1.742,1.742,0,1,0-2.08-2.795Z" transform="translate(35.576 29.866)" fill="#330b7e"/>
      <path id="Path_598" data-name="Path 598" d="M15.427,64.087a66.935,66.935,0,0,1,20.007-9.01A1.737,1.737,0,0,0,36.61,54.02l.141-.36A79.245,79.245,0,0,1,54.588,26.433a81.98,81.98,0,0,1,8.327-7.269,1.741,1.741,0,1,0-2.106-2.772,85.272,85.272,0,0,0-8.684,7.578,82.721,82.721,0,0,0-18.443,27.98,70.188,70.188,0,0,0-20.2,9.249,1.741,1.741,0,1,0,1.942,2.89Z" transform="translate(-10.281 -14.42)" fill="#330b7e"/>
      <path id="Path_599" data-name="Path 599" d="M131.835,37.772a39.96,39.96,0,0,1-27.4,8.54,1.743,1.743,0,0,0-1.674,2.512,92.553,92.553,0,0,1,3.835,8.868c4.858,13.124,4.881,25.651.063,37.24A46.377,46.377,0,0,1,81.2,120.074a49.949,49.949,0,0,1-37.66-.262A51.685,51.685,0,0,1,31.6,112.724a1.742,1.742,0,0,0-2.164,2.731,55.1,55.1,0,0,0,12.741,7.563,53.5,53.5,0,0,0,40.337.279,49.857,49.857,0,0,0,27.363-27.032c5.163-12.421,5.157-25.807-.014-39.787-.833-2.23-1.749-4.443-2.74-6.6A43.392,43.392,0,0,0,133.993,40.5a1.741,1.741,0,1,0-2.158-2.731Z" transform="translate(19.933 25.762)" fill="#330b7e"/>
      <path id="Path_600" data-name="Path 600" d="M14.887,75.365A59.886,59.886,0,0,1,42.022,62.043a1.753,1.753,0,0,0,.873-.473,1.714,1.714,0,0,0,.429-.712c.383-1.219.807-2.429,1.271-3.6A72.3,72.3,0,0,1,60.868,32.415a75.546,75.546,0,0,1,18.7-13.651,1.742,1.742,0,1,0-1.6-3.092A79.064,79.064,0,0,0,58.4,29.951,75.788,75.788,0,0,0,41.354,55.983c-.369.936-.717,1.9-1.04,2.87a63.172,63.172,0,0,0-27.723,13.9,1.741,1.741,0,1,0,2.3,2.616Z" transform="translate(-11.637 -15.476)" fill="#330b7e"/>
      <path id="Path_601" data-name="Path 601" d="M131.627,35.77a33.1,33.1,0,0,1-15.564,7.019,32.987,32.987,0,0,1-20.056-3.014,13.345,13.345,0,0,0-2.838-1.014,1.74,1.74,0,0,0-1.789,2.749,86.748,86.748,0,0,1,12.366,22.4c4.233,11.418,4.29,22.232.173,32.143a39.438,39.438,0,0,1-21.67,21.37,42.883,42.883,0,0,1-32.3-.222,45.248,45.248,0,0,1-15.726-11.165,1.74,1.74,0,0,0-2.832.38,32.855,32.855,0,0,1-4.163,6.229,1.741,1.741,0,1,0,2.654,2.256,35.972,35.972,0,0,0,3.432-4.786,48.57,48.57,0,0,0,15.273,10.292,46.432,46.432,0,0,0,34.978.239,42.926,42.926,0,0,0,23.571-23.257c4.463-10.75,4.423-22.422-.124-34.69a89.564,89.564,0,0,0-9.387-18.417,36.4,36.4,0,0,0,19,1.942,36.571,36.571,0,0,0,17.2-7.759,1.741,1.741,0,0,0-2.2-2.7Z" transform="translate(16.243 21.964)" fill="#330b7e"/>
      <path id="Path_602" data-name="Path 602" d="M14.947,84.315c.568-.677,1.2-1.377,1.876-2.083.239-.251.478-.487.712-.72a52.919,52.919,0,0,1,30.2-14.481A1.751,1.751,0,0,0,49.2,65.67a45.267,45.267,0,0,1,2.109-6.993A65.42,65.42,0,0,1,66.028,36.207,69.506,69.506,0,0,1,90.369,20.513c1.02-.395,1.965-.735,2.89-1.04a1.742,1.742,0,0,0-1.095-3.308c-.98.326-1.977.683-3.048,1.1A72.944,72.944,0,0,0,63.565,33.746,68.922,68.922,0,0,0,48.061,57.4a49.711,49.711,0,0,0-2,6.35A56.233,56.233,0,0,0,15.071,79.048c-.251.248-.5.5-.761.769-.732.764-1.415,1.524-2.031,2.259a1.741,1.741,0,1,0,2.668,2.239Z" transform="translate(-11.87 -14.344)" fill="#330b7e"/>
      <path id="Path_603" data-name="Path 603" d="M130.387,33.91a26.166,26.166,0,0,1-28.054,3.117,22.843,22.843,0,0,0-18.051-.582,19.852,19.852,0,0,0-2.616,1.222,1.742,1.742,0,0,0-.363,2.76A80.684,80.684,0,0,1,100.44,69.822c3.6,9.715,3.694,18.82.274,27.055a32.457,32.457,0,0,1-17.866,17.587,35.7,35.7,0,0,1-26.939-.182c-9.116-3.869-16.27-11.075-21.263-21.416a1.743,1.743,0,0,0-3.311.824,26.256,26.256,0,0,1-5.846,17.535,1.741,1.741,0,1,0,2.7,2.2A29.7,29.7,0,0,0,34.411,99.7a43.459,43.459,0,0,0,20.134,17.789,39.264,39.264,0,0,0,29.619.2,35.961,35.961,0,0,0,19.768-19.477c3.766-9.076,3.688-19.033-.228-29.6a84.014,84.014,0,0,0-18.212-28.9l.04-.014a19.319,19.319,0,0,1,15.253.452,29.657,29.657,0,0,0,31.8-3.532,1.742,1.742,0,0,0-2.2-2.705Z" transform="translate(13.014 18.471)" fill="#330b7e"/>
      <path id="Path_604" data-name="Path 604" d="M15.541,91.547a40.923,40.923,0,0,1,5.5-7.177c.2-.207.392-.4.6-.608C29.4,76,40.761,71.283,52.81,70.819a1.742,1.742,0,0,0,1.668-1.6,37.2,37.2,0,0,1,2.489-10.669A58.534,58.534,0,0,1,70.129,38.46,62.57,62.57,0,0,1,92.046,24.342a68.167,68.167,0,0,1,12.043-3.391,1.74,1.74,0,1,0-.631-3.423,71.549,71.549,0,0,0-12.666,3.564A66,66,0,0,0,67.668,36,61.9,61.9,0,0,0,53.729,57.275a40.77,40.77,0,0,0-2.57,10.145c-12.352.821-23.937,5.832-31.984,13.879-.219.219-.438.438-.654.663a44.369,44.369,0,0,0-5.961,7.788,1.741,1.741,0,1,0,2.982,1.8Z" transform="translate(-11.047 -11.67)" fill="#330b7e"/>
      <path id="Path_605" data-name="Path 605" d="M128.746,32.553a19.046,19.046,0,0,1-20.082,1.9,29.88,29.88,0,0,0-23.646-.841,24.523,24.523,0,0,0-8.6,5.474,20.861,20.861,0,0,0-2.426,2.91,1.743,1.743,0,0,0,.349,2.345A73.887,73.887,0,0,1,97.153,75.9c2.968,8.021,3.092,15.415.372,21.966a25.533,25.533,0,0,1-14.069,13.81,28.629,28.629,0,0,1-21.58-.141c-8.3-3.529-15.245-11.2-19.059-21.053-1-2.573-2.236-5.777-5.592-7.252-2.778-1.225-6.8-1.17-9.113,1.225-2.345,2.455-1.786,6.293-1.034,9.367a19.284,19.284,0,0,1-3.348,16.146,1.742,1.742,0,0,0,2.777,2.1,22.813,22.813,0,0,0,3.953-19.085c-.288-1.173-1.158-4.734.17-6.125,1.129-1.19,3.578-1.155,5.192-.444,1.893.833,2.711,2.648,3.748,5.322,4.152,10.724,11.787,19.108,20.944,23a32.179,32.179,0,0,0,24.26.161A29,29,0,0,0,100.74,99.2c3.071-7.39,2.962-15.639-.32-24.511a77.458,77.458,0,0,0-22.595-32,20.435,20.435,0,0,1,8.445-5.84,26.347,26.347,0,0,1,20.846.715,22.519,22.519,0,0,0,23.738-2.242,1.743,1.743,0,0,0-2.109-2.775Z" transform="translate(9.772 14.809)" fill="#330b7e"/>
      <path id="Path_606" data-name="Path 606" d="M16.7,97.44a34.235,34.235,0,0,1,7.48-12.069c.161-.17.323-.331.484-.493,7.88-7.88,19.984-11.9,32.382-10.747.251.023.5.046.752.078a1.76,1.76,0,0,0,1.464-.513,1.731,1.731,0,0,0,.475-1.478A29.035,29.035,0,0,1,61.549,57.29,51.589,51.589,0,0,1,73.154,39.577a55.635,55.635,0,0,1,19.5-12.548,61.288,61.288,0,0,1,19.46-4.022,1.742,1.742,0,0,0-.153-3.481A64.8,64.8,0,0,0,91.4,23.779,59.161,59.161,0,0,0,70.691,37.113a55.055,55.055,0,0,0-12.383,18.9,32.85,32.85,0,0,0-2.265,14.544C43.089,69.711,30.518,74.094,22.2,82.415c-.184.184-.366.369-.545.556a37.673,37.673,0,0,0-8.229,13.277A1.742,1.742,0,1,0,16.7,97.44Z" transform="translate(-9.146 -7.86)" fill="#330b7e"/>
      <path id="Path_607" data-name="Path 607" d="M24.84,111.52a15.718,15.718,0,0,0,2.112-12.337c-.553-2.25-1.423-9.407,1.668-12.64l.112-.112c1.982-1.982,6.039-3.06,10.1-2.68,3.437.317,6.287,1.608,7.439,3.368a33.133,33.133,0,0,1,2.181,4.636c.605,1.449,1.259,3,2.023,4.59,3.867,8.09,9.26,13.648,16.028,16.524a25.065,25.065,0,0,0,18.9.13,22.015,22.015,0,0,0,12.17-11.925c3.593-8.649.573-16.757-.421-19.419A69.9,69.9,0,0,0,73.8,50.343c-.412-.311-.83-.617-1.262-.934-1.386-1.029.326.245-.568-.418a23.876,23.876,0,0,1,5.241-7.828A27.981,27.981,0,0,1,87.025,34.9a33.446,33.446,0,0,1,26.447.965,15.733,15.733,0,0,0,15.55-.919,1.743,1.743,0,0,0-1.91-2.916,12.229,12.229,0,0,1-12.092.715,36.979,36.979,0,0,0-29.247-1.095A31.463,31.463,0,0,0,74.748,38.7a27.37,27.37,0,0,0-6.169,9.39c-.421,1.112-.637,2.187.291,2.922.449.354,1.049.792,1.6,1.2.429.314.83.608,1.233.913a66.364,66.364,0,0,1,22.174,29.74c.876,2.345,3.535,9.488.467,16.872A18.62,18.62,0,0,1,84.08,109.771a21.5,21.5,0,0,1-16.216-.107C61.9,107.129,57.1,102.141,53.611,94.84c-.726-1.516-1.36-3.017-1.948-4.423a33.617,33.617,0,0,0-2.481-5.209c-1.749-2.668-5.5-4.509-10.032-4.927-5.108-.478-10.165.968-12.882,3.685l-.141.141c-5.08,5.313-2.584,15.8-2.559,15.91a12.223,12.223,0,0,1-1.645,9.6,1.741,1.741,0,0,0,2.916,1.9Z" transform="translate(6.511 10.267)" fill="#330b7e"/>
      <path id="Path_608" data-name="Path 608" d="M45.649,22.959a1.742,1.742,0,1,0,.651,3.423,55.655,55.655,0,0,1,15.919-.712,1.74,1.74,0,1,0,.343-3.463A59.142,59.142,0,0,0,45.649,22.959Z" transform="translate(49.01 -3.36)" fill="#330b7e"/>
      <path id="Path_609" data-name="Path 609" d="M32.41,51.614a24.905,24.905,0,0,0-1.225,15.08,1.741,1.741,0,0,0,2.109,1.276,1.742,1.742,0,0,0,1.273-2.106,21.453,21.453,0,0,1,1.083-12.977c4.731-12.038,14.366-21.382,27.13-26.306a1.742,1.742,0,0,0-1.256-3.25C47.842,28.614,37.5,38.658,32.41,51.614Z" transform="translate(23.234 -0.916)" fill="#330b7e"/>
      <path id="Path_610" data-name="Path 610" d="M17.933,70.051a1.821,1.821,0,0,0,.5-1.075A29.09,29.09,0,0,1,26.116,52.4c6.4-6.69,16.581-10.11,27.2-9.131,9.923.91,18.31,5.552,23.012,12.732a48.265,48.265,0,0,1,3.95,7.949l.029.069c.542,1.317,1.037,2.5,1.59,3.642a1.74,1.74,0,0,0,2.325.81,1.714,1.714,0,0,0,.473-.337,1.743,1.743,0,0,0,.337-1.991c-.513-1.055-.985-2.187-1.51-3.46l-.032-.078a50.9,50.9,0,0,0-4.25-8.514C73.95,46.015,64.617,40.806,53.631,39.8,41.971,38.72,30.749,42.518,23.6,49.986a32.512,32.512,0,0,0-8.626,18.6,1.774,1.774,0,0,0,.772,1.691A1.736,1.736,0,0,0,17.933,70.051Z" transform="translate(-6.057 29.94)" fill="#330b7e"/>
      <path id="Path_611" data-name="Path 611" d="M23.57,110.594a8.64,8.64,0,0,0,.326-5.221c-.032-.124-3.051-12.372,3.423-19.134,3.429-3.6,9.514-5.471,15.858-4.884,5.664.519,10.269,2.881,12.628,6.489a37.382,37.382,0,0,1,2.8,5.811c.57,1.363,1.158,2.772,1.855,4.218,3.117,6.517,7.315,10.934,12.473,13.127a17.94,17.94,0,0,0,13.542.084,15.059,15.059,0,0,0,8.367-8.145c2.265-5.443.792-10.782-.516-14.328a62.962,62.962,0,0,0-20.99-28.15c-.4-.3-.81-.605-1.236-.913A16.687,16.687,0,0,1,68.958,56.9c-.671-.934-.853-3.141.1-5.555,3.287-8.367,10.1-14.9,19.172-18.4a40.491,40.491,0,0,1,32.048,1.227,8.7,8.7,0,0,0,6.964.32,1.742,1.742,0,1,0-1.253-3.25,5.138,5.138,0,0,1-4.166-.19,44.029,44.029,0,0,0-34.845-1.357c-9.995,3.852-17.512,11.09-21.16,20.379-1.3,3.308-1.173,6.785.317,8.857a18.036,18.036,0,0,0,3.947,3.455c.38.277.766.556,1.152.853A59.436,59.436,0,0,1,91.057,89.821c1.1,2.991,2.363,7.468.568,11.781a11.639,11.639,0,0,1-6.468,6.258,14.39,14.39,0,0,1-10.862-.066c-4.354-1.85-7.952-5.693-10.7-11.427-.657-1.366-1.227-2.731-1.8-4.094a39.335,39.335,0,0,0-3.077-6.336c-2.947-4.5-8.5-7.436-15.227-8.05C36.12,77.2,28.972,79.474,24.8,83.831c-7.794,8.142-4.428,21.822-4.284,22.39a5.159,5.159,0,0,1-.193,3.115,1.741,1.741,0,1,0,3.247,1.259Z" transform="translate(2.805 5.727)" fill="#330b7e"/>
      <path id="Path_612" data-name="Path 612" d="M20.9,106.794c-.47-4.982-.323-14.308,5.924-20.834,4.889-5.126,13.124-7.782,21.526-7.007,7.8.72,14.294,4.224,17.823,9.612a41.894,41.894,0,0,1,3.365,6.869c.547,1.308,1.112,2.659,1.743,3.973,2.394,5.01,5.31,8.191,8.914,9.724a10.854,10.854,0,0,0,8.183.043c5.719-2.331,6.079-7.837,3.947-13.605A55.884,55.884,0,0,0,73.681,70.563c-.383-.291-.775-.576-1.164-.861a20.287,20.287,0,0,1-4.67-4.2c-2.631-3.665-2.106-8.69-.735-12.173,8.721-22.194,35-29.446,54.346-23.442a1.741,1.741,0,1,0,1.034-3.325,51.819,51.819,0,0,0-34.217,1.455c-11.467,4.636-20.134,13.173-24.4,24.038-2.175,5.529-1.737,11.461,1.147,15.481a23.157,23.157,0,0,0,5.44,4.97c.377.279.755.556,1.132.838a52.411,52.411,0,0,1,17.475,23.43c1.438,3.9,1.856,7.6-2,9.174a7.4,7.4,0,0,1-5.5-.026c-2.789-1.184-5.123-3.809-7.137-8.021-.594-1.236-1.141-2.547-1.671-3.812a45.119,45.119,0,0,0-3.662-7.434C64.977,80.374,57.532,76.3,48.67,75.484c-9.43-.867-18.777,2.221-24.361,8.067-7.2,7.526-7.4,18-6.875,23.568a1.742,1.742,0,0,0,3.469-.326Z" transform="translate(-1.738 1.188)" fill="#330b7e"/>
    </g>
  </g>
</svg>
