<svg xmlns="http://www.w3.org/2000/svg" xmlns:xlink="http://www.w3.org/1999/xlink" width="63.452" height="65.487" viewBox="0 0 63.452 65.487">
  <defs>
    <linearGradient id="linear-gradient" x1="1.281" y1="0.016" x2="1.148" y2="-0.03" gradientUnits="objectBoundingBox">
      <stop offset="0" stop-color="#cd5dff"/>
      <stop offset="1" stop-color="#902fff"/>
    </linearGradient>
  </defs>
  <g id="Group_4" data-name="Group 4" transform="translate(-144 209)">
    <path id="Path_8" data-name="Path 8" d="M163.178,239.042h-19.36v-6.52c1.083-.016,2.157,0,3.23-.007s2.159,0,3.239,0h12.988V212.323c0-.133-.006-.268,0-.4.02-.258.1-.336.358-.368a2.489,2.489,0,0,1,.291-.008h5.386c.6,0,.628.032.628.644q0,11.975-.006,23.95c0,1.382-.04,2.767-.143,4.144a36.056,36.056,0,0,1-1.241,6.861,40.5,40.5,0,0,1-21.1,25.664,39.731,39.731,0,0,1-11.02,3.6,40.468,40.468,0,0,1-6.878.581c-4.088,0-8.176.032-12.264.04-2.693,0-5.386-.008-8.079-.012-.74,0-1.48.006-2.219,0-.45-.006-.5-.06-.5-.515q0-2.821,0-5.642c0-.073,0-.146.006-.218a.289.289,0,0,1,.292-.306c.133-.008.266-.024.4-.025q8.1,0,16.195,0,2.8,0,5.6.014a37.448,37.448,0,0,0,4.323-.2,33.406,33.406,0,0,0,8.347-2.043,33.854,33.854,0,0,0,20.541-23,34.647,34.647,0,0,0,.976-5.729C163.184,239.273,163.178,239.188,163.178,239.042Z" transform="translate(37.507 -420.547)" fill="url(#linear-gradient)"/>
  </g>
</svg>
