<svg id="Group_3" data-name="Group 3" xmlns="http://www.w3.org/2000/svg" xmlns:xlink="http://www.w3.org/1999/xlink" width="63.452" height="65.487" viewBox="0 0 63.452 65.487">
  <defs>
    <linearGradient id="linear-gradient" x1="-0.14" y1="0.284" x2="0.704" y2="0.569" gradientUnits="objectBoundingBox">
      <stop offset="0" stop-color="#ffd157"/>
      <stop offset="1" stop-color="#ff9e3e"/>
    </linearGradient>
  </defs>
  <path id="Path_7" data-name="Path 7" d="M60,204H79.358v6.52c-1.083.016-2.157,0-3.23.007s-2.159,0-3.239,0H59.9v20.191c0,.133.006.268,0,.4-.019.258-.1.336-.358.368a2.48,2.48,0,0,1-.291.008H53.861c-.6,0-.628-.033-.628-.644q0-11.975.006-23.95c0-1.382.04-2.767.143-4.144a36,36,0,0,1,1.241-6.861,40.5,40.5,0,0,1,21.1-25.664,39.728,39.728,0,0,1,11.02-3.6,40.469,40.469,0,0,1,6.878-.581c4.088,0,8.176-.032,12.264-.04,2.693,0,5.386.008,8.079.012.74,0,1.479-.006,2.219,0,.45.006.5.06.5.515q0,2.821,0,5.642c0,.073,0,.146-.006.218a.289.289,0,0,1-.292.306c-.133.008-.266.024-.4.025q-8.1,0-16.195,0-2.8,0-5.6-.014a37.524,37.524,0,0,0-4.323.2,33.425,33.425,0,0,0-8.347,2.043,33.854,33.854,0,0,0-20.541,23A34.686,34.686,0,0,0,60,203.687C59.991,203.771,60,203.856,60,204Z" transform="translate(-53.231 -166.01)" fill="url(#linear-gradient)"/>
</svg>
